SplineFontDB: 3.2
FontName: ZameroSans-Black
FullName: Zamero Sans Black
FamilyName: Zamero Sans
Weight: Black
Copyright: Copyright (c) 2024, Zamero Type Foundry
UComments: "2024-9-29: Created with FontForge (http://fontforge.org)"
Version: 001.000
ItalicAngle: 0
UnderlinePosition: -100
UnderlineWidth: 50
Ascent: 800
Descent: 200
InvalidEm: 0
LayerCount: 2
Layer: 0 0 "Back" 1
Layer: 1 0 "Fore" 0
XUID: [1021 474 1118879153 32292]
FSType: 0
OS2Version: 0
OS2_WeightWidthSlopeOnly: 0
OS2_UseTypoMetrics: 1
CreationTime: 1727626258
ModificationTime: 1727630757
PfmFamily: 33
TTFWeight: 900
TTFWidth: 5
LineGap: 90
VLineGap: 0
OS2TypoAscent: 0
OS2TypoAOffset: 1
OS2TypoDescent: 0
OS2TypoDOffset: 1
OS2TypoLinegap: 90
OS2WinAscent: 0
OS2WinAOffset: 1
OS2WinDescent: 0
OS2WinDOffset: 1
HheadAscent: 0
HheadAOffset: 1
HheadDescent: 0
HheadDOffset: 1
OS2Vendor: 'ZAM '
Lookup: 1 0 0 "ZameroSans-Ultra-'ss15' Style Set 15 lookup 20" { "ZameroSans-Ultra-'ss15' Style Set 15 lookup 20-1"  } ['ss15' ('DFLT' <'dflt' > 'grek' <'dflt' > 'latn' <'dflt' > ) ]
Lookup: 1 0 0 "ZameroSans-Ultra-'ss14' Style Set 14 lookup 19" { "ZameroSans-Ultra-'ss14' Style Set 14 lookup 19-1"  } ['ss14' ('DFLT' <'dflt' > 'grek' <'dflt' > 'latn' <'dflt' > ) ]
Lookup: 1 0 0 "ZameroSans-Ultra-'onum' Oldstyle Figures lookup 18" { "ZameroSans-Ultra-'onum' Oldstyle Figures lookup 18-1"  } ['onum' ('DFLT' <'dflt' > 'grek' <'dflt' > 'latn' <'dflt' > ) ]
Lookup: 1 0 0 "ZameroSans-Ultra-'tnum' Tabular Numbers lookup 17" { "ZameroSans-Ultra-'tnum' Tabular Numbers lookup 17-1"  } ['tnum' ('DFLT' <'dflt' > 'grek' <'dflt' > 'latn' <'dflt' > ) ]
Lookup: 1 0 0 "ZameroSans-Ultra-'dnom' Denominators lookup 0" { "ZameroSans-Ultra-'dnom' Denominators lookup 0 subtable"  } ['dnom' ('DFLT' <'dflt' > 'latn' <'dflt' > ) ]
Lookup: 1 0 0 "ZameroSans-Ultra-'numr' Numerators lookup 0" { "ZameroSans-Ultra-'numr' Numerators lookup 0 subtable"  } ['numr' ('DFLT' <'dflt' > 'latn' <'dflt' > ) ]

StartChar: I
Encoding: 73 73 0
Width: 434
Flags: W
HStem: 0 162.5<25 122.5 311.5 409> 30 132.5<122.5 311.5> 567.5 163.5<25 122.5 311.5 409> 567.5 133.5<122.5 311.5>
VStem: 25 384<0 162.5 567.5 731> 122.5 189<30 701>
AnchorPoint: "Anchor-0" 216 731 basechar 0
AnchorPoint: "Anchor-2" 218 0 basechar 0
AnchorPoint: "Anchor-3" 271 0 basechar 0
LayerCount: 2
Fore
SplineSet
409 0 m 1x88
 25 0 l 1
 25 162.5 l 1
 409 162.5 l 1
 409 0 l 1x88
409 567.5 m 1x28
 25 567.5 l 1
 25 731 l 1
 409 731 l 1
 409 567.5 l 1x28
122.5 30 m 1x54
 122.5 701 l 1
 311.5 701 l 1
 311.5 30 l 1
 122.5 30 l 1x54
EndSplineSet
EndChar

StartChar: O
Encoding: 79 79 1
Width: 797
Flags: W
HStem: -9.99805 169.962<304.701 493.076> 569.159 169.962<304.701 493.076>
VStem: 30 182.349<254.596 474.527> 585.429 182.349<254.596 474.527>
AnchorPoint: "Anchor-0" 399 731 basechar 0
AnchorPoint: "Anchor-2" 398 0 basechar 0
AnchorPoint: "Anchor-3" 471 20 basechar 0
LayerCount: 2
Fore
SplineSet
212.348632812 364.561523438 m 0
 212.348632812 241.873819355 268.216284012 159.963867188 398.888671875 159.963867188 c 0
 529.561059738 159.963867188 585.428710938 241.873819355 585.428710938 364.561523438 c 0
 585.428710938 487.24922752 529.561059738 569.159179688 398.888671875 569.159179688 c 0
 268.216284012 569.159179688 212.348632812 487.24922752 212.348632812 364.561523438 c 0
30 364.561523438 m 0
 30 591.206054688 169.580380422 739.12109375 398.888671875 739.12109375 c 0
 628.196963328 739.12109375 767.77734375 591.206054688 767.77734375 364.561523438 c 0
 767.77734375 137.916992188 628.196963328 -9.998046875 398.888671875 -9.998046875 c 0
 169.580380422 -9.998046875 30 137.916992188 30 364.561523438 c 0
EndSplineSet
EndChar

StartChar: H
Encoding: 72 72 2
Width: 719
Flags: W
HStem: 0 21G<50 239 480 669> 275 166<145 559> 711.008 20G<50 239 480 669>
VStem: 50 189<0 275 441 731.008> 145 94<275 441> 480 189<0 275 441 731.008> 480 79<275 441>
AnchorPoint: "Anchor-0" 357 731 basechar 0
AnchorPoint: "Anchor-2" 357 0 basechar 0
LayerCount: 2
Fore
SplineSet
559 275 m 1xea
 145 275 l 1
 145 441 l 1
 559 441 l 1
 559 275 l 1xea
480 0 m 1xe4
 480 731.0078125 l 1
 669 731.0078125 l 1
 669 0 l 1
 480 0 l 1xe4
50 0 m 1xf0
 50 731.0078125 l 1
 239 731.0078125 l 1
 239 0 l 1
 50 0 l 1xf0
EndSplineSet
EndChar

StartChar: V
Encoding: 86 86 4
Width: 699
Flags: W
HStem: 0 21G<223.707 485.019> 711.008 20G<0 207.13 492.174 699>
AnchorPoint: "Anchor-0" 353 731 basechar 0
AnchorPoint: "Anchor-2" 354 0.0117188 basechar 0
LayerCount: 2
Fore
SplineSet
230 0 m 1
 0 731.0078125 l 1
 201.5 731.0078125 l 1
 353.606445312 190.694335938 l 1
 497.5 731.0078125 l 1
 699 731.0078125 l 1
 479 0 l 1
 230 0 l 1
EndSplineSet
EndChar

StartChar: D
Encoding: 68 68 5
Width: 727
Flags: W
HStem: 0 167.852<239 413.684> 563.15 167.858<239 414.068>
VStem: 50 189<167.852 563.15> 507.929 189.849<259.137 470.246>
AnchorPoint: "Anchor-0" 350 731 basechar 0
AnchorPoint: "Anchor-2" 356 0 basechar 0
LayerCount: 2
Fore
SplineSet
50 0 m 1
 50 731.0078125 l 1
 323.888671875 731.0078125 l 2
 520.609624971 731.0078125 697.77734375 631.206054688 697.77734375 364.561523438 c 0
 697.77734375 97.9169921876 519.458235806 -2.20379270389e-14 323.888671875 0 c 2
 50 0 l 1
239 563.150006907 m 1
 239 167.852257928 l 1
 298.888671875 167.961914062 l 2
 418.563994049 168.082135708 507.928710938 203.313220865 507.928710938 364.561523438 c 0
 507.928710938 525.93507827 418.563991767 562.931486786 298.888671875 563.045898438 c 2
 239 563.150006907 l 1
EndSplineSet
EndChar

StartChar: U
Encoding: 85 85 6
Width: 719
Flags: W
HStem: -9.99805 169.962<278.076 437.701> 711.008 20G<50 239 476.777 665.777>
VStem: 50 189<199.747 731.008> 476.777 189<199.747 731.008>
AnchorPoint: "Anchor-0" 362 731 basechar 0
AnchorPoint: "Anchor-2" 358 0.0117188 basechar 0
AnchorPoint: "Anchor-3" 451 18 basechar 0
LayerCount: 2
Fore
SplineSet
357.888671875 -9.998046875 m 0
 127.954428109 -9.998046875 50 102.375640235 50 274.561523438 c 2
 50 731.0078125 l 1
 239 731.0078125 l 1
 239 304.561523438 l 2
 239 217.853030359 255.391829182 159.963867188 357.888671875 159.963867188 c 0
 460.385514568 159.963867188 476.77734375 217.853030359 476.77734375 304.561523438 c 2
 476.77734375 731.0078125 l 1
 665.77734375 731.0078125 l 1
 665.77734375 274.561523438 l 2
 665.77734375 102.375640235 587.822915641 -9.998046875 357.888671875 -9.998046875 c 0
EndSplineSet
EndChar

StartChar: L
Encoding: 76 76 7
Width: 568
Flags: W
HStem: 0 163.5<239 544> 711.008 20G<50 239>
VStem: 50 189<163.5 731.008>
AnchorPoint: "Anchor-0" 139 731 basechar 0
AnchorPoint: "Anchor-2" 308 0 basechar 0
LayerCount: 2
Fore
SplineSet
239 163.5 m 1
 544 163.5 l 1
 544 0 l 1
 50 0 l 1
 50 731.0078125 l 1
 239 731.0078125 l 1
 239 163.5 l 1
EndSplineSet
EndChar

StartChar: F
Encoding: 70 70 8
Width: 574
Flags: W
HStem: 0 21G<50 239> 257 161.5<145 489> 567.508 163.5<239 549>
VStem: 50 189<0 257 418.5 567.508> 145 94<257 418.5>
AnchorPoint: "Anchor-0" 306 731 basechar 0
AnchorPoint: "Anchor-2" 297 0 basechar 0
LayerCount: 2
Fore
SplineSet
489 257 m 1xe8
 145 257 l 1
 145 418.5 l 1
 489 418.5 l 1
 489 257 l 1xe8
239 567.5078125 m 1xf0
 239 0 l 1
 50 0 l 1
 50 731.0078125 l 1
 549 731.0078125 l 1
 549 567.5078125 l 1
 239 567.5078125 l 1xf0
EndSplineSet
EndChar

StartChar: C
Encoding: 67 67 9
Width: 667
Flags: W
HStem: -9.99805 169.962<318.765 544.193> 569.159 169.962<318.765 528.426>
VStem: 31.5 189.349<256.873 472.191>
AnchorPoint: "Anchor-0" 406 731 basechar 0
AnchorPoint: "Anchor-2" 406 0 basechar 0
LayerCount: 2
Fore
SplineSet
31.5 360.561523438 m 0
 31.5 589.626439045 167.104853903 739.12109375 405.888671875 739.12109375 c 0
 571.571008916 739.12109375 639.681640625 672.891601562 639.681640625 672.891601562 c 1
 570.85546875 520.638671875 l 1
 570.85546875 520.638671875 520.99148798 569.159179688 419.888671875 569.159179688 c 0
 280.459960937 569.159179688 220.848632812 485.647841587 220.848632812 360.561523438 c 0
 220.848632812 240.272433422 280.459960937 159.963867188 419.888671875 159.963867188 c 0
 531.764554046 159.963867188 591.018554688 206.095703125 591.018554688 206.095703125 c 1
 642.827148438 44.595703125 l 1
 642.827148438 44.595703125 570.452460077 -9.998046875 405.888671875 -9.998046875 c 0
 167.104853903 -9.998046875 31.5 136.337376545 31.5 360.561523438 c 0
EndSplineSet
Substitution2: "ZameroSans-Ultra-'ss12' Style Set 12 lookup 13-1" C.ss12
EndChar

StartChar: E
Encoding: 69 69 10
Width: 579
Flags: W
HStem: 0 163.5<239 554> 284.5 161<145 494> 567.508 163.5<239 554>
VStem: 145 94<284.5 445.5>
AnchorPoint: "Anchor-0" 306 731 basechar 0
AnchorPoint: "Anchor-2" 306 0 basechar 0
AnchorPoint: "Anchor-3" 471 0 basechar 0
LayerCount: 2
Fore
SplineSet
494 284.5 m 1
 145 284.5 l 1
 145 445.5 l 1
 494 445.5 l 1
 494 284.5 l 1
239 567.5078125 m 1
 239 163.5 l 1
 554 163.5 l 1
 554 0 l 1
 50 0 l 1
 50 731.0078125 l 1
 554 731.0078125 l 1
 554 567.5078125 l 1
 239 567.5078125 l 1
EndSplineSet
EndChar

StartChar: N
Encoding: 78 78 11
Width: 719
Flags: W
HStem: 0 21G<50 225 469.464 669> 711.008 20G<50 249.934 494 669>
VStem: 50 175<0 410.005> 494 175<333.6 731.008>
AnchorPoint: "Anchor-0" 363 731 basechar 0
AnchorPoint: "Anchor-2" 365 0 basechar 0
LayerCount: 2
Fore
SplineSet
50 0 m 1
 50 731.0078125 l 1
 237 731.0078125 l 1
 494 333.599609375 l 1
 494 731.0078125 l 1
 669 731.0078125 l 1
 669 0 l 1
 482 0 l 1
 225 410.004882812 l 1
 225 0 l 1
 50 0 l 1
EndSplineSet
EndChar

StartChar: M
Encoding: 77 77 12
Width: 830
Flags: W
HStem: 0 21G<50 239 591 780> 711.008 20G<50 268.386 561.614 780>
VStem: 50 189<0 365.005> 591 189<0 365.005>
AnchorPoint: "Anchor-0" 412 731 basechar 0
AnchorPoint: "Anchor-2" 411 0 basechar 0
LayerCount: 2
Fore
SplineSet
50 0 m 1
 50 731.0078125 l 1
 259 731.0078125 l 1
 415 398.599609375 l 1
 571 731.0078125 l 1
 780 731.0078125 l 1
 780 0 l 1
 591 0 l 1
 591 365.004882812 l 1
 465 135 l 1
 365 135 l 1
 239 365.004882812 l 1
 239 0 l 1
 50 0 l 1
EndSplineSet
EndChar

StartChar: G
Encoding: 71 71 13
Width: 789
Flags: W
HStem: -9.99805 169.962<306.633 497.417> 278.5 153<406 526.019 692.827 769> 278.5 16.0957<526.019 692.827> 569.159 169.962<314.362 534.138>
VStem: 30 189.349<252.512 474.527> 535.981 169.501<197.091 277.913>
AnchorPoint: "Anchor-0" 408 731 basechar 0
AnchorPoint: "Anchor-2" 401 0 basechar 0
LayerCount: 2
Fore
SplineSet
769 278.5 m 1xdc
 406 278.5 l 1
 406 431.5 l 1
 769 431.5 l 1
 769 278.5 l 1xdc
30 364.561523438 m 0
 30 591.206054688 173.364188142 739.12109375 408.888671875 739.12109375 c 0
 577.760029187 739.12109375 647.181640625 677.391601562 647.181640625 677.391601562 c 1
 580.85546875 522.138671875 l 1
 580.85546875 522.138671875 526.367320645 569.159179688 415.888671875 569.159179688 c 0
 278.211225552 569.159179688 219.348632812 487.24922752 219.348632812 364.561523438 c 0
 219.348632812 241.873819355 269.605345893 159.963867188 406.888671875 159.963867188 c 0
 499.084495339 159.963867188 535.981445312 199.763531723 535.981445312 259.5 c 0
 535.981445312 284.046040065 526.018554688 294.595703125 526.018554688 294.595703125 c 1
 692.827148438 294.595703125 l 1xbc
 692.827148438 294.595703125 705.482421875 277.591972951 705.482421875 222 c 0
 705.482421875 93.0859042083 607.131604622 -9.998046875 399.888671875 -9.998046875 c 0
 164.287903837 -9.998046875 30 137.916992188 30 364.561523438 c 0
EndSplineSet
Substitution2: "ZameroSans-Ultra-'ss08' Style Set 8 lookup 9-1" G.ss08
Substitution2: "ZameroSans-Ultra-'ss12' Style Set 12 lookup 13-1" G.ss12
EndChar

StartChar: A
Encoding: 65 65 14
Width: 719
Flags: W
HStem: 0 21G<0 207.473 511.208 719> 125 163.5<162 556> 711.008 20G<248.023 461.25>
AnchorPoint: "Anchor-0" 352 731 basechar 0
AnchorPoint: "Anchor-2" 362 0 basechar 0
AnchorPoint: "Anchor-3" 601 0 basechar 0
LayerCount: 2
Fore
SplineSet
556 125 m 1
 162 125 l 1
 162 288.5 l 1
 556 288.5 l 1
 556 125 l 1
454 731.0078125 m 1
 719 0 l 1
 517.5 0 l 1
 355.393554688 515.313476562 l 1
 201.5 0 l 1
 0 0 l 1
 255 731.0078125 l 1
 454 731.0078125 l 1
EndSplineSet
EndChar

StartChar: P
Encoding: 80 80 15
Width: 665
Flags: W
HStem: 0 21G<50 239> 224 159.852<169 422.711> 567.149 163.858<239 416.343>
VStem: 50 189<0 224 383.852 567.149> 169 70<224 383.852> 450.929 189.849<411.379 538.862>
AnchorPoint: "Anchor-0" 339 731 basechar 0
AnchorPoint: "Anchor-2" 342 0 basechar 0
LayerCount: 2
Fore
SplineSet
169 224 m 1xec
 169 383.8515625 l 1xec
 331.888671875 383.961914062 l 2
 400.038971082 384.061748916 450.928710938 400.252966711 450.928710938 474.561523438 c 0
 450.928710938 549.75400325 400.038978627 566.951494224 331.888671875 567.045898438 c 2
 239 567.149414062 l 1
 239 0 l 1
 50 0 l 1
 50 731.0078125 l 1xf4
 353.888671875 731.0078125 l 2
 504.834707979 731.0078125 640.77734375 661.164588003 640.77734375 474.561523438 c 0
 640.77734375 291.297915868 503.951235081 224 353.888671875 224 c 2
 169 224 l 1xec
EndSplineSet
EndChar

StartChar: R
Encoding: 82 82 16
Width: 660
Flags: W
HStem: 0 21G<50 239 451.545 650> 248 154.852<169 382.794> 567.649 163.358<239 393.084>
VStem: 50 189<0 248 402.852 567.649> 169 70<248 402.852> 420.929 189.849<427.65 542.404>
AnchorPoint: "Anchor-0" 325 731 basechar 0
AnchorPoint: "Anchor-2" 342 0.0117188 basechar 0
LayerCount: 2
Back
SplineSet
124 383.3515625 m 1
 300.888671875 383.461914062 l 2
 383.403259307 383.509014034 462.928710938 404.697396723 462.928710938 501.561523438 c 0
 462.928710938 596.672668425 383.403268044 618.487535435 300.888671875 618.545898438 c 2
 184 618.649414062 l 1
 184 0 l 1
 55 0 l 1
 55 731.0078125 l 1
 308.888671875 731.0078125 l 2
 457.204101562 731.0078125 590.77734375 670.696715458 590.77734375 509.561523438 c 0
 590.77734375 364.195131811 466.688476562 330.276367188 466.688476562 330.276367188 c 1
 466.688476562 330.276367188 540.174524344 311.767586577 573.702148438 195.399414062 c 2
 630 0 l 1
 492 0 l 1
 447 165 l 2
 420.732434887 256.417062766 391.813913829 266 270 266 c 2
 124 266 l 1
 124 383.3515625 l 1
EndSplineSet
Fore
SplineSet
169 402.8515625 m 1xec
 307.888671875 402.961914062 l 2
 372.603933718 402.99137275 420.928710938 417.634334226 420.928710938 484.561523438 c 0
 420.928710938 552.029840659 372.603933688 567.499549524 307.888671875 567.545898438 c 2
 239 567.649414062 l 1
 239 0 l 1
 50 0 l 1
 50 731.0078125 l 1xf4
 323.888671875 731.0078125 l 2
 474.834846329 731.0078125 610.77734375 669.334960938 610.77734375 504.561523438 c 0
 610.77734375 368.825734629 505.688476562 331.276367188 505.688476562 331.276367188 c 1
 505.688476562 331.276367188 559.406968505 314.432254816 596.749023438 184.824707031 c 2
 650 0 l 1
 457 0 l 1
 412 165 l 2
 388.881534834 241.485608541 372.09141791 248 284 248 c 2
 169 248 l 1
 169 402.8515625 l 1xec
EndSplineSet
Substitution2: "ZameroSans-Ultra-'ss01' Style Set 1 lookup 2-1" R.ss01
EndChar

StartChar: T
Encoding: 84 84 17
Width: 614
Flags: W
HStem: 0 21G<212.5 401.5> 567.5 163.5<25 212.5 401.5 589> 567.5 133.5<212.5 401.5>
VStem: 212.5 189<0 701>
AnchorPoint: "Anchor-0" 310 731 basechar 0
AnchorPoint: "Anchor-2" 311 0.0117188 basechar 0
LayerCount: 2
Fore
SplineSet
589 567.5 m 1xd0
 25 567.5 l 1
 25 731 l 1
 589 731 l 1
 589 567.5 l 1xd0
212.5 0 m 1
 212.5 701 l 1
 401.5 701 l 1xb0
 401.5 0 l 1
 212.5 0 l 1
EndSplineSet
EndChar

StartChar: Q
Encoding: 81 81 18
Width: 866
Flags: W
HStem: -9.99805 169.962<306.691 654.721 702.938 807.506> 569.159 169.962<308.608 499.417>
VStem: 30 182.349<254.596 474.527> 595.429 184.349<254.819 471.155>
AnchorPoint: "Anchor-0" 404 731 basechar 0
AnchorPoint: "Anchor-2" 518 0 basechar 0
LayerCount: 2
Fore
SplineSet
30 364.561523438 m 0
 30 591.206054687 171.472284282 739.12109375 403.888671875 739.12109375 c 0
 637.548297924 739.12109375 779.77734375 589.104132899 779.77734375 384.561523438 c 0
 779.77734375 229.543747624 702.938476562 164.098632812 702.938476562 164.098632812 c 1
 760.403373328 165.28125078 831.888671875 178.501953125 831.888671875 178.501953125 c 1
 846.888671875 19.001953125 l 1
 846.888671875 19.001953125 742.708342236 -9.998046875 474 -9.998046875 c 0
 166.616647507 -9.998046875 30 137.916992188 30 364.561523438 c 0
212.348632812 364.561523438 m 0
 212.348632812 241.873819355 273.46870484 159.963867188 403.888671875 159.963867188 c 0
 534.30863891 159.963867188 595.428710938 241.873819355 595.428710938 364.561523438 c 0
 595.428710938 487.24922752 534.30863891 569.159179688 403.888671875 569.159179688 c 0
 273.46870484 569.159179688 212.348632812 487.24922752 212.348632812 364.561523438 c 0
EndSplineSet
Substitution2: "ZameroSans-Ultra-'ss10' Style Set 10 lookup 11-1" Q.ss10
Substitution2: "ZameroSans-Ultra-'ss09' Style Set 9 lookup 10-1" Q.ss09
EndChar

StartChar: B
Encoding: 66 66 19
Width: 640
Flags: W
HStem: 0 163.96<241.5 402.225> 292.656 145.695<169 384.479> 567.149 163.858<241.5 380.703>
VStem: 169 72.5<292.656 438.352> 399.429 192.349<454.881 551.549> 422.429 192.349<184.138 277.733>
AnchorPoint: "Anchor-0" 320 731 basechar 0
AnchorPoint: "Anchor-2" 343 0 basechar 0
LayerCount: 2
Fore
SplineSet
491.662109375 376.4375 m 1xf8
 491.662109375 376.4375 614.77734375 342.813198592 614.77734375 206.446289062 c 0xf4
 614.77734375 56.2257093529 490.197709119 -1.54459778301e-14 350.888671875 0 c 2
 50 0 l 1
 50 731.0078125 l 1
 329.888671875 731.0078125 l 2
 467.6809962 731.0078125 591.77734375 674.782103147 591.77734375 524.561523438 c 0
 591.77734375 408.693422378 491.662109375 376.4375 491.662109375 376.4375 c 1xf8
241.5 163.960019531 m 1
 320.388671875 163.961914062 l 6
 378.743516066 163.962659622 422.428710938 176.579534492 422.428710938 231.446289062 c 0xf4
 422.428710938 281.559350481 383.081424787 292.468750156 330.388671875 292.545898438 c 6
 169 292.65625 l 1
 169 438.3515625 l 1
 308.388671875 438.461914062 l 6
 360.508798462 438.576472173 399.428710938 449.897996315 399.428710938 502.061523438 c 0xf8
 399.428710938 554.895705484 360.509026629 566.9998899 308.388671875 567.045898438 c 6
 241.5 567.149414062 l 1
 241.5 163.960019531 l 1
EndSplineSet
EndChar

StartChar: J
Encoding: 74 74 20
Width: 432
Flags: W
HStem: -10 169<22.624 256.925> 567.508 163.5<50 198>
VStem: 198 189<172.134 567.508>
AnchorPoint: "Anchor-0" 209 731 basechar 0
AnchorPoint: "Anchor-2" 175 0 basechar 0
LayerCount: 2
Fore
SplineSet
128 159 m 0
 177.283691406 159 198 179.327513178 198 227 c 2
 198 567.5078125 l 1
 50 567.5078125 l 1
 50 731.0078125 l 1
 387 731.0078125 l 1
 387 201 l 2
 387 74.4647758463 327.5 -10 184 -10 c 0
 81.1423518483 -10 10 10 10 10 c 1
 24 174 l 1
 24 174 67.3388671875 159 128 159 c 0
EndSplineSet
EndChar

StartChar: K
Encoding: 75 75 21
Width: 669
Flags: W
HStem: 0 21G<50 239 419.302 664> 711.008 20G<50 239 417.273 654>
VStem: 50 189<0 311 401 731.008> 220 19<311 401>
AnchorPoint: "Anchor-0" 329 731 basechar 0
AnchorPoint: "Anchor-2" 335 0 basechar 0
LayerCount: 2
Fore
SplineSet
433 0 m 1xd0
 220 311 l 1
 220 401 l 1
 430 731.0078125 l 1
 654 731.0078125 l 1
 400 372 l 1
 664 0 l 1
 433 0 l 1xd0
50 0 m 1xe0
 50 731.0078125 l 1
 239 731.0078125 l 1
 239 0 l 1
 50 0 l 1xe0
EndSplineSet
EndChar

StartChar: S
Encoding: 83 83 22
Width: 591
Flags: W
HStem: -10 164.962<132.121 356.402> 573.159 165.962<251.316 451.653>
VStem: 39.627 196.812<476.673 557.675> 370.838 190.682<171.601 245.139>
AnchorPoint: "Anchor-0" 303 731 basechar 0
AnchorPoint: "Anchor-2" 292 0.0117188 basechar 0
LayerCount: 2
Fore
SplineSet
283.3828125 270.640625 m 0
 96.6583917599 320.777367873 39.626953125 395.053979562 39.626953125 514 c 0
 39.626953125 650.940120505 143.532751881 739.12109375 314.233398438 739.12109375 c 0
 465.285042379 739.12109375 538.745117188 688.891601562 538.745117188 688.891601562 c 1
 496.37109375 530.638671875 l 1
 496.37109375 530.638671875 432.130557696 573.159179688 331.36328125 573.159179688 c 0
 265.8840235 573.159179688 236.438476562 554.058911514 236.438476562 518 c 0
 236.438476562 487.227346017 253.187644367 470.115705103 317.497070312 454.081054688 c 0
 514.084863602 405.064654761 561.51953125 335.132192923 561.51953125 216 c 0
 561.51953125 76.7194274352 464.831486423 -10 283.8046875 -10 c 0
 127.128249802 -10 27.81640625 42.2294921875 27.81640625 42.2294921875 c 1
 64.97265625 203.482421875 l 1
 64.97265625 203.482421875 153.332704462 154.961914062 266.696289062 154.961914062 c 0
 337.24881505 154.961914062 370.837890625 173.004012463 370.837890625 208 c 0
 370.837890625 239.768885285 356.74220619 250.943142238 283.3828125 270.640625 c 0
EndSplineSet
EndChar

StartChar: W
Encoding: 87 87 23
Width: 949
Flags: W
HStem: 0 21G<144.923 401.498 542.014 798.241> 711.008 20G<0 208.512 745.23 949>
AnchorPoint: "Anchor-0" 474 731 basechar 0
AnchorPoint: "Anchor-2" 475 0 basechar 0
LayerCount: 2
Fore
SplineSet
149 0 m 1
 0 731.0078125 l 1
 205.5 731.0078125 l 1
 284.606445312 205.694335938 l 1
 391.5 671.0078125 l 1
 560.5 671.0078125 l 1
 662.606445312 205.694335938 l 1
 748.5 731.0078125 l 1
 949 731.0078125 l 1
 794 0 l 1
 546 0 l 1
 476 351.271484375 l 1
 397 0 l 1
 149 0 l 1
EndSplineSet
EndChar

StartChar: X
Encoding: 88 88 24
Width: 689
Flags: W
HStem: 0 21G<5 239.125 449.875 684> 711.008 20G<15 241.303 447.697 674>
VStem: 288 113<311 401>
AnchorPoint: "Anchor-0" 344 731 basechar 0
AnchorPoint: "Anchor-2" 352 0 basechar 0
LayerCount: 2
Fore
SplineSet
228 0 m 1
 5 0 l 1
 226 372 l 1
 15 731.0078125 l 1
 231 731.0078125 l 1
 401 401 l 1
 401 311 l 1
 228 0 l 1
461 0 m 1
 288 311 l 1
 288 401 l 1
 458 731.0078125 l 1
 674 731.0078125 l 1
 463 372 l 1
 684 0 l 1
 461 0 l 1
EndSplineSet
EndChar

StartChar: Y
Encoding: 89 89 25
Width: 689
Flags: W
HStem: 0 21G<250 439> 252 119<256 433> 711.008 20G<15 230.252 458.748 674>
VStem: 250 189<0 371>
AnchorPoint: "Anchor-0" 346 731 basechar 0
AnchorPoint: "Anchor-2" 345 0 basechar 0
LayerCount: 2
Fore
SplineSet
256 252 m 1
 15 731.0078125 l 1
 221.5 731.0078125 l 1
 344.5 449.916015625 l 1
 467.5 731.0078125 l 1
 674 731.0078125 l 1
 433 252 l 1
 256 252 l 1
250 0 m 1
 250 371 l 1
 439 371 l 1
 439 0 l 1
 250 0 l 1
EndSplineSet
EndChar

StartChar: Z
Encoding: 90 90 26
Width: 594
Flags: W
HStem: 0 163.5<275 569> 567.5 163.5<35 319>
AnchorPoint: "Anchor-0" 294 731 basechar 0
AnchorPoint: "Anchor-2" 306 0 basechar 0
LayerCount: 2
Fore
SplineSet
569 0 m 1
 25 0 l 1
 25 96 l 1
 319 567.5 l 1
 35 567.5 l 1
 35 731 l 1
 559 731 l 1
 559 625 l 1
 275 163.5 l 1
 569 163.5 l 1
 569 0 l 1
EndSplineSet
EndChar

StartChar: ampersand
Encoding: 38 38 27
Width: 754
Flags: W
HStem: -10 162.305<548.933 732.38> -10 148.093<212.287 328.691> 582.762 156.23<346.488 504.171>
VStem: 30 165.837<155.219 270.742> 141.551 183.376<455.124 560.497>
LayerCount: 2
Fore
SplineSet
296.267578125 453.821289062 m 1x70
 326.341796875 345.713867188 l 0
 326.341796875 345.713867188 195.836914063 292.991453527 195.836914062 204 c 0
 195.836914062 161.921856206 225.11330563 138.092773438 271.900390625 138.092773438 c 0
 352.835247767 138.092773438 461.486394479 213.286238607 514.75 454.205078125 c 1
 681.538085938 404.8046875 l 1
 590.225459685 102.354303689 437.350323735 -10 265.928710938 -10 c 0
 116.575377906 -10 30 70.9521484375 30 188.185546875 c 0
 30 382.66088547 296.267578125 453.821289062 296.267578125 453.821289062 c 1x70
742.451171875 4.5546875 m 1
 742.451171875 4.5546875 709.565062719 -10 621 -10 c 0
 473.490466404 -10 368.436285859 62.4542697203 295 156 c 0
 188.035678477 292.124529239 141.55078125 417.104893974 141.55078125 522 c 0
 141.55078125 663.905888236 237.651140101 738.9921875 397.022460938 738.9921875 c 0
 490.062356249 738.9921875 546.900390625 703.649414062 546.900390625 703.649414062 c 1
 499.5703125 556.848632812 l 1
 499.5703125 556.848632812 473.03033336 582.76171875 416.033691407 582.76171875 c 0
 354.282661111 582.76171875 324.926757812 558.607977332 324.926757812 491 c 0
 324.926757812 444.126292686 344.79371219 356.339040771 436.9375 248 c 0
 479.25419302 198.867976095 539.557600807 152.3046875 626.51171875 152.3046875 c 0xa8
 693.370222636 152.3046875 731.62890625 161.5546875 731.62890625 161.5546875 c 1
 742.451171875 4.5546875 l 1
EndSplineSet
EndChar

StartChar: i
Encoding: 105 105 28
Width: 269
Flags: W
HStem: 0 21G<45 224> 481.011 20G<45 224> 553.551 206.449<66.9465 202.053>
VStem: 31.8867 205.227<588.82 724.731> 45 179<0 501.011>
AnchorPoint: "Anchor-2" 137 0 basechar 0
AnchorPoint: "Anchor-3" 141 0 basechar 0
LayerCount: 2
Fore
SplineSet
45 0 m 1xe8
 45 501.010742188 l 1
 224 501.010742188 l 1
 224 0 l 1
 45 0 l 1xe8
31.88671875 656.775390625 m 0xf0
 31.88671875 719.310527913 72.3338726945 760 134.499023438 760 c 0
 196.665118088 760 237.11328125 719.310527913 237.11328125 656.775390625 c 0
 237.11328125 594.239123543 196.665118088 553.55078125 134.499023438 553.55078125 c 0
 72.3338726945 553.55078125 31.88671875 594.239123543 31.88671875 656.775390625 c 0xf0
EndSplineSet
EndChar

StartChar: o
Encoding: 111 111 29
Width: 589
Flags: W
HStem: -9.99805 162.462<234.752 353.944> 348.284 162.649<234.026 354.719>
VStem: 34 172.849<181.664 322.321> 382.929 172.849<181.664 322.321>
AnchorPoint: "Anchor-0" 294 501.011 basechar 0
AnchorPoint: "Anchor-2" 294 0 basechar 0
AnchorPoint: "Anchor-3" 357 28 basechar 0
LayerCount: 2
Fore
SplineSet
206.848632812 253.561523438 m 0
 206.848632812 192.937958336 232.916615682 152.463867188 293.888671875 152.463867188 c 0
 356.26173976 152.463867188 382.928710938 192.937958336 382.928710938 253.561523438 c 0
 382.928710938 310.362297371 356.295081883 348.284179688 294 348.284179688 c 0
 232.949957805 348.284179688 206.848632812 310.362297371 206.848632812 253.561523438 c 0
34 253.561523438 m 0
 34 409.296356709 132.336876281 510.93359375 293.888671875 510.93359375 c 0
 456.683705925 510.93359375 555.77734375 409.296356709 555.77734375 253.561523438 c 4
 555.77734375 94.0826581128 456.683705925 -9.998046875 293.888671875 -9.998046875 c 0
 132.336876281 -9.998046875 34 94.0826581128 34 253.561523438 c 0
EndSplineSet
EndChar

StartChar: n
Encoding: 110 110 30
Width: 595
Flags: W
HStem: 0 21G<50 229 366.777 545.777> 362.784 148.149<263.498 419.333> 481.011 20G<50 229>
VStem: 50 179<0 501.011> 366.777 179<0 347.742>
AnchorPoint: "Anchor-0" 295 501.011 basechar 0
AnchorPoint: "Anchor-2" 305 0 basechar 0
LayerCount: 2
Fore
SplineSet
229 284 m 9xd8
 169 293.561523438 l 21
 189.257719251 444 237.293200531 510.93359375 357 510.93359375 c 0
 481.666135504 510.93359375 545.77734375 444.084682028 545.77734375 304.561523438 c 2
 545.77734375 0 l 1
 366.77734375 0 l 1
 366.77734375 287.561523438 l 2
 366.77734375 335.212575126 346.570826151 362.784179688 299 362.784179688 c 0
 249.964590785 362.784179688 229 331.243210412 229 284 c 9xd8
50 0 m 1
 50 501.010742188 l 1
 229 501.010742188 l 1xb8
 229 0 l 1
 50 0 l 1
EndSplineSet
EndChar

StartChar: m
Encoding: 109 109 31
Width: 882
Flags: W
HStem: 0 21G<50 229 351.777 530.777 653.555 832.555> 362.784 148.149<259.197 409.357 551.264 711.134> 481.011 20G<50 229>
VStem: 50 179<0 501.011> 351.777 179<0 338.878> 653.555 179<0 350.082>
CounterMasks: 1 1c
AnchorPoint: "Anchor-0" 454 501.011 basechar 0
AnchorPoint: "Anchor-2" 445 0 basechar 0
LayerCount: 2
Fore
SplineSet
530.77734375 284 m 9xdc
 450.77734375 293.561523438 l 21
 472.381985823 444 523.611315593 510.93359375 651.27734375 510.93359375 c 0
 770.990575491 510.93359375 832.5546875 447.323924219 832.5546875 314.561523438 c 2
 832.5546875 0 l 1
 653.5546875 0 l 1
 653.5546875 297.561523438 l 2
 653.5546875 338.877907612 634.838824187 362.784179688 590.77734375 362.784179688 c 0
 548.746992994 362.784179688 530.77734375 331.243210411 530.77734375 284 c 9xdc
229 284 m 9
 169 293.561523438 l 17
 188.449565557 444 234.568737744 510.93359375 349.5 510.93359375 c 0
 469.213231741 510.93359375 530.77734375 447.323924219 530.77734375 314.561523438 c 2
 530.77734375 0 l 1
 351.77734375 0 l 1
 351.77734375 297.561523438 l 2
 351.77734375 338.877907612 333.061480437 362.784179688 289 362.784179688 c 0
 246.969649244 362.784179688 229 331.243210412 229 284 c 9
50 0 m 1
 50 501.010742188 l 1
 229 501.010742188 l 1xbc
 229 0 l 1
 50 0 l 1
EndSplineSet
EndChar

StartChar: p
Encoding: 112 112 32
Width: 602
Flags: W
HStem: -9.99805 147.962<250.363 362.006> 363.784 147.149<262.203 363.914> 481.011 20G<50 229>
VStem: 50 179<-180 501.011> 141.151 87.8486<66.4394 183.562> 166.151 62.8486<283.562 425.747> 394.08 179.849<169.893 331.143>
AnchorPoint: "Anchor-0" 294 501.011 basechar 0
AnchorPoint: "Anchor-2" 136 -179.988 basechar 0
LayerCount: 2
Fore
SplineSet
50 -180 m 1xb2
 50 501.010742188 l 1
 229 501.010742188 l 1
 229 -180 l 1
 50 -180 l 1xb2
229 213.561523438 m 1
 229 176.730791154 250.875064713 137.963867188 302.040039062 137.963867188 c 4
 366.514624485 137.963867188 394.080078125 184.242982343 394.080078125 253.561523438 c 0
 394.080078125 319.65692688 366.547966608 363.784179688 302.151367188 363.784179688 c 4
 250.908406836 363.784179688 229 331.667321378 229 283.561523438 c 1xd2
 166.151367188 283.561523438 l 1xc6
 166.151367188 425.746590474 238.528865151 510.93359375 350 510.93359375 c 0
 492.240588621 510.93359375 573.928710938 409.296356709 573.928710938 253.561523438 c 0
 573.928710938 94.082658113 488.456780902 -9.998046875 348.040039062 -9.998046875 c 0
 219.434062556 -9.998046875 141.151367188 66.4393843717 141.151367188 183.561523438 c 1xca
 229 213.561523438 l 1
EndSplineSet
EndChar

StartChar: j
Encoding: 106 106 33
Width: 269
Flags: W
HStem: -190 158.5<-100.24 27.6046> 481.011 20G<45 224> 553.551 206.449<66.9465 202.053>
VStem: 31.8867 205.227<588.82 724.731> 45 179<-12.766 501.011>
AnchorPoint: "Anchor-2" 17 -179.988 basechar 0
LayerCount: 2
Fore
SplineSet
45 51 m 2xe8
 45 501.010742188 l 1
 224 501.010742188 l 1
 224 36 l 2
 224 -100.028436019 161.862068966 -190 12 -190 c 0
 -61.8919886147 -190 -113 -175 -113 -175 c 1
 -99 -21 l 1
 -99 -21 -68.371089055 -31.5 -25.5 -31.5 c 0
 24.1357177734 -31.5 45 -6.65060240965 45 51 c 2xe8
31.88671875 656.775390625 m 0xf0
 31.88671875 719.310527913 72.3338726945 760 134.499023438 760 c 0
 196.665118088 760 237.11328125 719.310527913 237.11328125 656.775390625 c 0
 237.11328125 594.239123543 196.665118088 553.55078125 134.499023438 553.55078125 c 0
 72.3338726945 553.55078125 31.88671875 594.239123543 31.88671875 656.775390625 c 0xf0
EndSplineSet
EndChar

StartChar: k
Encoding: 107 107 34
Width: 555
Flags: W
HStem: 0 21G<50 229 319.354 550> 481.011 20G<316.09 540> 731.002 20G<50 229>
VStem: 50 179<0 206 306 751.002> 225 4<206 306>
AnchorPoint: "Anchor-0" 134 749.002 basechar 0
AnchorPoint: "Anchor-2" 275 0 basechar 0
LayerCount: 2
Fore
SplineSet
329.5 0 m 1xe8
 225 206 l 1
 225 306 l 1
 326.5 501.010742188 l 1
 540 501.010742188 l 1
 375 275.5 l 1
 550 0 l 1
 329.5 0 l 1xe8
50 0 m 1xf0
 50 751.001953125 l 1
 229 751.001953125 l 1
 229 0 l 1
 50 0 l 1xf0
EndSplineSet
EndChar

StartChar: l
Encoding: 108 108 35
Width: 371
Flags: W
HStem: -10.0088 156.5<230.182 332.48> 731.002 20G<45 224>
VStem: 45 179<151.445 751.002>
AnchorPoint: "Anchor-0" 134 749.002 basechar 0
AnchorPoint: "Anchor-2" 240 0 basechar 0
LayerCount: 2
Fore
SplineSet
224 191.991210938 m 2
 224 160.196030215 237.613574219 146.491210938 270 146.491210938 c 0
 305.871727577 146.491210938 331.5 155.991210938 331.5 155.991210938 c 1
 345.5 4.4912109375 l 1
 345.5 4.4912109375 301.9559743 -10.0087890625 239 -10.0087890625 c 0
 101.862068965 -10.0087890625 45 58.0670403215 45 160.991210938 c 2
 45 751.001953125 l 1
 224 751.001953125 l 1
 224 191.991210938 l 2
EndSplineSet
EndChar

StartChar: h
Encoding: 104 104 36
Width: 595
Flags: W
HStem: 0 21G<50 229 366.777 545.777> 362.784 148.149<263.498 419.333> 731.002 20G<50 229>
VStem: 50 179<0 751.002> 366.777 179<0 347.742>
AnchorPoint: "Anchor-0" 134 751.004 basechar 0
AnchorPoint: "Anchor-2" 299 0 basechar 0
LayerCount: 2
Fore
SplineSet
50 0 m 1
 50 751.001953125 l 1
 229 751.001953125 l 1
 229 0 l 1
 50 0 l 1
229 284 m 9
 169 293.561523438 l 21
 189.257719251 444 237.293200531 510.93359375 357 510.93359375 c 0
 481.666135504 510.93359375 545.77734375 444.084682028 545.77734375 304.561523438 c 2
 545.77734375 0 l 1
 366.77734375 0 l 1
 366.77734375 287.561523438 l 2
 366.77734375 335.212575126 346.570826151 362.784179688 299 362.784179688 c 0
 249.964590785 362.784179688 229 331.243210412 229 284 c 9
EndSplineSet
EndChar

StartChar: q
Encoding: 113 113 37
Width: 602
Flags: W
HStem: -9.99805 147.962<244.149 348.693> 363.784 147.149<242.286 340.404> 481.011 20G<378 557>
VStem: 33.0713 179.849<169.893 335.193> 378 179<-180 501.011> 378 57.8486<66.4394 183.562 283.562 425.747>
AnchorPoint: "Anchor-0" 308 501.011 basechar 0
AnchorPoint: "Anchor-2" 477 -179.988 basechar 0
LayerCount: 2
Fore
SplineSet
557 -180 m 1xb8
 378 -180 l 1
 378 501.010742188 l 1
 557 501.010742188 l 1
 557 -180 l 1xb8
378 205.561523438 m 1
 435.848632812 183.561523438 l 1xd4
 435.848632812 66.4393843718 368.917360602 -9.998046875 258.959960938 -9.998046875 c 0
 118.543219098 -9.998046875 33.0712890625 94.0826581128 33.0712890625 253.561523438 c 0
 33.0712890625 409.296356709 114.759411379 510.93359375 257 510.93359375 c 0
 362.407933119 510.93359375 430.848632812 425.746590474 430.848632812 283.561523438 c 1
 378 275.561523438 l 1
 378 328.464549512 354.594122394 363.784179688 299.848632812 363.784179688 c 4xd8
 238.954562622 363.784179688 212.919921875 319.656926879 212.919921875 253.561523438 c 0
 212.919921875 184.242982343 238.987904745 137.963867188 299.959960938 137.963867188 c 4
 354.627464517 137.963867188 378 172.628343973 378 205.561523438 c 1
EndSplineSet
EndChar

StartChar: g
Encoding: 103 103 38
Width: 602
Flags: W
HStem: -190 141<152.943 352.808> 20.002 139.962<237.847 344.145> 364.284 146.649<235.3 338.185> 481.011 20G<378 557>
VStem: 33.0713 174.849<189.212 335.892> 378 179<-22.326 39 223.562 501.011> 378 57.8486<100.388 223.562 313.562 436.986>
AnchorPoint: "Anchor-0" 308 501.011 basechar 0
AnchorPoint: "Anchor-2" 295 -179.988 basechar 0
LayerCount: 2
Fore
SplineSet
378 39 m 2xdc
 378 501.010742188 l 1
 557 501.010742188 l 1
 557 31 l 2
 557 -102.018957346 480.206896553 -190 295 -190 c 0
 157.856469131 -190 63 -143 63 -143 c 1
 102 -5 l 1
 102 -5 174.092538687 -49 275 -49 c 0
 347.51743164 -49 378 -22.4939759037 378 39 c 2xdc
378 235.561523438 m 1
 435.848632812 223.561523438 l 1xea
 435.848632812 100.388423477 364.948396302 20.001953125 258.959960938 20.001953125 c 0
 123.774819949 20.001953125 33.0712890625 115.39477208 33.0712890625 261.561523438 c 0
 33.0712890625 412.455587994 116.111459226 510.93359375 247 510.93359375 c 4
 354.27491082 510.93359375 430.848632812 436.986361897 430.848632812 313.561523438 c 1
 378 285.561523438 l 1
 378 332.767841103 351.402301977 364.284179688 294.848632812 364.284179688 c 0xec
 233.954562622 364.284179688 207.919921875 322.559005779 207.919921875 260.061523438 c 0
 207.919921875 200.037611852 235.185881361 159.963867188 298.959960938 159.963867188 c 0
 354.327970363 159.963867188 378 198.730791154 378 235.561523438 c 1
EndSplineSet
Substitution2: "ZameroSans-Ultra-'ss14' Style Set 14 lookup 19-1" g.ss14
EndChar

StartChar: f
Encoding: 102 102 39
Width: 398
Flags: W
HStem: 0 21G<85 264> 355.5 145.511<9 387> 612.011 149<271.828 419.225>
VStem: 85 179<0 601.287>
AnchorPoint: "Anchor-0" 296 752.002 basechar 0
AnchorPoint: "Anchor-2" 173 0 basechar 0
LayerCount: 2
Fore
SplineSet
9 501.010742188 m 1
 387 501.010742188 l 1
 387 355.5 l 1
 9 355.5 l 1
 9 501.010742188 l 1
264 557.010742188 m 2
 264 0 l 1
 85 0 l 1
 85 570.010742188 l 2
 85 684.97265625 145.672236874 761.010742188 292 761.010742188 c 0
 374.759014423 761.010742188 432 745.010742188 432 745.010742188 c 1
 418 601.010742188 l 1
 418 601.010742188 380.494873047 612.010742188 328 612.010742188 c 0
 282.940878378 612.010742188 264 595.444228918 264 557.010742188 c 2
EndSplineSet
EndChar

StartChar: c
Encoding: 99 99 40
Width: 492
Flags: W
HStem: -9.99805 151.462<247.932 407.74> 357.284 153.649<247.736 383.057>
VStem: 30 183.349<176.285 323.835>
AnchorPoint: "Anchor-0" 291 501.011 basechar 0
AnchorPoint: "Anchor-2" 297 0 basechar 0
LayerCount: 2
Fore
SplineSet
30 253.561523438 m 0
 30 409.296356709 119.312458723 510.93359375 287.388671875 510.93359375 c 0
 414.448430072 510.93359375 466.681640625 448.704101562 466.681640625 448.704101562 c 1
 405.85546875 315.451171875 l 1
 405.85546875 315.451171875 376.011268241 357.284179688 315.5 357.284179688 c 0
 243.942370116 357.284179688 213.348632812 315.75917902 213.348632812 253.561523438 c 0
 213.348632812 186.341769651 243.909027993 141.463867188 315.388671875 141.463867188 c 0
 387.385903396 141.463867188 425.518554688 174.595703125 425.518554688 174.595703125 c 1
 458.327148438 28.595703125 l 1
 458.327148438 28.595703125 398.430581031 -9.998046875 294.388671875 -9.998046875 c 0
 121.963221427 -9.998046875 30 94.0826581132 30 253.561523438 c 0
EndSplineSet
Substitution2: "ZameroSans-Ultra-'ss12' Style Set 12 lookup 13-1" c.ss12
EndChar

StartChar: t
Encoding: 116 116 41
Width: 412
Flags: W
HStem: -10 150.5<266.151 370.633> 355 146.011<9 387>
VStem: 85 179<146.733 651.011>
AnchorPoint: "Anchor-0" 173 660 basechar 0
AnchorPoint: "Anchor-2" 208 0.0117188 basechar 0
LayerCount: 2
Fore
SplineSet
9 501.010742188 m 1
 387 501.010742188 l 1
 387 355 l 1
 9 355 l 1
 9 501.010742188 l 1
264 171 m 2
 264 149.686884632 277.021853885 140.5 308 140.5 c 0
 343.871496582 140.5 369.5 151.5 369.5 151.5 c 1
 384.5 6 l 1
 384.5 6 342.591421274 -10 282 -10 c 0
 121.671692221 -10 85 56.0854568881 85 156 c 2
 85 651.010742188 l 1
 264 671.010742188 l 1
 264 171 l 2
EndSplineSet
Substitution2: "ZameroSans-Ultra-'ss11' Style Set 11 lookup 12-1" t.ss11
EndChar

StartChar: r
Encoding: 114 114 42
Width: 420
Flags: W
HStem: 0 21G<50 229> 351.284 159.649<255.324 400.352> 481.011 20G<50 229>
VStem: 50 179<0 501.011>
AnchorPoint: "Anchor-0" 235 501.011 basechar 0
AnchorPoint: "Anchor-2" 172 0.0117188 basechar 0
LayerCount: 2
Fore
SplineSet
50 0 m 1xb0
 50 501.010742188 l 1
 229 501.010742188 l 1
 229 0 l 1
 50 0 l 1xb0
342 510.93359375 m 0xd0
 405.044589578 510.93359375 423 484.93359375 423 484.93359375 c 1
 397 329.93359375 l 1
 397 329.93359375 363.755600528 351.284179688 313 351.284179688 c 0
 260.216381317 351.284179688 229 328.507453518 229 284 c 1
 169 293.561523438 l 5
 187.550032394 444 231.536214785 510.93359375 342 510.93359375 c 0xd0
EndSplineSet
EndChar

StartChar: e
Encoding: 101 101 43
Width: 551
Flags: W
HStem: -9.99805 148.962<243.445 454.839> 200 98.5<138.5 350.5> 367.784 143.149<228.846 330.762>
VStem: 138.5 64.8486<200 298.5>
AnchorPoint: "Anchor-0" 289 501.011 basechar 0
AnchorPoint: "Anchor-2" 302 0 basechar 0
AnchorPoint: "Anchor-3" 409 14 basechar 0
LayerCount: 2
Fore
SplineSet
30 253.561523438 m 0
 30 409.296356709 127.580114738 510.93359375 287.888671875 510.93359375 c 0
 473.338410264 510.93359375 531.465820312 378.777422805 531.465820312 268.7109375 c 0
 531.465820312 226.291637372 527 200 527 200 c 1
 138.5 200 l 1
 138.5 298.5 l 1
 350.5 298.5 l 1
 350.5 298.5 349.851554037 308.900004929 345.4921875 322 c 0
 339.834992014 339.000000424 325.077909554 367.784179688 277 367.784179688 c 0
 225.406786725 367.784179688 203.348632812 325.858832538 203.348632812 263.061523438 c 0
 203.348632812 181.968761859 236.375299911 138.963867188 320.5 138.963867188 c 0
 407.780830889 138.963867188 457.518554688 167.095703125 457.518554688 167.095703125 c 1
 486.827148438 17.095703125 l 1
 486.827148438 17.095703125 427.295941065 -9.998046875 323.888671875 -9.998046875 c 0
 120.855668422 -9.998046875 30 94.0826581132 30 253.561523438 c 0
EndSplineSet
Substitution2: "ZameroSans-Ultra-'ss03' Style Set 3 lookup 4-1" e.ss03
EndChar

StartChar: d
Encoding: 100 100 44
Width: 602
Flags: W
HStem: -9.99805 147.149<241.745 347.116> 0 21G<378 557> 362.972 147.962<243.667 359.429> 731.002 20G<378 557>
VStem: 33.0713 179.849<169.793 331.042> 378 179<217.374 751.002> 378 72.8486<317.374 434.496> 378 62.8486<75.1885 217.374>
AnchorPoint: "Anchor-0" 473 750.002 basechar 0
AnchorPoint: "Anchor-2" 316 0 basechar 0
LayerCount: 2
Fore
SplineSet
557 0 m 1x7c
 378 0 l 1x79
 378 751.001953125 l 1
 557 751.001953125 l 1
 557 0 l 1x7c
378 295.374023438 m 1xbc
 378 328.307391916 355.376504704 362.971679688 302.459960938 362.971679688 c 4
 239.736992469 362.971679688 212.919921875 316.692825759 212.919921875 247.374023438 c 0
 212.919921875 181.278808296 239.702943176 137.151367188 302.348632812 137.151367188 c 4
 355.342489679 137.151367188 378 172.471186146 378 225.374023438 c 1xbc
 440.848632812 217.374023438 l 1xb9
 440.848632812 75.1884765624 370.439389234 -9.998046875 262 -9.998046875 c 0
 116.583749611 -9.998046875 33.0712890625 91.6396484377 33.0712890625 247.374023438 c 0
 33.0712890625 406.852539062 120.434867068 510.93359375 263.959960938 510.93359375 c 0
 380.133423991 510.93359375 450.848632812 434.49609375 450.848632812 317.374023438 c 1xba
 378 295.374023438 l 1xbc
EndSplineSet
Substitution2: "ZameroSans-Ultra-'ss05' Style Set 5 lookup 6-1" d.ss05
EndChar

StartChar: b
Encoding: 98 98 45
Width: 602
Flags: W
HStem: -9.99805 147.149<256.222 363.473> 0 21G<50 229> 362.972 147.962<254.607 363.333> 731.002 20G<50 229>
VStem: 50 179<197.374 751.002> 166.151 62.8486<55.1885 197.374 297.374 424.496> 394.08 179.849<169.793 331.042>
AnchorPoint: "Anchor-0" 134 749.002 basechar 0
AnchorPoint: "Anchor-2" 296 0 basechar 0
LayerCount: 2
Fore
SplineSet
50 0 m 1x7a
 50 751.001953125 l 1
 229 751.001953125 l 1x7a
 229 0 l 1x76
 50 0 l 1x7a
229 295.374023438 m 1
 161.151367188 297.374023438 l 1
 161.151367188 424.49609375 229.974668701 510.93359375 343.040039062 510.93359375 c 0
 486.565132932 510.93359375 573.928710938 406.852539062 573.928710938 247.374023438 c 0
 573.928710938 91.6396484377 494.064218362 -9.998046875 355 -9.998046875 c 0
 240.49741713 -9.998046875 166.151367188 55.1884765624 166.151367188 197.374023438 c 1xb6
 229 225.374023438 l 1
 229 172.471186146 251.657510321 137.151367188 304.651367188 137.151367188 c 0xba
 367.297056824 137.151367188 394.080078125 181.278808296 394.080078125 247.374023438 c 0
 394.080078125 316.692825759 367.263007531 362.971679688 304.540039062 362.971679688 c 0
 251.623495296 362.971679688 229 328.307391916 229 295.374023438 c 1
EndSplineSet
EndChar

StartChar: a
Encoding: 97 97 46
Width: 566
Flags: W
HStem: -9.99805 139.998<406.943 552.716> -9.99805 126.962<138.038 286.923> 213.284 96.6494<218.385 331.777> 366.011 145<141.094 298.568>
VStem: 27.5 178.349<123.996 197.589> 315.929 181<137.891 213.284 289.011 345.54> 315.929 42.3486<51.433 145.562> 315.929 15.8486<213.284 309.934>
AnchorPoint: "Anchor-0" 274 501.011 basechar 0
AnchorPoint: "Anchor-2" 284 0 basechar 0
AnchorPoint: "Anchor-3" 458 0 basechar 0
LayerCount: 2
Back
SplineSet
342.928710938 177.561523438 m 1
 392.77734375 180.561523438 l 1
 392.77734375 65.2546726397 328.443566636 -9.998046875 192.888671875 -9.998046875 c 0
 88.5258452633 -9.998046875 25 50 25 141 c 0
 25 286.71747631 164.159368499 309.798279039 358.928710938 309.93359375 c 1
 358.77734375 224.284179688 l 1
 199.9215174 224.170106541 149.848632812 210.544945242 149.848632812 148.561523438 c 0
 149.848632812 111.324445486 174.419144912 86.4638671875 231.888671875 86.4638671875 c 0
 298.711369303 86.4638671875 342.928710938 123.027306191 342.928710938 177.561523438 c 1
342.928710938 299.010742188 m 2
 342.928710938 377.97408765 310.670027449 412.010742188 233.928710938 412.010742188 c 0
 155.769677734 412.010742188 99.9287109382 368.010742188 99.9287109382 368.010742188 c 1
 64.9287109375 467.010742188 l 1
 64.9287109375 467.010742188 144.657226562 511.010742188 259.928710938 511.010742188 c 0
 402.721987032 511.010742188 461.928710938 427.01055301 461.928710938 300.010742188 c 2
 461.928710938 118 l 2
 461.928710938 93.251950046 470.36431245 84 492.928710938 84 c 0
 510.694039812 84 521.928710938 91 521.928710938 91 c 1
 530.928710938 13 l 1
 530.928710938 13 505.8653569 -9.998046875 452.928710938 -9.998046875 c 0
 379.082557091 -9.998046875 342.928710938 33 342.928710938 125 c 2
 342.928710938 299.010742188 l 2
EndSplineSet
Fore
SplineSet
315.928710938 177.561523438 m 1x7c
 358.27734375 145.561523438 l 1x7a
 358.27734375 51.4330357696 303.438083794 -9.998046875 187.888671875 -9.998046875 c 0
 88.1879894738 -9.998046875 27.5 50 27.5 141 c 0
 27.5 286.71747631 159.146237685 309.798279039 331.928710938 309.93359375 c 5
 331.77734375 213.284179688 l 5x79
 245.89103751 213.208521269 205.848632812 204.171704203 205.848632812 163.061523438 c 0
 205.848632812 135.418901755 222.183055674 116.963867188 260.388671875 116.963867188 c 0
 293.812068127 116.963867188 315.928710938 141.28566425 315.928710938 177.561523438 c 1x7c
315.928710938 289.010742188 m 2xbc
 315.928710938 342.817623609 291.512734903 366.010742188 233.428710938 366.010742188 c 0
 165.185375976 366.010742188 116.428710938 331.510742188 116.428710938 331.510742188 c 1
 67.4287109375 467.010742188 l 1
 67.4287109375 467.010742188 146.543930288 511.010742188 260.928710938 511.010742188 c 0
 427.756498849 511.010742188 496.928710938 427.01055301 496.928710938 300.010742188 c 2
 496.928710938 159 l 2xbc
 496.928710938 137.891369157 505.092196272 130 526.928710938 130 c 0
 542.243649623 130 551.928710938 135.5 551.928710938 135.5 c 1
 560.928710938 13.5 l 1
 560.928710938 13.5 526.225605348 -9.998046875 452.928710938 -9.998046875 c 0
 360.956682966 -9.998046875 315.928710938 33 315.928710938 125 c 2xba
 315.928710938 289.010742188 l 2xbc
EndSplineSet
Substitution2: "ZameroSans-Ultra-'ss02' Style Set 2 lookup 3-1" a.ss02
Substitution2: "ZameroSans-Ultra-'ss15' Style Set 15 lookup 20-1" a.ss15
EndChar

StartChar: plus
Encoding: 43 43 47
Width: 450
Flags: W
HStem: 287.5 141<30 420>
VStem: 154.5 141<163 553>
LayerCount: 2
Fore
SplineSet
295.5 553 m 1
 295.5 163 l 1
 154.5 163 l 1
 154.5 553 l 1
 295.5 553 l 1
420 287.5 m 1
 30 287.5 l 1
 30 428.5 l 1
 420 428.5 l 1
 420 287.5 l 1
EndSplineSet
EndChar

StartChar: s
Encoding: 115 115 48
Width: 476
Flags: W
HStem: -9.99805 138.979<90.8351 267.003> 370.904 140.029<220.567 385.894>
AnchorPoint: "Anchor-0" 257 501.011 basechar 0
AnchorPoint: "Anchor-2" 235 0.0117188 basechar 0
LayerCount: 2
Fore
SplineSet
207.346679688 184.068359375 m 0
 75.4274555243 216.840379457 38.7041015625 268.45741821 38.7041015625 352 c 0
 38.7041015625 451.004767599 122.63425759 510.93359375 260.517578125 510.93359375 c 0
 379.816484296 510.93359375 437.834960938 471.225585938 437.834960938 471.225585938 c 1
 404.794921875 341.444335938 l 1
 404.794921875 341.444335938 350.003747246 370.904296875 269.243164062 370.904296875 c 0
 233.731940415 370.904296875 217.76171875 361.570411117 217.76171875 346.518554688 c 0
 217.76171875 331.657857173 227.328007368 322.230464366 260.037109375 314.086914062 c 0
 411.338031159 276.417684645 446.689453125 231.780716989 446.689453125 146.40234375 c 0
 446.689453125 50.0145708059 370.500834745 -9.998046875 227.856445312 -9.998046875 c 0
 104.923507524 -9.998046875 27 28.5625 27 28.5625 c 1
 55.314453125 165.861328125 l 1
 55.314453125 165.861328125 123.678079962 128.981445312 207.493164062 128.981445312 c 0
 248.49837191 128.981445312 268.020507812 137.266522638 268.020507812 153.336914062 c 0
 268.020507812 167.423233986 256.507563926 171.85557162 207.346679688 184.068359375 c 0
EndSplineSet
EndChar

StartChar: y
Encoding: 121 121 49
Width: 539
Flags: W
HStem: 481.011 20G<0 198.012 341.934 539>
AnchorPoint: "Anchor-0" 277 501.011 basechar 0
AnchorPoint: "Anchor-2" 192 -179.994 basechar 0
LayerCount: 2
Fore
SplineSet
179.5 45 m 1
 0 501.010742188 l 1
 191.5 501.010742188 l 1
 275.606445312 242.694335938 l 1
 347.5 501.010742188 l 1
 539 501.010742188 l 1
 286 -179.994140625 l 1
 82.5 -179.994140625 l 1
 179.5 45 l 1
EndSplineSet
Substitution2: "ZameroSans-Ultra-'ss04' Style Set 4 lookup 5-1" y.ss04
EndChar

StartChar: u
Encoding: 117 117 50
Width: 595
Flags: W
HStem: -9.92285 148.149<176.444 332.279> 0 21G<366.777 545.777> 481.011 20G<50 229 366.777 545.777>
VStem: 50 179<153.269 501.011> 366.777 179<207.449 501.011>
AnchorPoint: "Anchor-0" 302 501.011 basechar 0
AnchorPoint: "Anchor-2" 312 0.0117188 basechar 0
AnchorPoint: "Anchor-3" 464 0 basechar 0
LayerCount: 2
Fore
SplineSet
366.77734375 217.010742188 m 9xb8
 426.77734375 207.44921875 l 21
 406.519624499 57.0107421877 358.484143219 -9.9228515625 238.77734375 -9.9228515625 c 0
 114.111208246 -9.9228515625 50 56.9260601597 50 196.44921875 c 2
 50 501.010742188 l 1
 229 501.010742188 l 1
 229 213.44921875 l 2
 229 165.798167062 249.206517599 138.2265625 296.77734375 138.2265625 c 0
 345.812752965 138.2265625 366.77734375 169.767531777 366.77734375 217.010742188 c 9xb8
545.77734375 501.010742188 m 1
 545.77734375 0 l 1
 366.77734375 0 l 1x78
 366.77734375 501.010742188 l 1
 545.77734375 501.010742188 l 1
EndSplineSet
Substitution2: "ZameroSans-Ultra-'ss05' Style Set 5 lookup 6-1" u.ss05
EndChar

StartChar: backslash
Encoding: 92 92 51
Width: 434
Flags: W
LayerCount: 2
Fore
SplineSet
277.5 -171.469726562 m 1
 2.5 761.403320312 l 1
 156.5 761.403320312 l 1
 431.5 -171.469726562 l 1
 277.5 -171.469726562 l 1
EndSplineSet
EndChar

StartChar: equal
Encoding: 61 61 52
Width: 450
Flags: W
HStem: 207.5 131<30 420> 377.5 131<30 420>
LayerCount: 2
Back
SplineSet
420 285 m 1
 30 285 l 1
 30 431 l 1
 420 431 l 1
 420 285 l 1
EndSplineSet
Fore
SplineSet
420 207.5 m 1
 30 207.5 l 1
 30 338.5 l 1
 420 338.5 l 1
 420 207.5 l 1
420 377.5 m 1
 30 377.5 l 1
 30 508.5 l 1
 420 508.5 l 1
 420 377.5 l 1
EndSplineSet
EndChar

StartChar: v
Encoding: 118 118 53
Width: 539
Flags: W
HStem: 0 21G<153.613 394.988> 481.011 20G<0 196.397 343.093 539>
AnchorPoint: "Anchor-0" 272 501.011 basechar 0
AnchorPoint: "Anchor-2" 273 0.0117188 basechar 0
LayerCount: 2
Fore
SplineSet
160 0 m 1
 0 501.010742188 l 1
 191.5 501.010742188 l 1
 273.606445312 165.694335938 l 1
 347.5 501.010742188 l 1
 539 501.010742188 l 1
 389 0 l 1
 160 0 l 1
EndSplineSet
EndChar

StartChar: w
Encoding: 119 119 54
Width: 735
Flags: W
HStem: 0 21G<98.8883 327.067 407.025 635.152> 481.011 20G<0 185.848 549.152 735>
AnchorPoint: "Anchor-0" 368 501.011 basechar 0
AnchorPoint: "Anchor-2" 370 0 basechar 0
LayerCount: 2
Fore
SplineSet
103 0 m 1
 0 501.010742188 l 1
 182.5 501.010742188 l 1
 231.606445312 207.694335938 l 1
 284 451.010742188 l 1
 451 451.010742188 l 1
 503.393554688 207.694335938 l 1
 552.5 501.010742188 l 1
 735 501.010742188 l 1
 631 0 l 1
 411 0 l 1
 367.5 218.841796875 l 1
 323 0 l 1
 103 0 l 1
EndSplineSet
EndChar

StartChar: x
Encoding: 120 120 55
Width: 528
Flags: W
HStem: 0 21G<0 215.102 312.898 528> 481.011 20G<10 217.404 310.596 518>
VStem: 226 76<201 291>
AnchorPoint: "Anchor-0" 266 501.011 basechar 0
AnchorPoint: "Anchor-2" 267 0 basechar 0
LayerCount: 2
Fore
SplineSet
205.5 0 m 1
 0 0 l 1
 150 267 l 1
 10 501.010742188 l 1
 208.5 501.010742188 l 1
 302 291 l 1
 302 201 l 1
 205.5 0 l 1
322.5 0 m 1
 226 201 l 1
 226 291 l 1
 319.5 501.010742188 l 1
 518 501.010742188 l 1
 378 267 l 1
 528 0 l 1
 322.5 0 l 1
EndSplineSet
EndChar

StartChar: z
Encoding: 122 122 56
Width: 478
Flags: W
HStem: 0 154<278.5 453> 347.011 154<35 204.5>
AnchorPoint: "Anchor-0" 240 501.011 basechar 0
AnchorPoint: "Anchor-2" 246 0 basechar 0
LayerCount: 2
Fore
SplineSet
453 0 m 1
 25 0 l 1
 25 96 l 1
 204.5 347.010742188 l 1
 35 347.010742188 l 1
 35 501.010742188 l 1
 443 501.010742188 l 1
 443 405.010742188 l 1
 278.5 154 l 1
 453 154 l 1
 453 0 l 1
EndSplineSet
EndChar

StartChar: period
Encoding: 46 46 57
Width: 245
Flags: W
HStem: -10 206.449<55.06 190.166>
VStem: 20 205.227<25.2692 161.18>
LayerCount: 2
Fore
SplineSet
20 93.224609375 m 0
 20 155.759289241 60.4476530167 196.44921875 122.612304688 196.44921875 c 0
 184.777910604 196.44921875 225.2265625 155.759289241 225.2265625 93.224609375 c 0
 225.2265625 30.6888481927 184.777910604 -10 122.612304688 -10 c 0
 60.4476530166 -10 20 30.6888481927 20 93.224609375 c 0
EndSplineSet
EndChar

StartChar: two
Encoding: 50 50 58
Width: 608
Flags: W
HStem: 0 163<244.813 583.549> 571.599 167.394<173.461 366.795>
VStem: 389.676 186.086<443.739 547.95>
LayerCount: 2
Fore
SplineSet
389.67578125 493.516113282 m 0
 389.67578125 545.623652358 362.642114599 571.598632812 283.328125 571.598632812 c 0
 184.387616859 571.598632812 113.538085938 517.754882812 113.538085938 517.754882812 c 1
 58.322265625 675.796875 l 1
 58.322265625 675.796875 151.327599237 738.9921875 286.69140625 738.9921875 c 0
 466.945613635 738.9921875 575.76171875 662.295898438 575.76171875 510.93359375 c 0
 575.76171875 367.824937597 517.838134164 310.91724421 349.374023438 233.0234375 c 0
 252 188 245.748776998 168.5 244.813476562 163 c 1
 583.548828125 163 l 1
 583.548828125 0 l 1
 48 0 l 1
 48 54 l 2
 48 216.398085283 145.864391944 305.38269591 314.821289062 401.876953125 c 4
 373.851200333 435.589974249 389.67578125 467.387791813 389.67578125 493.516113282 c 0
EndSplineSet
Substitution2: "ZameroSans-Ultra-'sups' Superscript lookup 0 subtable" two.superior
Substitution2: "ZameroSans-Ultra-'sups' Superscript lookup 0 subtable" two.superior
Substitution2: "ZameroSans-Ultra-'sinf' Scientific Inferiors lookup 0 subtable" two.inferior
Substitution2: "ZameroSans-Ultra-'numr' Numerators lookup 0 subtable" two.numr
Substitution2: "ZameroSans-Ultra-'dnom' Denominators lookup 0 subtable" two.dnom
Substitution2: "ZameroSans-Ultra-'tnum' Tabular Numbers lookup 17-1" two.tf
Substitution2: "ZameroSans-Ultra-'onum' Oldstyle Figures lookup 18-1" two.osf
EndChar

StartChar: three
Encoding: 51 51 59
Width: 579
Flags: W
HStem: -9.99805 163.438<124.528 330.257> 300 145.481<164.139 318.255> 571.099 167.894<124.947 316.994>
VStem: 335.984 198.086<464.318 552.88> 355.827 194.084<177.896 272.509>
LayerCount: 2
Fore
SplineSet
224.638671875 445.481445312 m 2xe8
 308.614524182 445.481445313 335.984375 466.747763639 335.984375 509.05859375 c 0
 335.984375 544.325805075 313.784789084 571.098632812 241.63671875 571.098632812 c 0
 144.482872907 571.098632812 85.3466796875 530.754882812 85.3466796875 530.754882812 c 1
 39.130859375 687.796875 l 1
 39.130859375 687.796875 117.007611768 738.9921875 252 738.9921875 c 0
 426.637682881 738.9921875 534.0703125 667.857421875 534.0703125 532.868164062 c 0xf0
 534.0703125 412 423.663085938 375.697265625 423.663085938 375.697265625 c 1
 423.663085938 375.697265625 549.911132812 341 549.911132812 205.670898438 c 0
 549.911132812 51.6816406251 430.020023648 -9.998046875 250 -9.998046875 c 0
 102.934570312 -9.998046875 15.451171875 40.9091796875 15.451171875 40.9091796875 c 1
 69.7744140625 204.262695312 l 1
 69.7744140625 204.262695312 134.878931581 153.439453125 237 153.439453125 c 0
 319.199857631 153.439453125 355.827148438 180.218766125 355.827148438 228.5 c 0
 355.827148438 276.414888771 310.717634362 299.50538684 224.638671875 299.737304688 c 2
 164 300 l 1
 164.138671875 445.481445312 l 1
 224.638671875 445.481445312 l 2xe8
EndSplineSet
Substitution2: "ZameroSans-Ultra-'sups' Superscript lookup 0 subtable" three.superior
Substitution2: "ZameroSans-Ultra-'sups' Superscript lookup 0 subtable" three.superior
Substitution2: "ZameroSans-Ultra-'sinf' Scientific Inferiors lookup 0 subtable" three.inferior
Substitution2: "ZameroSans-Ultra-'numr' Numerators lookup 0 subtable" three.numr
Substitution2: "ZameroSans-Ultra-'dnom' Denominators lookup 0 subtable" three.dnom
Substitution2: "ZameroSans-Ultra-'tnum' Tabular Numbers lookup 17-1" three.tf
Substitution2: "ZameroSans-Ultra-'onum' Oldstyle Figures lookup 18-1" three.osf
EndChar

StartChar: comma
Encoding: 44 44 61
Width: 252
Flags: W
HStem: -116 312.449
VStem: 20 212.227<25.8082 155.384>
LayerCount: 2
Fore
SplineSet
20 93.224609375 m 0
 20 155.759289241 60.4476530167 196.44921875 122.612304688 196.44921875 c 0
 189.018639434 196.44921875 232.2265625 155.007063378 232.2265625 80 c 0
 232.2265625 -29.7590014493 138 -116 138 -116 c 1
 47 -73 l 1
 47 -73 87.7418866531 -41.262099719 105.948758347 -9.44869210208 c 1
 53.4451774644 -4.15975265162 20 35.1015950988 20 93.224609375 c 0
EndSplineSet
EndChar

StartChar: zero
Encoding: 48 48 63
Width: 683
Flags: W
HStem: -9.99805 169.462<276.564 407.214> 569.659 169.462<276.564 407.214>
VStem: 30 182.849<235.301 493.822> 470.929 182.849<235.301 493.822>
LayerCount: 2
Fore
SplineSet
212.848632812 364.561523438 m 0
 212.848632812 241.573992596 251.495370153 159.463867188 341.888671875 159.463867188 c 0
 432.281973597 159.463867188 470.928710938 241.573992596 470.928710938 364.561523438 c 0
 470.928710938 487.549054278 432.281973597 569.659179688 341.888671875 569.659179688 c 0
 251.495370153 569.659179688 212.848632812 487.549054278 212.848632812 364.561523438 c 0
30 364.561523438 m 0
 30 591.206054688 137.84975089 739.12109375 341.888671875 739.12109375 c 0
 545.92759286 739.12109375 653.77734375 591.206054688 653.77734375 364.561523438 c 0
 653.77734375 137.916992188 545.92759286 -9.998046875 341.888671875 -9.998046875 c 0
 137.84975089 -9.998046875 30 137.916992188 30 364.561523438 c 0
EndSplineSet
Substitution2: "ZameroSans-Ultra-'sups' Superscript lookup 0 subtable" zero.superior
Substitution2: "ZameroSans-Ultra-'sups' Superscript lookup 0 subtable" zero.superior
Substitution2: "ZameroSans-Ultra-'sinf' Scientific Inferiors lookup 0 subtable" zero.inferior
Substitution2: "ZameroSans-Ultra-'numr' Numerators lookup 0 subtable" zero.numr
Substitution2: "ZameroSans-Ultra-'dnom' Denominators lookup 0 subtable" zero.dnom
Substitution2: "ZameroSans-Ultra-'tnum' Tabular Numbers lookup 17-1" zero.tf
Substitution2: "ZameroSans-Ultra-'onum' Oldstyle Figures lookup 18-1" zero.osf
EndChar

StartChar: one
Encoding: 49 49 64
Width: 415
Flags: W
HStem: 0 21G<176 365> 711 20G<158.185 365>
VStem: 176 189<0 547>
LayerCount: 2
Fore
SplineSet
365 731 m 1
 365 0 l 1
 176 0 l 1
 176 547 l 1
 56 480 l 1
 5 623 l 1
 193 731 l 1
 365 731 l 1
EndSplineSet
Substitution2: "ZameroSans-Ultra-'sups' Superscript lookup 0 subtable" one.superior
Substitution2: "ZameroSans-Ultra-'sups' Superscript lookup 0 subtable" one.superior
Substitution2: "ZameroSans-Ultra-'sinf' Scientific Inferiors lookup 0 subtable" one.inferior
Substitution2: "ZameroSans-Ultra-'numr' Numerators lookup 0 subtable" one.numr
Substitution2: "ZameroSans-Ultra-'dnom' Denominators lookup 0 subtable" one.dnom
Substitution2: "ZameroSans-Ultra-'tnum' Tabular Numbers lookup 17-1" one.tf
Substitution2: "ZameroSans-Ultra-'onum' Oldstyle Figures lookup 18-1" one.osf
EndChar

StartChar: four
Encoding: 52 52 65
Width: 660
Flags: W
HStem: 0 21G<345.5 530> 154.5 151<224 635> 711 20G<333.084 530>
VStem: 345.5 184.5<0 476>
LayerCount: 2
Fore
SplineSet
530 731 m 1
 530 0 l 1
 345.5 0 l 1
 345.5 476 l 1
 224 305.5 l 1
 635 305.5 l 1
 635 154.5 l 1
 57 154.5 l 1
 23.5 281.5 l 1
 347.5 731 l 1
 530 731 l 1
EndSplineSet
Substitution2: "ZameroSans-Ultra-'sups' Superscript lookup 0 subtable" four.superior
Substitution2: "ZameroSans-Ultra-'sups' Superscript lookup 0 subtable" four.superior
Substitution2: "ZameroSans-Ultra-'sinf' Scientific Inferiors lookup 0 subtable" four.inferior
Substitution2: "ZameroSans-Ultra-'numr' Numerators lookup 0 subtable" four.numr
Substitution2: "ZameroSans-Ultra-'dnom' Denominators lookup 0 subtable" four.dnom
Substitution2: "ZameroSans-Ultra-'tnum' Tabular Numbers lookup 17-1" four.tf
Substitution2: "ZameroSans-Ultra-'onum' Oldstyle Figures lookup 18-1" four.osf
EndChar

StartChar: exclam
Encoding: 33 33 66
Width: 274
Flags: W
HStem: -10 206.449<69.4467 204.553> 711.008 20G<41 237>
VStem: 34.3867 205.227<25.2692 161.18 610.887 731.008> 63 152<240 396.23>
LayerCount: 2
Fore
SplineSet
63 240 m 1xd0
 41 731.0078125 l 1
 237 731.0078125 l 1
 215 240 l 1
 63 240 l 1xd0
34.38671875 93.224609375 m 0xe0
 34.38671875 155.759289241 74.8343717667 196.44921875 136.999023438 196.44921875 c 0
 199.164629354 196.44921875 239.61328125 155.759289241 239.61328125 93.224609375 c 0
 239.61328125 30.6888481927 199.164629354 -10 136.999023438 -10 c 0
 74.8343717666 -10 34.38671875 30.6888481927 34.38671875 93.224609375 c 0xe0
EndSplineSet
EndChar

StartChar: five
Encoding: 53 53 67
Width: 594
Flags: W
HStem: -9.99805 166.393<118.739 344.831> 338.436 142.935<247.894 422.715> 571.341 159.667<236.805 519.672>
VStem: 377.845 186.982<186.863 309.074>
LayerCount: 2
Fore
SplineSet
267 -9.998046875 m 0
 106.140259426 -9.998046875 10.451171875 40.9091796875 10.451171875 40.9091796875 c 1
 57.7744140625 202.262695312 l 1
 57.7744140625 202.262695312 142.770332227 156.39453125 252 156.39453125 c 0
 342.908012207 156.39453125 377.844726562 190.449236862 377.844726562 245.576171875 c 0
 377.844726562 303.735233755 344.091861124 338.435546875 276 338.435546875 c 0
 204.594273117 338.435546875 180 290 180 290 c 1
 46.947265625 319.728515625 l 1
 77 731.0078125 l 1
 519.671875 731.0078125 l 1
 519.671875 571.340820312 l 1
 236.8046875 571.340820312 l 1
 228.470703125 446.322265625 l 1
 228.470703125 446.322265625 258.405207449 481.370117188 354.815429688 481.370117188 c 4
 490.613742506 481.370117188 564.827148438 395.396039522 564.827148438 251.997070312 c 0
 564.827148438 89.6091026986 464.516601563 -9.998046875 267 -9.998046875 c 0
EndSplineSet
Substitution2: "ZameroSans-Ultra-'sups' Superscript lookup 0 subtable" five.superior
Substitution2: "ZameroSans-Ultra-'sups' Superscript lookup 0 subtable" five.superior
Substitution2: "ZameroSans-Ultra-'sinf' Scientific Inferiors lookup 0 subtable" five.inferior
Substitution2: "ZameroSans-Ultra-'numr' Numerators lookup 0 subtable" five.numr
Substitution2: "ZameroSans-Ultra-'dnom' Denominators lookup 0 subtable" five.dnom
Substitution2: "ZameroSans-Ultra-'tnum' Tabular Numbers lookup 17-1" five.tf
Substitution2: "ZameroSans-Ultra-'onum' Oldstyle Figures lookup 18-1" five.osf
EndChar

StartChar: six
Encoding: 54 54 68
Width: 640
Flags: W
HStem: -9.99805 152.889<261.482 401.372> 330.891 136.709<258.232 400.973> 580.52 158.473<281.822 477.794>
VStem: 30 198.398<192.813 440.809> 433.398 176.767<174.26 300.134>
LayerCount: 2
Back
SplineSet
173.3984375 236.890625 m 0
 173.3984375 160.019065367 214.88147703 103.890625 315.3984375 103.890625 c 0
 416.623435844 103.890625 458.3984375 160.019065367 458.3984375 236.890625 c 0
 458.3984375 314.340166284 416.623435844 370.890625 315.3984375 370.890625 c 0
 214.88147703 370.890625 173.3984375 314.340166284 173.3984375 236.890625 c 0
158.303710938 405.747070312 m 1
 158.303710938 405.747070312 199.094697864 475.599609375 326.263671875 475.599609375 c 0
 500.711185917 475.599609375 580.165039062 379.238029036 580.165039062 239 c 0
 580.165039062 79.095703125 479.937095781 -9.998046875 316.297851562 -9.998046875 c 0
 136.540405276 -9.998046875 30 99.6728515626 30 365.331054688 c 0
 30 605.528320312 144.046377502 738.9921875 349.297851562 738.9921875 c 0
 490.428880973 738.9921875 561.923828125 678.860351562 561.923828125 678.860351562 c 1
 517.619140625 573.388671875 l 1
 517.619140625 573.388671875 458.487673927 622.51953125 349.778320312 622.51953125 c 0
 227.266224145 622.51953125 165.301516454 546.295339891 158.303710938 405.747070312 c 1
EndSplineSet
Fore
SplineSet
228.3984375 236.890625 m 0
 228.3984375 182.560349771 258.196113782 142.890625 330.3984375 142.890625 c 0
 403.308750993 142.890625 433.3984375 182.560349771 433.3984375 236.890625 c 0
 433.3984375 291.220900229 403.308750993 330.890625 330.3984375 330.890625 c 0
 258.196113782 330.890625 228.3984375 291.220900229 228.3984375 236.890625 c 0
208.303710938 424.747070312 m 1
 208.303710938 424.747070312 246.423222748 467.599609375 365.263671875 467.599609375 c 0
 515.176122647 467.599609375 610.165039062 374.496245078 610.165039062 239 c 0
 610.165039062 79.095703125 504.239459922 -9.998046875 331.297851562 -9.998046875 c 0
 142.122375487 -9.998046875 30 99.6728515626 30 365.331054688 c 0
 30 605.528320312 151.189950622 738.9921875 369.297851562 738.9921875 c 0
 517.06640625 738.9921875 591.923828125 678.860351562 591.923828125 678.860351562 c 1
 524.619140625 531.388671875 l 1
 524.619140625 531.388671875 472.181503623 580.51953125 375.778320312 580.51953125 c 0
 268.622256559 580.51953125 214.424390589 525.744908036 208.303710938 424.747070312 c 1
EndSplineSet
Substitution2: "ZameroSans-Ultra-'sups' Superscript lookup 0 subtable" six.superior
Substitution2: "ZameroSans-Ultra-'sups' Superscript lookup 0 subtable" six.superior
Substitution2: "ZameroSans-Ultra-'sinf' Scientific Inferiors lookup 0 subtable" six.inferior
Substitution2: "ZameroSans-Ultra-'ss07' Style Set 7 lookup 8-1" six.ss07
Substitution2: "ZameroSans-Ultra-'numr' Numerators lookup 0 subtable" six.numr
Substitution2: "ZameroSans-Ultra-'dnom' Denominators lookup 0 subtable" six.dnom
Substitution2: "ZameroSans-Ultra-'tnum' Tabular Numbers lookup 17-1" six.tf
Substitution2: "ZameroSans-Ultra-'onum' Oldstyle Figures lookup 18-1" six.osf
EndChar

StartChar: parenright
Encoding: 41 41 69
Width: 402
Flags: W
HStem: -171.47 156.525<25 105.872> 602.944 156.525<25 105.872>
VStem: 200.448 176.679<110.004 477.996>
LayerCount: 2
Fore
SplineSet
25 -14.9443359375 m 1
 142.583629904 -14.9443359375 200.448242188 70.6525251277 200.448242188 294 c 0
 200.448242188 517.347474872 142.583629904 602.944335938 25 602.944335938 c 1
 25 759.469726562 l 1
 253.977329683 759.469726562 377.126953125 611.823242188 377.126953125 294 c 0
 377.126953125 -23.8232421873 253.977329683 -171.469726562 25 -171.469726562 c 1
 25 -14.9443359375 l 1
EndSplineSet
EndChar

StartChar: seven
Encoding: 55 55 70
Width: 604
Flags: W
HStem: 0 21G<149 340.638> 567 164<35 347.5>
VStem: 149 190<0 154.851>
LayerCount: 2
Fore
SplineSet
339 0 m 1
 149 0 l 1
 159.099175834 312.092307692 347.5 567 347.5 567 c 1
 35 567 l 1
 35 731 l 1
 569 731 l 1
 569 625 l 1
 569 625 342.276212031 356 339 0 c 1
EndSplineSet
Substitution2: "ZameroSans-Ultra-'sups' Superscript lookup 0 subtable" seven.superior
Substitution2: "ZameroSans-Ultra-'sups' Superscript lookup 0 subtable" seven.superior
Substitution2: "ZameroSans-Ultra-'sinf' Scientific Inferiors lookup 0 subtable" seven.inferior
Substitution2: "ZameroSans-Ultra-'numr' Numerators lookup 0 subtable" seven.numr
Substitution2: "ZameroSans-Ultra-'dnom' Denominators lookup 0 subtable" seven.dnom
Substitution2: "ZameroSans-Ultra-'tnum' Tabular Numbers lookup 17-1" seven.tf
Substitution2: "ZameroSans-Ultra-'onum' Oldstyle Figures lookup 18-1" seven.osf
EndChar

StartChar: eight
Encoding: 56 56 71
Width: 647
Flags: W
HStem: -9.99805 150.764<243.594 403.406> 308.397 144.664<273.184 376.901> 359.573 63.2568<155.432 494.822> 586.998 151.887<259.556 390.022>
VStem: 30 181.768<171.266 279.201> 65.2598 176.688<472.138 567.56> 410.052 176.688<472.689 567.013> 435.232 181.768<171.266 279.201>
LayerCount: 2
Fore
SplineSet
323.5 453.061523438 m 0xd6
 376.90142497 453.061523438 410.051757812 478.875081369 410.051757812 519.869140625 c 0
 410.051757812 562.076146324 378.199006354 586.998046875 323.5 586.998046875 c 0
 271.961110324 586.998046875 241.948242188 562.076146324 241.948242188 519.869140625 c 0
 241.948242188 478.875081369 273.183532975 453.061523438 323.5 453.061523438 c 0xd6
323.5 738.884765625 m 0
 487.577148438 738.884765625 586.740234375 665.090820312 586.740234375 543.655273438 c 0
 586.740234375 424.0703125 494.822265625 359.573242188 323.5 359.573242188 c 0xb6
 155.431640625 359.573242188 65.259765625 424.0703125 65.259765625 543.655273438 c 0
 65.259765625 665.090820312 162.5390625 738.884765625 323.5 738.884765625 c 0
323.5 140.765625 m 0
 395.69808258 140.765625 435.232421875 171.13803548 435.232421875 226.020507812 c 0
 435.232421875 276.401189239 395.713580165 308.397460938 323.5 308.397460938 c 0
 251.286419835 308.397460938 211.767578125 276.401189239 211.767578125 226.020507812 c 0xd9
 211.767578125 171.13803548 251.30191742 140.765625 323.5 140.765625 c 0
323.5 422.830078125 m 0xb9
 512.833007812 422.830078125 617 346.488603645 617 208.381835938 c 0
 617 76.1718749999 501.540039062 -9.998046875 323.5 -9.998046875 c 0
 145.459960938 -9.998046875 30 76.1718750001 30 208.381835938 c 0
 30 346.488603645 134.166992188 422.830078125 323.5 422.830078125 c 0xb9
EndSplineSet
Substitution2: "ZameroSans-Ultra-'sups' Superscript lookup 0 subtable" eight.superior
Substitution2: "ZameroSans-Ultra-'sups' Superscript lookup 0 subtable" eight.superior
Substitution2: "ZameroSans-Ultra-'sinf' Scientific Inferiors lookup 0 subtable" eight.inferior
Substitution2: "ZameroSans-Ultra-'numr' Numerators lookup 0 subtable" eight.numr
Substitution2: "ZameroSans-Ultra-'dnom' Denominators lookup 0 subtable" eight.dnom
Substitution2: "ZameroSans-Ultra-'tnum' Tabular Numbers lookup 17-1" eight.tf
Substitution2: "ZameroSans-Ultra-'onum' Oldstyle Figures lookup 18-1" eight.osf
EndChar

StartChar: nine
Encoding: 57 57 72
Width: 640
Flags: W
HStem: -9.99805 158.473<149.918 349.58> 255.395 138.209<240.942 380.37> 581.604 157.389<240.543 384.373>
VStem: 30 180.267<425.82 549.184> 415.267 194.898<292.649 536.86>
LayerCount: 2
Fore
SplineSet
415.266601562 487.603515625 m 0
 415.266601562 541.933790854 385.46892528 581.603515625 313.266601562 581.603515625 c 0
 240.356288069 581.603515625 210.266601562 541.933790854 210.266601562 487.603515625 c 0
 210.266601562 433.273240396 240.356288069 393.603515625 313.266601562 393.603515625 c 0
 385.46892528 393.603515625 415.266601562 433.273240396 415.266601562 487.603515625 c 0
416.861328125 304.247070312 m 1
 416.861328125 304.247070312 382.384736927 255.39453125 274.901367188 255.39453125 c 0
 124.988916416 255.39453125 30 350.942329081 30 489.994140625 c 0
 30 649.8984375 135.925579141 738.9921875 308.8671875 738.9921875 c 0
 498.042663575 738.9921875 610.165039062 629.321289062 610.165039062 363.663085938 c 0
 610.165039062 123.465820312 488.975088439 -9.998046875 270.8671875 -9.998046875 c 0
 123.098632812 -9.998046875 48.2412109375 50.1337890625 48.2412109375 50.1337890625 c 1
 100.545898438 197.60546875 l 1
 100.545898438 197.60546875 158.268137832 148.474609375 264.38671875 148.474609375 c 0
 361.945262245 148.474609375 411.288852139 203.249232589 416.861328125 304.247070312 c 1
EndSplineSet
Substitution2: "ZameroSans-Ultra-'sups' Superscript lookup 0 subtable" nine.superior
Substitution2: "ZameroSans-Ultra-'sups' Superscript lookup 0 subtable" nine.superior
Substitution2: "ZameroSans-Ultra-'sinf' Scientific Inferiors lookup 0 subtable" nine.inferior
Substitution2: "ZameroSans-Ultra-'ss07' Style Set 7 lookup 8-1" nine.ss07
Substitution2: "ZameroSans-Ultra-'numr' Numerators lookup 0 subtable" nine.numr
Substitution2: "ZameroSans-Ultra-'dnom' Denominators lookup 0 subtable" nine.dnom
Substitution2: "ZameroSans-Ultra-'tnum' Tabular Numbers lookup 17-1" nine.tf
Substitution2: "ZameroSans-Ultra-'onum' Oldstyle Figures lookup 18-1" nine.osf
EndChar

StartChar: question
Encoding: 63 63 73
Width: 562
Flags: W
HStem: -10 206.449<157.447 292.553> 299.594 122.455<197.04 383.332> 575.729 163.264<131.538 317.272>
VStem: 122.387 205.227<25.2692 161.18> 343.096 193.774<445.663 550.191>
LayerCount: 2
Back
SplineSet
152.38671875 63.224609375 m 0
 152.38671875 107.584937143 181.008990842 136.44921875 224.999023438 136.44921875 c 0
 268.990077228 136.44921875 297.61328125 107.584937143 297.61328125 63.224609375 c 0
 297.61328125 18.8635145521 268.990077228 -10 224.999023438 -10 c 0
 181.008990842 -10 152.38671875 18.8635145521 152.38671875 63.224609375 c 0
280.88671875 300.653320312 m 1
 282.37890625 210 l 1
 169.422851562 210 l 1
 171.15625 399.46875 l 1
 171.15625 399.46875 208.949224154 395.048828125 256.3984375 395.048828125 c 0
 348.180522211 395.048828125 392.095703125 431.389934102 392.095703125 499.145507812 c 0
 392.095703125 585.201602829 327.571533338 623.228515625 232.89453125 623.228515625 c 0
 138.66274719 623.228515625 76.923828125 573.958007812 76.923828125 573.958007812 c 1
 30.2412109375 685.311523438 l 1
 30.2412109375 685.311523438 107.390463661 738.9921875 239.89453125 738.9921875 c 0
 405.150107971 738.9921875 521.870117188 670 521.870117188 501.010742188 c 0
 521.870117188 365.685958308 421.37343496 300.59375 309 300.59375 c 0
 290.63582236 300.59375 280.88671875 300.653320312 280.88671875 300.653320312 c 1
EndSplineSet
Fore
SplineSet
122.38671875 93.224609375 m 0
 122.38671875 155.759289241 162.834371767 196.44921875 224.999023438 196.44921875 c 0
 287.164629354 196.44921875 327.61328125 155.759289241 327.61328125 93.224609375 c 0
 327.61328125 30.6888481927 287.164629354 -10 224.999023438 -10 c 0
 162.834371767 -10 122.38671875 30.6888481927 122.38671875 93.224609375 c 0
292.88671875 300.653320312 m 1
 294.37890625 240 l 1
 157.422851562 240 l 1
 159.15625 426.46875 l 1
 159.15625 426.46875 192.737304387 422.048828125 234.8984375 422.048828125 c 0
 308.080240783 422.048828125 343.095703125 448.265768024 343.095703125 497.145507812 c 0
 343.095703125 551.645692053 300.05241164 575.728515625 236.89453125 575.728515625 c 0
 144.47523727 575.728515625 83.923828125 528.958007812 83.923828125 528.958007812 c 1
 20.2412109375 685.311523438 l 1
 20.2412109375 685.311523438 101.0703125 738.9921875 239.89453125 738.9921875 c 0
 413.941059296 738.9921875 536.870117188 664.336148351 536.870117188 499.010742188 c 0
 536.870117188 364.361174428 435.164372079 299.59375 331.5 299.59375 c 0
 306.277004868 299.59375 292.88671875 300.653320312 292.88671875 300.653320312 c 1
EndSplineSet
EndChar

StartChar: hyphen
Encoding: 45 45 74
Width: 354
Flags: W
HStem: 199.5 160<25 329>
VStem: 25 304<199.5 359.5>
LayerCount: 2
Fore
SplineSet
329 199.5 m 1
 25 199.5 l 1
 25 359.5 l 1
 329 359.5 l 1
 329 199.5 l 1
EndSplineSet
EndChar

StartChar: quotesingle
Encoding: 39 39 75
Width: 266
Flags: W
HStem: 456 275.008<72 198>
VStem: 72 126<456 543.502>
LayerCount: 2
Fore
SplineSet
72 456 m 1
 50 731.0078125 l 1
 220 731.0078125 l 1
 198 456 l 1
 72 456 l 1
EndSplineSet
EndChar

StartChar: parenleft
Encoding: 40 40 77
Width: 402
Flags: W
HStem: -171.47 156.525<296.255 377.127> 602.944 156.525<296.255 377.127>
VStem: 25 176.679<110.004 477.996>
LayerCount: 2
Fore
SplineSet
377.126953125 -14.9443359375 m 1
 377.126953125 -171.469726562 l 1
 148.149623442 -171.469726562 25 -23.8232421873 25 294 c 0
 25 611.823242188 148.149623442 759.469726562 377.126953125 759.469726562 c 1
 377.126953125 602.944335938 l 1
 259.543323221 602.944335938 201.678710938 517.347474872 201.678710938 294 c 0
 201.678710938 70.6525251277 259.543323221 -14.9443359375 377.126953125 -14.9443359375 c 1
EndSplineSet
EndChar

StartChar: asterisk
Encoding: 42 42 78
Width: 400
Flags: W
HStem: 718.992 20G<132.534 267.905>
LayerCount: 2
Fore
SplineSet
267.905273438 738.9921875 m 1
 256.896484375 629.151367188 l 1
 358.440429688 671.549804688 l 1
 395.440429688 549.369140625 l 1
 292.896484375 527.767578125 l 1
 366.905273438 435.006835938 l 1
 252.75390625 366.916992188 l 1
 200.219726562 477.075195312 l 1
 147.685546875 366.916992188 l 1
 33.5341796875 435.006835938 l 1
 107.54296875 527.767578125 l 1
 5 549.369140625 l 1
 42 671.549804688 l 1
 143.54296875 629.151367188 l 1
 132.534179688 738.9921875 l 1
 267.905273438 738.9921875 l 1
EndSplineSet
Substitution2: "ZameroSans-Ultra-'ss13' Style Set 13 lookup 14-1" asterisk.ss13
EndChar

StartChar: less
Encoding: 60 60 79
Width: 450
Flags: W
LayerCount: 2
Fore
SplineSet
420 155 m 1
 30 275 l 1
 30 441 l 1
 420 561 l 1
 420 407.5 l 1
 212.454101562 358 l 1
 420 308.5 l 1
 420 155 l 1
EndSplineSet
EndChar

StartChar: greater
Encoding: 62 62 80
Width: 450
Flags: W
LayerCount: 2
Fore
SplineSet
30 561 m 1
 420 441 l 1
 420 275 l 1
 30 155 l 1
 30 308.5 l 1
 242.545898438 358 l 1
 30 407.5 l 1
 30 561 l 1
EndSplineSet
EndChar

StartChar: slash
Encoding: 47 47 81
Width: 434
Flags: W
LayerCount: 2
Fore
SplineSet
2.5 -171.469726562 m 1
 277.5 761.403320312 l 1
 431.5 761.403320312 l 1
 156.5 -171.469726562 l 1
 2.5 -171.469726562 l 1
EndSplineSet
EndChar

StartChar: bar
Encoding: 124 124 82
Width: 249
Flags: W
VStem: 47.5 154<-171.47 759.47>
LayerCount: 2
Fore
SplineSet
47.5 -171.469726562 m 1
 47.5 759.469726562 l 1
 201.5 759.469726562 l 1
 201.5 -171.469726562 l 1
 47.5 -171.469726562 l 1
EndSplineSet
EndChar

StartChar: bracketleft
Encoding: 91 91 83
Width: 375
Flags: W
HStem: -171.47 144<214 355> 614.97 144.5<214 355>
VStem: 45 310<-171.47 -27.4697 614.97 759.47> 45 169<-27.4697 614.97>
LayerCount: 2
Fore
SplineSet
45 759.469726562 m 1xe0
 355 759.469726562 l 1
 355 614.969726562 l 1xe0
 214 614.969726562 l 1
 214 -27.4697265625 l 1xd0
 355 -27.4697265625 l 1
 355 -171.469726562 l 1
 45 -171.469726562 l 1
 45 759.469726562 l 1xe0
EndSplineSet
EndChar

StartChar: bracketright
Encoding: 93 93 84
Width: 375
Flags: W
HStem: -171.47 144<20 161> 615.47 144<20 161>
VStem: 20 310<-171.47 -27.4697 615.47 759.47> 161 169<-27.4697 615.47>
LayerCount: 2
Fore
SplineSet
330 -171.469726562 m 1xe0
 20 -171.469726562 l 1
 20 -27.4697265625 l 1xe0
 161 -27.4697265625 l 1
 161 615.469726562 l 1xd0
 20 615.469726562 l 1
 20 759.469726562 l 1
 330 759.469726562 l 1
 330 -171.469726562 l 1xe0
EndSplineSet
EndChar

StartChar: asciicircum
Encoding: 94 94 85
Width: 449
Flags: W
HStem: 440 291.008<150 165 285 299>
LayerCount: 2
Fore
SplineSet
299 731.0078125 m 1
 449 440 l 1
 285 440 l 1
 225.393554688 605.813476562 l 1
 165 440 l 1
 0 440 l 1
 150 731.0078125 l 1
 299 731.0078125 l 1
EndSplineSet
EndChar

StartChar: braceleft
Encoding: 123 123 86
Width: 433
Flags: W
HStem: -171.47 141.996<294.039 406.538> 246.532 136<20 102.222> 617.474 141.996<293.946 406.617>
VStem: 110 169<-15.4403 237.013 391.478 603.44>
LayerCount: 2
Fore
SplineSet
218 314.532226562 m 1
 218 314.532226562 279 289.532226562 279 209.532226562 c 2
 279 42.5263671875 l 2
 279 -12.755859375 305.6015625 -29.4736328125 353 -29.4736328125 c 0
 396.443359375 -29.4736328125 406 -24.4736328125 406 -24.4736328125 c 1
 413 -161.469726562 l 1
 413 -161.469726562 376 -171.469726562 316 -171.469726562 c 0
 164.338037634 -171.469726562 110 -101.759179687 110 16.5302734375 c 2
 110 184.532226562 l 2
 110 231.860351562 91.501953125 246.532226562 55 246.532226562 c 2
 20 246.532226562 l 1
 20 382.532226562 l 1
 55 382.532226562 l 2
 91.501953125 382.532226562 110 397.205078125 110 444.532226562 c 2
 110 571.469726562 l 2
 110 689.755939797 164.338037634 759.469726562 316 759.469726562 c 0
 370.75 759.469726562 413 749.469726562 413 749.469726562 c 1
 406 612.473632812 l 1
 406 612.473632812 389.180664062 617.473632812 352 617.473632812 c 0
 305.2421875 617.473632812 279 600.754882812 279 545.473632812 c 2
 279 419.532226562 l 2
 279 337.53515625 218 314.532226562 218 314.532226562 c 1
EndSplineSet
EndChar

StartChar: grave
Encoding: 96 96 87
Width: 242
Flags: W
HStem: 506 235.008
VStem: -4 250
LayerCount: 2
Fore
SplineSet
136 506 m 1
 -4 711.0078125 l 1
 162 741.0078125 l 1
 246 526 l 1
 136 506 l 1
EndSplineSet
EndChar

StartChar: underscore
Encoding: 95 95 88
Width: 564
Flags: W
HStem: -121 121<25 539>
LayerCount: 2
Fore
SplineSet
539 -121 m 1
 25 -121 l 1
 25 0 l 1
 539 0 l 1
 539 -121 l 1
EndSplineSet
EndChar

StartChar: dollar
Encoding: 36 36 89
Width: 591
Flags: W
HStem: -105 174.47<215 374> -10 164.962<132.121 356.402> 573.159 165.962<251.316 451.653> 655 174.47<215 374>
VStem: 39.627 196.812<476.673 557.675> 215 159<-105 69.4697 655 829.47> 370.838 190.682<171.601 245.139>
LayerCount: 2
Fore
SplineSet
215 -105 m 1x84
 215 69.4697265625 l 1
 374 69.4697265625 l 1
 374 -105 l 1
 215 -105 l 1x84
215 655 m 1x14
 215 829.469726562 l 1
 374 829.469726562 l 1
 374 655 l 1
 215 655 l 1x14
EndSplineSet
Refer: 22 83 N 1 0 0 1 0 0 2
EndChar

StartChar: percent
Encoding: 37 37 90
Width: 953
Flags: W
HStem: -9.99805 129.28<675.374 769.875> 0 21G<186 337.175> 262.572 129.279<674.896 770.367> 337.143 129.279<184.76 278.875> 609.712 129.28<184.289 279.367> 711.008 20G<618.825 770>
VStem: 30 139.16<481.916 595.049> 295.91 137.05<482.412 594.569> 521 138.16<134.776 247.909> 786.91 137.05<135.272 247.429>
LayerCount: 2
Fore
SplineSet
659.16015625 191.481445312 m 0xa3c0
 659.16015625 139.685919609 687.653937468 119.282226562 722.48046875 119.282226562 c 0
 757.052671751 119.282226562 786.91015625 139.685919609 786.91015625 191.481445312 c 0
 786.91015625 243.615076116 757.052671751 262.572265625 722.48046875 262.572265625 c 0
 687.653937468 262.572265625 659.16015625 243.615076116 659.16015625 191.481445312 c 0xa3c0
521 191.481445312 m 0
 521 301.889318271 594.51300142 391.8515625 722.48046875 391.8515625 c 0
 850.446930857 391.8515625 923.959960938 301.889318271 923.959960938 191.481445312 c 0
 923.959960938 81.212427748 850.446930857 -9.998046875 722.48046875 -9.998046875 c 0
 594.51300142 -9.998046875 521 81.212427748 521 191.481445312 c 0
169.16015625 538.622070312 m 0
 169.16015625 486.826495019 197.203943144 466.421875 231.48046875 466.421875 c 0
 266.052671751 466.421875 295.91015625 486.826495019 295.91015625 538.622070312 c 0
 295.91015625 590.754743253 266.052671751 609.711914062 231.48046875 609.711914062 c 0x1bc0
 197.203943144 609.711914062 169.16015625 590.754743253 169.16015625 538.622070312 c 0
30 538.622070312 m 0
 30 649.029943271 103.51300142 738.9921875 231.48046875 738.9921875 c 0
 359.446930857 738.9921875 432.959960938 649.029943271 432.959960938 538.622070312 c 0
 432.959960938 428.353052748 359.446930857 337.142578125 231.48046875 337.142578125 c 0
 103.51300142 337.142578125 30 428.353052748 30 538.622070312 c 0
EndSplineSet
Refer: 138 8260 N 1 0 0 1 301 0 2
EndChar

StartChar: at
Encoding: 64 64 91
Width: 924
Flags: W
HStem: -159.727 129.258<361.453 656.424> 81.9697 125.254<399.005 498.331> 82.709 116.176<665.794 746.031> 345.803 123.273<404.089 502.158> 580.238 127.488<350.732 601.522>
VStem: 35 136.675<143.565 394.379> 234.842 152.017<218.105 328.412> 514.683 143.902<234.233 322.685> 526.033 65.9717<157.017 345.241> 765.917 123.37<216.672 427.853>
LayerCount: 2
Fore
SplineSet
386.858398438 270.0546875 m 0xdf40
 386.858398438 228.940404086 408.056956521 207.223632812 448.194335938 207.223632812 c 0
 490.18394939 207.223632812 514.682617188 234.23340413 514.682617188 280.529296875 c 0
 514.682617188 322.684921992 491.115365401 345.802734375 452.834960938 345.802734375 c 0
 411.123738907 345.802734375 386.858398438 317.943503737 386.858398438 270.0546875 c 0xdf40
420.392578125 81.9697265625 m 0
 309.31167862 81.9697265625 234.841796875 154.03785091 234.841796875 261.537109375 c 0
 234.841796875 384.533942093 320.595525756 469.076171875 430.249023438 469.076171875 c 0
 541.42339331 469.076171875 592.004882812 403.07556434 592.004882812 263.77734375 c 0xdec0
 592.004882812 157.016869941 521.167442364 81.9697265625 420.392578125 81.9697265625 c 0
487.713867188 -159.7265625 m 0
 207.397460938 -159.7265625 35 14.611328125 35 268.08984375 c 0
 35 524.041992188 209.687057747 707.7265625 461.420898438 707.7265625 c 0
 711.216942125 707.7265625 889.287109375 561.379882812 889.287109375 321.901367188 c 0
 889.287109375 177.231843369 818.747128243 82.708984375 695.626953125 82.708984375 c 0
 589.299824422 82.708984375 526.033203125 127.875464659 526.033203125 228.081054688 c 0xbec0
 526.033203125 345.241468895 561.063476562 466.46484375 561.063476562 466.46484375 c 1
 695.87890625 466.46484375 l 1
 695.87890625 466.46484375 658.584960938 341.416370681 658.584960938 251.327148438 c 0
 658.584960938 217 675.082843689 198.884765625 702.415039062 198.884765625 c 0xbf40
 743.915001679 198.884765625 765.916992188 223.490579528 765.916992188 316.072265625 c 4
 765.916992188 484.90359536 652.490491831 580.23828125 467.984375 580.23828125 c 0
 286.605419441 580.23828125 171.674804688 456.475353928 171.674804688 266.489257812 c 0
 171.674804688 81.9635230452 283.375183618 -30.46875 502.6796875 -30.46875 c 0
 664.47307618 -30.46875 765.61328125 38.5576171875 765.61328125 38.5576171875 c 1
 805.250976562 -72.2255859375 l 1
 805.250976562 -72.2255859375 701.004882812 -159.7265625 487.713867188 -159.7265625 c 0
EndSplineSet
EndChar

StartChar: numbersign
Encoding: 35 35 92
Width: 767
Flags: W
HStem: 0 21G<86.5 250.014 356.5 520.014> 169 136<25 707> 409 136<60 742> 711.008 20G<246.986 410.5 516.986 680.5>
LayerCount: 2
Fore
SplineSet
60 545 m 1
 742 545 l 1
 742 409 l 1
 60 409 l 1
 60 545 l 1
25 305 m 1
 707 305 l 1
 707 169 l 1
 25 169 l 1
 25 305 l 1
356.5 0 m 1
 521.5 731.0078125 l 1
 680.5 731.0078125 l 1
 515.5 0 l 1
 356.5 0 l 1
86.5 0 m 1
 251.5 731.0078125 l 1
 410.5 731.0078125 l 1
 245.5 0 l 1
 86.5 0 l 1
EndSplineSet
EndChar

StartChar: braceright
Encoding: 125 125 93
Width: 433
Flags: W
HStem: -171.47 141.996<36.4621 146.716> 246.532 136<330.778 413> 617.474 141.996<36.3831 146.773>
VStem: 154 169<-20.9018 237.013 391.478 609.006>
LayerCount: 2
Fore
SplineSet
215 314.532226562 m 1
 215 314.532226562 154 337.53515625 154 419.532226562 c 2
 154 563.473632812 l 2
 154 604.934570312 131.352632705 617.473632812 91 617.473632812 c 0
 53.8193359375 617.473632812 37 612.473632812 37 612.473632812 c 1
 30 749.469726562 l 1
 30 749.469726562 72.25 759.469726562 127 759.469726562 c 0
 271.299731183 759.469726562 323 696.430664062 323 589.469726562 c 2
 323 444.532226562 l 2
 323 397.205078125 341.498046875 382.532226562 378 382.532226562 c 2
 413 382.532226562 l 1
 413 246.532226562 l 1
 378 246.532226562 l 2
 341.498046875 246.532226562 323 231.860351562 323 184.532226562 c 2
 323 -1.4697265625 l 2
 323 -108.43359375 271.299731183 -171.469726562 127 -171.469726562 c 0
 67 -171.469726562 30 -161.469726562 30 -161.469726562 c 1
 37 -24.4736328125 l 1
 37 -24.4736328125 46.556640625 -29.4736328125 90 -29.4736328125 c 0
 130.993243243 -29.4736328125 154 -16.9353027344 154 24.5263671875 c 2
 154 209.532226562 l 2
 154 289.532226562 215 314.532226562 215 314.532226562 c 1
EndSplineSet
EndChar

StartChar: asciitilde
Encoding: 126 126 94
Width: 436
VWidth: 999
Flags: W
HStem: 267 150<231.151 353.197> 316 149<84.7581 204.877>
LayerCount: 2
Fore
SplineSet
436 355 m 1x80
 436 355 382.098360655 267 299 267 c 0x80
 221.461538462 267 195.615384615 316 139 316 c 0
 103.753623188 316 75 287 75 287 c 1
 0 400 l 1
 0 400 59.5163934426 465 137 465 c 0x40
 213.307692308 465 245.307692308 417 297 417 c 0
 336.692307692 417 357 442 357 442 c 1
 436 355 l 1x80
EndSplineSet
EndChar

StartChar: cent
Encoding: 162 162 95
Width: 492
Flags: W
HStem: -5 189.47<218 369> 105.002 151.462<247.932 407.74> 472.284 153.649<247.736 383.057> 570 159.47<218 369>
VStem: 30 183.349<291.285 438.835> 218 151<-5 184.47 570 729.47>
LayerCount: 2
Fore
SplineSet
218 -5 m 1x8c
 218 184.469726562 l 1
 369 184.469726562 l 1
 369 -5 l 1
 218 -5 l 1x8c
218 570 m 1x1c
 218 729.469726562 l 1
 369 729.469726562 l 1
 369 570 l 1
 218 570 l 1x1c
EndSplineSet
Refer: 40 99 N 1 0 0 1 0 115 2
EndChar

StartChar: sterling
Encoding: 163 163 96
Width: 553
Flags: W
HStem: 0 163<240.319 523> 266 153<35 434> 575.121 164.341<267.472 449.424>
VStem: 54.3516 192.479<454.599 554.065> 131.824 170.157<233.075 415.123>
LayerCount: 2
Fore
SplineSet
434 266 m 1xe0
 35 266 l 1
 35 419 l 1
 434 419 l 1
 434 266 l 1xe0
523 0 m 1
 30 0 l 1
 30 135 l 1
 30 135 131.82421875 210.513671875 131.82421875 319.379882812 c 0xe8
 131.82421875 409.694627487 54.3515625 433.181213426 54.3515625 547.185546875 c 0
 54.3515625 671.3984375 153.768628196 739.461914062 302.80859375 739.461914062 c 0
 444.266900383 739.461914062 507.45703125 703.405273438 507.45703125 703.405273438 c 1
 474.9375 543.524414062 l 1
 474.9375 543.524414062 409.877929688 575.12109375 337.80859375 575.12109375 c 0
 287.241014757 575.12109375 246.830078125 554.530248225 246.830078125 511.024414062 c 0xf0
 246.830078125 456.383008823 301.981445312 420.551526476 301.981445312 335.158203125 c 0xe8
 301.981445312 228.481009218 240.319335938 163 240.319335938 163 c 1
 523 163 l 1
 523 0 l 1
EndSplineSet
EndChar

StartChar: yen
Encoding: 165 165 97
Width: 649
Flags: W
HStem: 0 21G<230 419> 175 86<69.5 579.5> 305 131<230 419> 305 86<69.5 236 413 579.5> 322 69<236 413> 711.008 20G<15 231.133 417.867 634>
VStem: 230 189<0 436>
LayerCount: 2
Fore
SplineSet
236 322 m 1xce
 15 731.0078125 l 1
 223 731.0078125 l 1
 324.5 481.416015625 l 1
 426 731.0078125 l 1
 634 731.0078125 l 1
 413 322 l 1
 236 322 l 1xce
230 0 m 1
 230 436 l 1
 419 436 l 1xe6
 419 0 l 1
 230 0 l 1
579.5 175 m 1
 69.5 175 l 1
 69.5 261 l 1
 579.5 261 l 1
 579.5 175 l 1
579.5 305 m 1xd6
 69.5 305 l 1
 69.5 391 l 1
 579.5 391 l 1
 579.5 305 l 1xd6
EndSplineSet
EndChar

StartChar: currency
Encoding: 164 164 98
Width: 513
Flags: W
HStem: 156.724 132.462<214.616 297.822> 425.006 132.649<214.634 297.839>
VStem: 52.6113 140.849<303.613 412.61> 319.54 140.849<303.613 412.61>
LayerCount: 2
Fore
SplineSet
300.239257812 213.436523438 m 1
 418.889648438 246.325195312 l 1
 513.259765625 124.765625 l 1
 359.580078125 66.1455078125 l 1
 300.239257812 213.436523438 l 1
213.020507812 213.436523438 m 1
 153.6796875 66.1455078125 l 1
 0 124.765625 l 1
 94.3701171875 246.325195312 l 1
 213.020507812 213.436523438 l 1
300.239257812 497.74609375 m 1
 359.580078125 645.036132812 l 1
 513.259765625 586.416015625 l 1
 418.889648438 464.856445312 l 1
 300.239257812 497.74609375 l 1
213.020507812 497.74609375 m 1
 94.3701171875 464.856445312 l 1
 0 586.416015625 l 1
 153.6796875 645.036132812 l 1
 213.020507812 497.74609375 l 1
193.459960938 359.283203125 m 0
 193.459960938 317.249393965 212.040896093 289.185546875 255.5 289.185546875 c 0
 300.360439795 289.185546875 319.540039062 317.249393965 319.540039062 359.283203125 c 0
 319.540039062 398.693911762 300.393654843 425.005859375 255.611328125 425.005859375 c 0
 212.074111504 425.005859375 193.459960938 398.693911762 193.459960938 359.283203125 c 0
52.611328125 359.283203125 m 0
 52.611328125 479.317382812 129.379882812 557.655273438 255.5 557.655273438 c 0
 382.86328125 557.655273438 460.388671875 479.317382812 460.388671875 359.283203125 c 0
 460.388671875 236.715820312 382.86328125 156.723632812 255.5 156.723632812 c 0
 129.379882812 156.723632812 52.611328125 236.715820312 52.611328125 359.283203125 c 0
EndSplineSet
EndChar

StartChar: brokenbar
Encoding: 166 166 99
Width: 249
Flags: W
VStem: 50 149<-171.47 239 339 759.47>
LayerCount: 2
Fore
SplineSet
50 -171.469726562 m 1
 50 239 l 1
 199 239 l 1
 199 -171.469726562 l 1
 50 -171.469726562 l 1
50 339 m 1
 50 759.469726562 l 1
 199 759.469726562 l 1
 199 339 l 1
 50 339 l 1
EndSplineSet
EndChar

StartChar: section
Encoding: 167 167 100
Width: 593
Flags: W
HStem: -19.6709 139.391<155.858 321.981> 615.212 139.391<272.119 438.242>
VStem: 25.1836 158.858<366.135 440.344> 410.059 158.858<293.789 372.326>
LayerCount: 2
Fore
SplineSet
172.764160157 545.153320312 m 1
 237.572753907 459.951171875 l 1
 237.572753907 459.951171875 184.041992188 448.938844936 184.041992188 402.393554688 c 0
 184.041992188 368.807495849 205.158896411 351.076355068 328.396484375 329.120117188 c 4
 470.898683157 303.731660413 500.516113281 236.781112163 500.516113281 145.370117188 c 0
 500.516113281 42.560546875 412.669921875 -19.6708984375 268.3515625 -19.6708984375 c 0
 155.63671875 -19.6708984375 100.818847657 19.734375 100.818847657 19.734375 c 1
 143.947265625 146.825195312 l 1
 143.947265625 146.825195312 194.436035157 119.719726562 268.854003907 119.719726562 c 0
 308.125 119.719726562 325.78515625 131.288012115 325.78515625 149.943359375 c 0
 325.78515625 164.856841688 316.864344945 178.435864925 290.673828125 182.490234375 c 4
 80.7458291679 214.987709374 25.18359375 271.911540884 25.18359375 372.309570312 c 0
 25.18359375 487.467346495 172.764160157 545.153320312 172.764160157 545.153320312 c 1
431.3359375 199.778320312 m 1
 356.52734375 274.98046875 l 1
 356.52734375 274.98046875 410.05859375 286.170223855 410.05859375 336.307617188 c 0
 410.05859375 365.975566115 390.196982657 386.753828703 269.669921875 405.963867188 c 4
 123.817648334 429.210329597 93.583984375 498.226315851 93.583984375 589.561523438 c 0
 93.583984375 692.37109375 181.430175781 754.602539062 325.748535157 754.602539062 c 0
 438.463378907 754.602539062 493.28125 715.197265625 493.28125 715.197265625 c 1
 450.152832031 588.106445312 l 1
 450.152832031 588.106445312 399.663574219 615.211914062 325.24609375 615.211914062 c 0
 285.975434472 615.211914062 268.315429688 603.643628512 268.315429688 584.98828125 c 0
 268.315429688 570.652944543 278.128752436 556.501608298 299.948242188 553.703125 c 4
 515.143397501 526.103027344 568.916992188 466.041192949 568.916992188 367.122070312 c 0
 568.916992188 255.421499433 431.3359375 199.778320312 431.3359375 199.778320312 c 1
EndSplineSet
EndChar

StartChar: dieresis
Encoding: 168 168 101
Width: 459
Flags: W
HStem: 562.543 176.449<63.7288 185.271 273.729 395.271>
VStem: 36.8867 175.227<589.573 711.962> 246.887 175.227<589.573 711.962>
LayerCount: 2
Fore
SplineSet
246.88671875 650.767578125 m 0
 246.88671875 704.215472895 281.421255186 738.9921875 334.499023438 738.9921875 c 0
 387.577770582 738.9921875 422.11328125 704.215472895 422.11328125 650.767578125 c 0
 422.11328125 597.318717737 387.577770582 562.54296875 334.499023438 562.54296875 c 0
 281.421255187 562.54296875 246.88671875 597.318717737 246.88671875 650.767578125 c 0
36.88671875 650.767578125 m 0
 36.88671875 704.215472895 71.4212551868 738.9921875 124.499023438 738.9921875 c 0
 177.577770582 738.9921875 212.11328125 704.215472895 212.11328125 650.767578125 c 0
 212.11328125 597.318717737 177.577770582 562.54296875 124.499023438 562.54296875 c 0
 71.4212551869 562.54296875 36.88671875 597.318717737 36.88671875 650.767578125 c 0
EndSplineSet
EndChar

StartChar: copyright
Encoding: 169 169 102
Width: 797
Flags: W
HStem: -9.99805 119.857<282.836 514.942> 177.281 118.731<375.757 519.959> 433.11 118.731<375.757 502.675> 619.264 119.857<282.836 514.942>
VStem: 35 122.896<241.821 487.302> 224.457 136.924<309.712 419.411> 639.881 122.896<241.821 487.302>
LayerCount: 2
Fore
SplineSet
224.45703125 364.561523438 m 0
 224.45703125 477.88408452 289.761055211 551.841796875 415.401367188 551.841796875 c 0
 498.2421875 551.841796875 538.297851562 518.7265625 538.297851562 518.7265625 c 1
 507.634765625 407.349609375 l 1
 507.634765625 407.349609375 486.30859375 433.110351562 430.901367188 433.110351562 c 0
 380.299530064 433.110351562 361.380859375 405.667363356 361.380859375 364.561523438 c 0
 361.380859375 323.45568352 380.299530064 296.012695312 430.901367188 296.012695312 c 0
 490.76171875 296.012695312 516.465820312 319.078125 516.465820312 319.078125 c 1
 539.870117188 204.578125 l 1
 539.870117188 204.578125 497.682617188 177.28125 415.401367188 177.28125 c 0
 289.761055211 177.28125 224.45703125 251.238962356 224.45703125 364.561523438 c 0
157.896484375 364.561523438 m 0
 157.896484375 211.828563319 230.072433081 109.859375 398.888671875 109.859375 c 0
 567.704910669 109.859375 639.880859375 211.828563319 639.880859375 364.561523438 c 0
 639.880859375 517.294483556 567.704910669 619.263671875 398.888671875 619.263671875 c 0
 230.072433081 619.263671875 157.896484375 517.294483556 157.896484375 364.561523438 c 0
35 364.561523438 m 0
 35 591.206054688 172.688476562 739.12109375 398.888671875 739.12109375 c 0
 625.088867188 739.12109375 762.77734375 591.206054688 762.77734375 364.561523438 c 0
 762.77734375 137.916992188 625.088867188 -9.998046875 398.888671875 -9.998046875 c 0
 172.688476562 -9.998046875 35 137.916992188 35 364.561523438 c 0
EndSplineSet
EndChar

StartChar: registered
Encoding: 174 174 103
Width: 797
Flags: W
HStem: -9.99805 119.857<282.836 514.942> 310.752 87.6758<313.5 412.235> 457.576 90.6797<366 427.748> 619.264 119.857<282.836 514.942>
VStem: 35 122.896<241.821 487.302> 239 127<182.752 310.752 398.428 457.576> 313.5 52.5<310.752 398.428> 430.465 124.424<400.098 455.545> 639.881 122.896<241.821 487.302>
LayerCount: 2
Fore
SplineSet
313.5 398.427734375 m 5xfb80
 396.444335938 398.482421875 l 6
 415.921026453 398.496026923 430.46484375 403.706040859 430.46484375 427.533203125 c 4
 430.46484375 451.917581755 415.921029762 457.50989795 396.444335938 457.525390625 c 6
 366 457.576171875 l 5
 366 182.751953125 l 5
 239 182.751953125 l 5
 239 548.255859375 l 5xfd80
 413.944335938 548.255859375 l 6
 488.102050781 548.255859375 554.888671875 517.828092934 554.888671875 436.533203125 c 4
 554.888671875 363.491171631 494.84375 341.890625 494.84375 341.890625 c 5
 494.84375 341.890625 522.467252262 332.533538318 541.8515625 271.451171875 c 6
 570 182.751953125 l 5
 441.5 182.751953125 l 5
 419 265.251953125 l 6
 407.915727807 305.894284499 409.616065182 310.751953125 374.5 310.751953125 c 6
 313.5 310.751953125 l 5
 313.5 398.427734375 l 5xfb80
157.896484375 364.561523438 m 0
 157.896484375 211.828563319 230.072433081 109.859375 398.888671875 109.859375 c 0
 567.704910669 109.859375 639.880859375 211.828563319 639.880859375 364.561523438 c 0
 639.880859375 517.294483556 567.704910669 619.263671875 398.888671875 619.263671875 c 0
 230.072433081 619.263671875 157.896484375 517.294483556 157.896484375 364.561523438 c 0
35 364.561523438 m 0
 35 591.206054688 172.688476562 739.12109375 398.888671875 739.12109375 c 0
 625.088867188 739.12109375 762.77734375 591.206054688 762.77734375 364.561523438 c 0
 762.77734375 137.916992188 625.088867188 -9.998046875 398.888671875 -9.998046875 c 0
 172.688476562 -9.998046875 35 137.916992188 35 364.561523438 c 0
EndSplineSet
EndChar

StartChar: uni2117
Encoding: 8471 8471 104
Width: 797
Flags: W
HStem: -9.99805 119.857<282.836 514.942> 286.752 95.1758<311.694 449.326> 451.576 96.6797<369.694 451.028> 619.264 119.857<282.836 514.942>
VStem: 35 122.896<241.821 487.302> 242.694 127<182.752 286.752 381.928 451.576> 311.694 58<286.752 381.928> 454.159 125.424<386.26 446.681> 639.881 122.896<241.821 487.302>
LayerCount: 2
Fore
SplineSet
311.694335938 286.751953125 m 1xfb80
 311.694335938 381.927734375 l 1xfb80
 404.138671875 381.982421875 l 2
 432.775377158 381.995912506 454.159179688 388.105219467 454.159179688 416.033203125 c 0
 454.159179688 444.889381178 432.775366929 451.49114384 404.138671875 451.525390625 c 2
 369.694335938 451.576171875 l 1
 369.694335938 182.751953125 l 1
 242.694335938 182.751953125 l 1
 242.694335938 548.255859375 l 1xfd80
 433.138671875 548.255859375 l 6
 510.190135341 548.255859375 579.583007812 512.244978898 579.583007812 416.033203125 c 0
 579.583007812 321.475395761 506.877574243 286.751953125 427.138671875 286.751953125 c 6
 311.694335938 286.751953125 l 1xfb80
157.896484375 364.561523438 m 0
 157.896484375 211.828563319 230.072433081 109.859375 398.888671875 109.859375 c 0
 567.704910669 109.859375 639.880859375 211.828563319 639.880859375 364.561523438 c 0
 639.880859375 517.294483556 567.704910669 619.263671875 398.888671875 619.263671875 c 0
 230.072433081 619.263671875 157.896484375 517.294483556 157.896484375 364.561523438 c 0
35 364.561523438 m 0
 35 591.206054688 172.688476562 739.12109375 398.888671875 739.12109375 c 0
 625.088867188 739.12109375 762.77734375 591.206054688 762.77734375 364.561523438 c 0
 762.77734375 137.916992188 625.088867188 -9.998046875 398.888671875 -9.998046875 c 0
 172.688476562 -9.998046875 35 137.916992188 35 364.561523438 c 0
EndSplineSet
EndChar

StartChar: guillemotleft
Encoding: 171 171 105
Width: 590
Flags: W
LayerCount: 2
Fore
SplineSet
30 281 m 1
 170 441 l 1
 350 441 l 1
 196.75 254 l 1
 350 67 l 1
 170 67 l 1
 30 227 l 1
 30 281 l 1
280 281 m 1
 420 441 l 1
 600 441 l 1
 446.75 254 l 1
 600 67 l 1
 420 67 l 1
 280 227 l 1
 280 281 l 1
EndSplineSet
EndChar

StartChar: guillemotright
Encoding: 187 187 106
Width: 590
Flags: W
LayerCount: 2
Fore
SplineSet
560 227 m 1
 420 67 l 1
 240 67 l 1
 393.25 254 l 1
 240 441 l 1
 420 441 l 1
 560 281 l 1
 560 227 l 1
310 227 m 1
 170 67 l 1
 -10 67 l 1
 143.25 254 l 1
 -10 441 l 1
 170 441 l 1
 310 281 l 1
 310 227 l 1
EndSplineSet
EndChar

StartChar: mu
Encoding: 181 181 107
Width: 595
Flags: W
HStem: -9.92285 148.149<180.297 334.88> 0 21G<366.777 545.777> 481.011 20G<50 229 366.777 545.777>
VStem: 50 179<-180 -9.92285 196.449 501.011> 90 139<56.9261 321.011> 366.777 179<207.449 501.011>
LayerCount: 2
Fore
SplineSet
50 -180 m 1x34
 50 501.010742188 l 1
 229 501.010742188 l 1
 229 -180 l 1
 50 -180 l 1x34
366.77734375 217.010742188 m 13
 436.77734375 207.44921875 l 21
 414.364547983 57.0107421877 366.492133164 -9.9228515625 228.77734375 -9.9228515625 c 0
 131.815660278 -9.9228515625 90 56.9260601597 90 196.44921875 c 2
 90 321.010742188 l 1xac
 229 321.010742188 l 1
 229 213.44921875 l 2
 229 165.798167062 249.206517599 138.2265625 296.77734375 138.2265625 c 0xb4
 345.812752965 138.2265625 366.77734375 169.767531777 366.77734375 217.010742188 c 13
545.77734375 501.010742188 m 1
 545.77734375 0 l 1
 366.77734375 0 l 1x64
 366.77734375 501.010742188 l 1
 545.77734375 501.010742188 l 1
EndSplineSet
EndChar

StartChar: acute
Encoding: 180 180 108
Width: 242
Flags: W
HStem: 506 235.008
VStem: -4 250
LayerCount: 2
Fore
SplineSet
106 506 m 1
 -4 526 l 1
 80 741.0078125 l 1
 246 711.0078125 l 1
 106 506 l 1
EndSplineSet
EndChar

StartChar: macron
Encoding: 175 175 109
Width: 374
Flags: W
HStem: 600.008 131<20 354>
LayerCount: 2
Fore
SplineSet
354 600.0078125 m 1
 20 600.0078125 l 1
 20 731.0078125 l 1
 354 731.0078125 l 1
 354 600.0078125 l 1
EndSplineSet
EndChar

StartChar: uni00AD
Encoding: 173 173 110
Width: 354
Flags: W
HStem: 199.5 160<20 334>
VStem: 20 314<199.5 359.5>
LayerCount: 2
Fore
SplineSet
334 199.5 m 1
 20 199.5 l 1
 20 359.5 l 1
 334 359.5 l 1
 334 199.5 l 1
EndSplineSet
EndChar

StartChar: logicalnot
Encoding: 172 172 111
Width: 450
Flags: W
HStem: 287.5 141<30 282.5>
VStem: 282.5 145<165 287.5>
LayerCount: 2
Fore
SplineSet
427.5 165 m 1
 282.5 165 l 1
 282.5 287.5 l 1
 30 287.5 l 1
 30 428.5 l 1
 427.5 428.5 l 1
 427.5 165 l 1
EndSplineSet
EndChar

StartChar: minus
Encoding: 8722 8722 112
Width: 450
Flags: W
HStem: 287.5 141<30 420>
LayerCount: 2
Fore
SplineSet
420 287.5 m 1
 30 287.5 l 1
 30 428.5 l 1
 420 428.5 l 1
 420 287.5 l 1
EndSplineSet
EndChar

StartChar: notequal
Encoding: 8800 8800 113
Width: 450
Flags: W
HStem: 207.5 131<30 420> 377.5 131<30 420>
LayerCount: 2
Fore
SplineSet
40 108.530273438 m 1
 245 601.403320312 l 1
 404 601.403320312 l 1
 199 108.530273438 l 1
 40 108.530273438 l 1
EndSplineSet
Refer: 52 61 N 1 0 0 1 0 0 2
EndChar

StartChar: partialdiff
Encoding: 8706 8706 114
Width: 620
Flags: W
HStem: -9.99805 153.389<236.589 351.058> 330.391 140.209<245.839 363.879> 565.02 173.973<187.266 357.89>
VStem: 30 184.767<165.68 298.961>
LayerCount: 2
Fore
SplineSet
383.766601562 246.890625 m 0
 383.766601562 295.15209289 362.148679553 330.390625 309.766601562 330.390625 c 0
 242.519225039 330.390625 214.766601562 286.711725918 214.766601562 226.890625 c 0
 214.766601562 178.62915711 236.676567465 143.390625 289.766601562 143.390625 c 0
 356.305997929 143.390625 383.766601562 187.069524082 383.766601562 246.890625 c 0
407.861328125 428.247070312 m 5
 403.494900203 516.925921065 364.830717676 565.01953125 288.38671875 565.01953125 c 0
 204.937398917 565.01953125 159.545898438 527.388671875 159.545898438 527.388671875 c 1
 98.2412109382 688.860351562 l 1
 98.2412109382 688.860351562 164.692446006 738.9921875 295.8671875 738.9921875 c 0
 485.048127962 738.9921875 590.165039062 612.671898034 590.165039062 385.331054688 c 0
 590.165039062 105.516837439 478.042663575 -9.998046875 288.8671875 -9.998046875 c 0
 128.32873133 -9.998046875 30 75.5176128099 30 229 c 0
 30 372.20164401 127.703978493 470.599609375 281.901367188 470.599609375 c 4
 377.270518915 470.599609375 407.861328125 428.247070312 407.861328125 428.247070312 c 5
EndSplineSet
EndChar

StartChar: emptyset
Encoding: 8709 8709 115
Width: 797
Flags: W
HStem: -9.99805 132.462<337.115 510.207> 606.659 132.462<287.57 460.662>
VStem: 35 134.849<244.958 484.165> 627.929 134.849<244.958 484.165>
LayerCount: 2
Fore
SplineSet
169.848632812 364.561523438 m 0
 169.848632812 219.386812477 238.44478556 122.463867188 398.888671875 122.463867188 c 0
 559.33255819 122.463867188 627.928710938 219.386812477 627.928710938 364.561523438 c 0
 627.928710938 509.736234396 559.33255819 606.659179688 398.888671875 606.659179688 c 0
 238.44478556 606.659179688 169.848632812 509.736234396 169.848632812 364.561523438 c 0
35 364.561523438 m 0
 35 591.206054688 172.688476562 739.12109375 398.888671875 739.12109375 c 0
 625.088867188 739.12109375 762.77734375 591.206054688 762.77734375 364.561523438 c 0
 762.77734375 137.916992188 625.088867188 -9.998046875 398.888671875 -9.998046875 c 0
 172.688476562 -9.998046875 35 137.916992188 35 364.561523438 c 0
96.5 -90.873046875 m 1
 561.5 812 l 1
 700.5 812 l 1
 235.5 -90.873046875 l 1
 96.5 -90.873046875 l 1
EndSplineSet
EndChar

StartChar: Delta
Encoding: 8710 8710 116
Width: 719
Flags: W
HStem: 0 174<226.5 492.5> 711.008 20G<247.064 462.289>
LayerCount: 2
Fore
SplineSet
689 0 m 1
 30 0 l 1
 30 164 l 1
 255 731.0078125 l 1
 454 731.0078125 l 1
 689 164 l 1
 689 0 l 1
492.5 174 m 1
 355.393554688 515.313476562 l 1
 226.5 174 l 1
 492.5 174 l 1
EndSplineSet
EndChar

StartChar: plusminus
Encoding: 177 177 117
Width: 450
Flags: W
HStem: 140.5 131<30 154.5 295.5 420> 168 103.5<154.5 295.5> 327.5 141<30 420>
VStem: 154.5 141<168 568>
LayerCount: 2
Fore
SplineSet
420 140.5 m 1xb0
 30 140.5 l 1
 30 271.5 l 1
 420 271.5 l 1
 420 140.5 l 1xb0
154.5 168 m 1x70
 154.5 568 l 1
 295.5 568 l 1
 295.5 168 l 1
 154.5 168 l 1x70
420 327.5 m 1
 30 327.5 l 1
 30 468.5 l 1
 420 468.5 l 1
 420 327.5 l 1
EndSplineSet
EndChar

StartChar: degree
Encoding: 176 176 118
Width: 431
Flags: W
HStem: 400.07 127.026<176.051 257.262> 633.788 127.214<173.588 257.271>
VStem: 27.5 139.412<534.977 626.118> 264.865 139.412<535.274 625.826>
LayerCount: 2
Fore
SplineSet
166.912109375 580.854492188 m 0
 166.912109375 548.618662074 181.2503883 527.096679688 214.786132812 527.096679688 c 0
 249.866746255 527.096679688 264.865234375 548.618662074 264.865234375 580.854492188 c 0
 264.865234375 612.596304946 249.903804128 633.788085938 214.909179688 633.788085938 c 0
 181.287444612 633.788085938 166.912109375 612.596304946 166.912109375 580.854492188 c 0
27.5 580.629882812 m 0
 27.5 689.772696384 98.4038758765 761.001953125 214.888671875 761.001953125 c 0
 332.616630024 761.001953125 404.27734375 689.772696384 404.27734375 580.629882812 c 0
 404.27734375 471.374251811 332.616630024 400.0703125 214.888671875 400.0703125 c 0
 98.4038758765 400.0703125 27.5 471.374251811 27.5 580.629882812 c 0
EndSplineSet
EndChar

StartChar: cedilla
Encoding: 184 184 120
Width: 317
VWidth: 999
Flags: W
HStem: -255 98<48.0001 167.124>
VStem: 168 119<-155.616 -103.05>
LayerCount: 2
Fore
SplineSet
287 -131 m 0
 287 -209.970703125 237.749023438 -255 146 -255 c 0
 83.3382610453 -255 27 -232 27 -232 c 1
 54 -136 l 1
 54 -136 83.103515625 -157 130 -157 c 0
 158.266520182 -157 168 -148.489917652 168 -128 c 0
 168 -112.376838235 155.236906353 -101 134.5 -101 c 0
 112.622753906 -101 105 -111 105 -111 c 1
 47 -92 l 1
 69 39 l 1
 165.5 39 l 1
 155.985351562 -23.103515625 l 1
 155.985351562 -23.103515625 162.687548635 -21 187.5 -21 c 0
 253.930016244 -21 287 -62.5234375 287 -131 c 0
EndSplineSet
EndChar

StartChar: paragraph
Encoding: 182 182 121
Width: 682
Flags: W
HStem: 580.992 150<405.889 480.889>
VStem: 25 380.889<388.968 576.868> 248.889 157<-179.994 284.637> 480.889 157<-179.994 580.992>
LayerCount: 2
Fore
SplineSet
405.888671875 -179.994140625 m 1xb0
 248.888671875 -179.994140625 l 1
 248.888671875 282.9921875 l 1xb0
 123.872898961 292.9921875 25 337.833007812 25 499.432617188 c 0xd0
 25 667.032226562 137 730.9921875 278.888671875 730.9921875 c 2
 637.888671875 730.9921875 l 1
 637.888671875 -179.994140625 l 1
 480.888671875 -179.994140625 l 1
 480.888671875 580.9921875 l 1
 405.888671875 580.9921875 l 1
 405.888671875 -179.994140625 l 1xb0
EndSplineSet
EndChar

StartChar: ordfeminine
Encoding: 170 170 122
Width: 402
Flags: W
HStem: 369.992 104<288.154 395.096> 369.992 95<98 215.523> 521.992 70.5<155.366 233> 629.992 109<67.5694 212.732>
VStem: 221 37<416.992 487.492> 221 12<521.992 592.492>
LayerCount: 2
Fore
SplineSet
221 502.4921875 m 1x74
 221 479.817768895 205.111111111 464.9921875 182 464.9921875 c 0
 158.658536585 464.9921875 149 474.669606855 149 489.9921875 c 0
 149 516.174005682 169.411214953 521.9921875 233 521.9921875 c 5
 233 592.4921875 l 1x74
 105.914798206 592.4921875 15 576.695577331 15 475.9921875 c 0
 15 411.9921875 61 369.9921875 135 369.9921875 c 0
 218.6015625 369.9921875 258 416.9921875 258 487.4921875 c 1x78
 221 502.4921875 l 1x74
221 571.4921875 m 2
 221 459.9921875 l 2
 221 398.9921875 254.308510638 369.9921875 322 369.9921875 c 0
 375.070422535 369.9921875 400.5 386.9921875 400.5 386.9921875 c 1
 394.5 477.9921875 l 1
 394.5 477.9921875 388.421052632 473.9921875 378 473.9921875 c 0xb8
 363 473.9921875 357 477.383491848 357 486.9921875 c 2
 357 595.9921875 l 2
 357 682.197861259 306.76875 738.9921875 186 738.9921875 c 0
 100.035714286 738.9921875 41 705.9921875 41 705.9921875 c 1
 69 608.4921875 l 1
 69 608.4921875 107.482758621 629.9921875 162 629.9921875 c 0
 202.919354838 629.9921875 221 612.064768145 221 571.4921875 c 2
EndSplineSet
EndChar

StartChar: ordmasculine
Encoding: 186 186 123
Width: 418
Flags: W
HStem: 367.992 122<162.837 255.458> 616.992 122<162.447 255.708>
VStem: 24 127<500.527 606.049> 267 127<500.527 606.049>
LayerCount: 2
Fore
SplineSet
151 554.9921875 m 0
 151 515.465160473 168.4 489.9921875 209 489.9921875 c 0
 250.428571429 489.9921875 267 515.465160473 267 554.9921875 c 0
 267 591.668243838 249.6 616.9921875 209 616.9921875 c 0
 168.4 616.9921875 151 591.668243838 151 554.9921875 c 0
24 555.9921875 m 0
 24 667.025895365 94.6182795699 738.9921875 209 738.9921875 c 0
 324.376344086 738.9921875 394 667.025895365 394 555.9921875 c 4
 394 441.959400615 324.376344086 367.9921875 209 367.9921875 c 0
 94.6182795699 367.9921875 24 441.959400615 24 555.9921875 c 0
EndSplineSet
EndChar

StartChar: arrowleft
Encoding: 8592 8592 124
Width: 550
Flags: W
HStem: 284.64 148<262.649 537.749> 294.64 128<144.749 419.849>
LayerCount: 2
Fore
SplineSet
537.749023438 284.639648438 m 1x80
 144.749023438 294.639648438 l 1
 144.749023438 422.639648438 l 1x40
 537.749023438 432.639648438 l 1
 537.749023438 284.639648438 l 1x80
177.561523438 358.638671875 m 5
 352.848632812 212.1171875 l 5
 244.510742188 103.779296875 l 1
 12.2509765625 358.638671875 l 1
 244.510742188 613.5 l 1
 352.848632812 505.16015625 l 5
 177.561523438 358.638671875 l 5
EndSplineSet
EndChar

StartChar: product
Encoding: 8719 8719 128
Width: 719
Flags: W
HStem: 567.508 163.5<239 480>
VStem: 50 189<-179.994 567.508> 480 189<-179.994 567.508>
LayerCount: 2
Fore
SplineSet
669 731.0078125 m 1
 669 -179.994140625 l 1
 480 -179.994140625 l 1
 480 567.5078125 l 1
 239 567.5078125 l 1
 239 -179.994140625 l 1
 50 -179.994140625 l 1
 50 731.0078125 l 1
 669 731.0078125 l 1
EndSplineSet
EndChar

StartChar: summation
Encoding: 8721 8721 129
Width: 634
Flags: W
HStem: -179.994 164<264.5 609> 567.008 164<284.5 609>
LayerCount: 2
Back
SplineSet
264 585.0078125 m 1
 394 410 l 1
 394 319 l 1
 244 146 l 1
 544 146 l 1
 544 0 l 1
 55 0 l 1
 55 161 l 1
 235 358 l 1
 55 589 l 1
 55 731.0078125 l 1
 544 731.0078125 l 1
 544 585.0078125 l 1
 264 585.0078125 l 1
EndSplineSet
Fore
SplineSet
284.5 567.0078125 m 1
 434.5 330 l 1
 434.5 239 l 1
 264.5 -15.994140625 l 1
 609 -15.994140625 l 1
 609 -179.994140625 l 1
 50 -179.994140625 l 1
 50 -0.994140625 l 1
 255 278 l 1
 50 571 l 1
 50 731.0078125 l 1
 609 731.0078125 l 1
 609 567.0078125 l 1
 284.5 567.0078125 l 1
EndSplineSet
EndChar

StartChar: approxequal
Encoding: 8776 8776 130
Width: 450
VWidth: 999
Flags: W
HStem: 167 150<237.712 354.598> 216 149<94.7451 211.558> 357 150<237.712 354.598> 406 149<94.7451 211.558>
LayerCount: 2
Fore
SplineSet
438 255 m 1x80
 438 255 386.065429688 167 306 167 c 0x80
 228.461914062 167 202.615234375 216 146 216 c 0
 111.855072464 216 84 184.5 84 184.5 c 1
 12 300 l 1
 12 300 69.3447265625 365 144 365 c 0x40
 219.592233277 365 251.292233277 317 302.5 317 c 0
 340.207692308 317 359.5 344 359.5 344 c 1
 438 255 l 1x80
438 445 m 1
 438 445 386.065429688 357 306 357 c 0x20
 228.461914062 357 202.615234375 406 146 406 c 0
 111.855072464 406 84 374.5 84 374.5 c 1
 12 490 l 1
 12 490 69.3447265625 555 144 555 c 0x10
 219.592233277 555 251.292233277 507 302.5 507 c 0x20
 340.207692308 507 359.5 534 359.5 534 c 1
 438 445 l 1
EndSplineSet
EndChar

StartChar: perthousand
Encoding: 8240 8240 131
Width: 1263
Flags: W
HStem: -9.99805 129.28<674.595 766.679 988.575 1080.66> 0 21G<186 337.175> 262.572 129.279<674.136 767.153 988.116 1081.13> 337.143 129.279<184.76 278.875> 609.712 129.28<184.289 279.367> 711.008 20G<618.825 770>
VStem: 30 139.16<481.916 595.049> 295.91 137.05<482.412 594.569> 521 138.16<134.776 247.909> 781.91 192.25<139.686 243.615> 843.5 67.96<81.2127 301.889> 1096.91 137.05<134.776 247.909>
LayerCount: 2
Fore
SplineSet
974.16015625 191.481445312 m 0xa3d0
 974.16015625 139.686122818 1001.52929688 119.282226562 1034.98046875 119.282226562 c 0
 1068.21125836 119.282226562 1096.91015625 139.686122818 1096.91015625 191.481445312 c 0
 1096.91015625 243.615184671 1068.21125836 262.572265625 1034.98046875 262.572265625 c 0
 1001.52929688 262.572265625 974.16015625 243.615184671 974.16015625 191.481445312 c 0xa3d0
843.5 191.481445312 m 0xa3b0
 843.5 301.888876311 917.012792155 391.8515625 1044.98046875 391.8515625 c 0
 1171.44447016 391.8515625 1233.95996094 301.888876311 1233.95996094 191.481445312 c 0
 1233.95996094 81.2127441854 1171.44447016 -9.998046875 1044.98046875 -9.998046875 c 0
 917.012792155 -9.998046875 843.5 81.2127441854 843.5 191.481445312 c 0xa3b0
659.16015625 191.481445312 m 0
 659.16015625 139.685919609 686.528951658 119.282226562 719.98046875 119.282226562 c 0
 753.211201524 119.282226562 781.91015625 139.685919609 781.91015625 191.481445312 c 0xa3d0
 781.91015625 243.615076116 753.211201524 262.572265625 719.98046875 262.572265625 c 0
 686.528951658 262.572265625 659.16015625 243.615076116 659.16015625 191.481445312 c 0
521 191.481445312 m 0
 521 301.889318271 583.515486449 391.8515625 709.98046875 391.8515625 c 0
 837.947159715 391.8515625 911.459960938 301.888876311 911.459960938 191.481445312 c 0xa3b0
 911.459960938 81.2127441854 837.947159715 -9.998046875 709.98046875 -9.998046875 c 0
 583.515486449 -9.998046875 521 81.212427748 521 191.481445312 c 0
169.16015625 538.622070312 m 0
 169.16015625 486.826495019 197.203943144 466.421875 231.48046875 466.421875 c 0
 266.052671751 466.421875 295.91015625 486.826495019 295.91015625 538.622070312 c 0
 295.91015625 590.754743253 266.052671751 609.711914062 231.48046875 609.711914062 c 0x1b90
 197.203943144 609.711914062 169.16015625 590.754743253 169.16015625 538.622070312 c 0
30 538.622070312 m 0
 30 649.029943271 103.51300142 738.9921875 231.48046875 738.9921875 c 0
 359.446930857 738.9921875 432.959960938 649.029943271 432.959960938 538.622070312 c 0
 432.959960938 428.353052748 359.446930857 337.142578125 231.48046875 337.142578125 c 0
 103.51300142 337.142578125 30 428.353052748 30 538.622070312 c 0
EndSplineSet
Refer: 138 8260 N 1 0 0 1 301 0 2
EndChar

StartChar: uni2031
Encoding: 8241 8241 132
Width: 1573
Flags: W
HStem: -9.99805 129.28<674.595 766.679 987.116 1078.14 1298.58 1390.66> 0 21G<186 337.175> 262.572 129.279<674.136 767.153 986.657 1078.61 1298.12 1391.13> 337.143 129.279<184.76 278.875> 609.712 129.28<184.289 279.367> 711.008 20G<618.825 770>
VStem: 30 139.16<481.916 595.049> 295.91 137.05<482.412 594.569> 521 138.16<134.776 247.909> 781.91 189.75<139.686 243.615> 846 65.46<81.2127 301.889> 1094.41 189.75<139.686 243.615> 1153.5 65.46<81.2127 301.889> 1406.91 137.05<134.776 247.909>
LayerCount: 2
Fore
SplineSet
1284.16015625 191.481445312 m 0xa394
 1284.16015625 139.686122818 1311.52929688 119.282226562 1344.98046875 119.282226562 c 0
 1378.21125836 119.282226562 1406.91015625 139.686122818 1406.91015625 191.481445312 c 0
 1406.91015625 243.615184671 1378.21125836 262.572265625 1344.98046875 262.572265625 c 0
 1311.52929688 262.572265625 1284.16015625 243.615184671 1284.16015625 191.481445312 c 0xa394
1153.5 191.481445312 m 0xa38c
 1153.5 301.888876311 1227.01279215 391.8515625 1354.98046875 391.8515625 c 0
 1481.44447016 391.8515625 1543.95996094 301.888876311 1543.95996094 191.481445312 c 0
 1543.95996094 81.2127441854 1481.44447016 -9.998046875 1354.98046875 -9.998046875 c 0
 1227.01279215 -9.998046875 1153.5 81.2127441854 1153.5 191.481445312 c 0xa38c
971.66015625 191.481445312 m 0xa3d4
 971.66015625 139.686122818 999.029296875 119.282226562 1032.48046875 119.282226562 c 0
 1065.71125836 119.282226562 1094.41015625 139.686122818 1094.41015625 191.481445312 c 0
 1094.41015625 243.615184671 1065.71125836 262.572265625 1032.48046875 262.572265625 c 0
 999.029296875 262.572265625 971.66015625 243.615184671 971.66015625 191.481445312 c 0xa3d4
846 191.481445312 m 0xa3ac
 846 301.888876311 907.688476562 391.8515625 1032.48046875 391.8515625 c 0
 1157.27148438 391.8515625 1218.95996094 301.888876311 1218.95996094 191.481445312 c 0
 1218.95996094 81.2127441854 1157.27148438 -9.998046875 1032.48046875 -9.998046875 c 0
 907.688476562 -9.998046875 846 81.2127441854 846 191.481445312 c 0xa3ac
659.16015625 191.481445312 m 0
 659.16015625 139.685919609 686.528951658 119.282226562 719.98046875 119.282226562 c 0
 753.211201524 119.282226562 781.91015625 139.685919609 781.91015625 191.481445312 c 0xa3c4
 781.91015625 243.615076116 753.211201524 262.572265625 719.98046875 262.572265625 c 0
 686.528951658 262.572265625 659.16015625 243.615076116 659.16015625 191.481445312 c 0
521 191.481445312 m 0
 521 301.889318271 583.515486449 391.8515625 709.98046875 391.8515625 c 0
 837.947159715 391.8515625 911.459960938 301.888876311 911.459960938 191.481445312 c 0xa3a4
 911.459960938 81.2127441854 837.947159715 -9.998046875 709.98046875 -9.998046875 c 0
 583.515486449 -9.998046875 521 81.212427748 521 191.481445312 c 0
169.16015625 538.622070312 m 0
 169.16015625 486.826495019 197.203943144 466.421875 231.48046875 466.421875 c 0
 266.052671751 466.421875 295.91015625 486.826495019 295.91015625 538.622070312 c 0
 295.91015625 590.754743253 266.052671751 609.711914062 231.48046875 609.711914062 c 0x1b84
 197.203943144 609.711914062 169.16015625 590.754743253 169.16015625 538.622070312 c 0
30 538.622070312 m 0
 30 649.029943271 103.51300142 738.9921875 231.48046875 738.9921875 c 0
 359.446930857 738.9921875 432.959960938 649.029943271 432.959960938 538.622070312 c 0
 432.959960938 428.353052748 359.446930857 337.142578125 231.48046875 337.142578125 c 0
 103.51300142 337.142578125 30 428.353052748 30 538.622070312 c 0
EndSplineSet
Refer: 138 8260 N 1 0 0 1 301 0 2
EndChar

StartChar: uni203D
Encoding: 8253 8253 133
Width: 566
Flags: W
HStem: -10 206.449<170.447 305.553> 288.391 133.658<210.802 331.041> 575.729 163.264<97.4699 368.556>
VStem: 135.387 205.227<25.2692 161.18> 160 158<612.505 791.008> 212.423 83.5771<290 408.502> 353.096 183.774<441.457 545.299>
LayerCount: 2
Fore
SplineSet
182 230 m 1xe6
 160 791.0078125 l 1
 318 791.0078125 l 1xea
 296 230 l 1
 182 230 l 1xe6
135.38671875 93.224609375 m 0xf2
 135.38671875 155.759289241 175.834371767 196.44921875 237.999023438 196.44921875 c 0
 300.164629354 196.44921875 340.61328125 155.759289241 340.61328125 93.224609375 c 0
 340.61328125 30.6888481927 300.164629354 -10 237.999023438 -10 c 0
 175.834371767 -10 135.38671875 30.6888481927 135.38671875 93.224609375 c 0xf2
212.422851562 290 m 1xe6
 209.15625 426.46875 l 1
 209.15625 426.46875 234.091784867 422.048828125 265.3984375 422.048828125 c 0
 324.714576446 422.048828125 353.095703125 448.265768024 353.095703125 497.145507812 c 0
 353.095703125 551.645692053 305.003966415 575.728515625 225.39453125 575.728515625 c 0
 140.641875448 575.728515625 68.923828125 543.958007812 68.923828125 543.958007812 c 1
 20.2412109375 700.311523438 l 1
 20.2412109375 700.311523438 101.0703125 738.9921875 229.89453125 738.9921875 c 0
 414.009597383 738.9921875 536.870117188 664.336148351 536.870117188 499.010742188 c 4
 536.870117188 368.523354722 437.577509787 288.390625 287 288.390625 c 4
 221.796240926 288.390625 212.422851562 290 212.422851562 290 c 1xe6
EndSplineSet
EndChar

StartChar: lira
Encoding: 8356 8356 134
Width: 553
Flags: W
HStem: 0 163<240.319 523> 215 86<45 424> 345 86<45 424> 575.121 164.341<261.908 457.027>
VStem: 46.8516 192.479<458.604 554.065>
LayerCount: 2
Fore
SplineSet
523 0 m 1
 30 0 l 1
 30 135 l 1
 30 135 131.82421875 210.513671875 131.82421875 319.379882812 c 4
 131.82421875 409.694627487 46.8515625 433.181165274 46.8515625 547.185546875 c 4
 46.8515625 671.398535433 150.298462907 739.461914062 297.80859375 739.461914062 c 0
 442.723030036 739.461914062 507.45703125 703.405273438 507.45703125 703.405273438 c 1
 474.9375 543.524414062 l 1
 474.9375 543.524414062 435.532092095 575.12109375 333.30859375 575.12109375 c 0
 282.603668564 575.12109375 239.330078125 554.530248225 239.330078125 511.024414062 c 0
 239.330078125 456.383008823 301.981445312 420.551526476 301.981445312 335.158203125 c 0
 301.981445312 228.481009218 240.319335938 163 240.319335938 163 c 1
 523 163 l 1
 523 0 l 1
424 215 m 1
 45 215 l 1
 45 301 l 1
 424 301 l 1
 424 215 l 1
424 345 m 1
 45 345 l 1
 45 431 l 1
 424 431 l 1
 424 345 l 1
EndSplineSet
EndChar

StartChar: uni20B5
Encoding: 8373 8373 135
Width: 623
Flags: W
HStem: -9.99805 79.4678<295 454> 655 84.1211<295 454>
VStem: 30 194.849<255.271 473.852> 295 159<-105 69.4697 655 829.47>
LayerCount: 2
Fore
SplineSet
30 364.561523438 m 0
 30 591.206054688 158.903872118 739.12109375 385.888671875 739.12109375 c 0
 537.397841668 739.12109375 599.681640625 672.891601562 599.681640625 672.891601562 c 1
 533.35546875 515.138671875 l 1
 533.35546875 515.138671875 491.914060759 566.659179688 407.888671875 566.659179688 c 0
 279.668433559 566.659179688 224.848632812 485.750093728 224.848632812 364.561523438 c 0
 224.848632812 243.372953147 279.668433559 162.463867188 407.888671875 162.463867188 c 0
 501.459474987 162.463867188 551.018554688 208.595703125 551.018554688 208.595703125 c 1
 602.827148438 44.595703125 l 1
 602.827148438 44.595703125 536.561329272 -9.998046875 385.888671875 -9.998046875 c 0
 158.903872118 -9.998046875 30 137.916992188 30 364.561523438 c 0
295 -105 m 1
 295 69.4697265625 l 1
 454 69.4697265625 l 1
 454 -105 l 1
 295 -105 l 1
295 655 m 1
 295 829.469726562 l 1
 454 829.469726562 l 1
 454 655 l 1
 295 655 l 1
EndSplineSet
EndChar

StartChar: uni20B2
Encoding: 8370 8370 136
Width: 739
Flags: W
HStem: -9.99805 79.4678<295 454> 280.5 153.5<356 471.019 637.827 719> 280.5 14.0957<471.019 637.827> 655 84.1211<295 454>
VStem: 30 194.849<242.682 482.961> 295 159<-105 69.4697 655 829.47> 482.981 171.001<190.974 280.433>
LayerCount: 2
Fore
SplineSet
295 -105 m 1x9e
 295 69.4697265625 l 1
 454 69.4697265625 l 1
 454 -105 l 1
 295 -105 l 1x9e
295 655 m 1
 295 829.469726562 l 1
 454 829.469726562 l 1
 454 655 l 1
 295 655 l 1
719 280.5 m 1xde
 356 280.5 l 1
 356 434 l 1
 719 434 l 1
 719 280.5 l 1xde
30 364.561523438 m 0
 30 591.206054688 162.012764984 739.12109375 378.888671875 739.12109375 c 0
 538.901639544 739.12109375 604.681640625 672.891601562 604.681640625 672.891601562 c 1
 533.85546875 516.638671875 l 1
 533.85546875 516.638671875 485.973273982 568.159179688 388.888671875 568.159179688 c 0
 273.977665545 568.159179688 224.848632812 486.649574003 224.848632812 364.561523438 c 0
 224.848632812 243.372953147 263.716256307 162.463867188 369.888671875 162.463867188 c 0
 450.65757239 162.463867188 482.981445312 194.266503225 482.981445312 242 c 0
 482.981445312 278.785592569 471.018554688 294.595703125 471.018554688 294.595703125 c 1
 637.827148438 294.595703125 l 1xbe
 637.827148438 294.595703125 653.982421875 265.24972273 653.982421875 212 c 0
 653.982421875 78.6425930481 562.551060831 -9.998046875 369.888671875 -9.998046875 c 0
 153.396418313 -9.998046875 30 137.916992188 30 364.561523438 c 0
EndSplineSet
EndChar

StartChar: uni20BA
Encoding: 8378 8378 137
Width: 648
Flags: W
HStem: 0 163.5<279 381.431> 711.008 20G<90 279>
VStem: 90 189<163.5 731.008>
LayerCount: 2
Fore
SplineSet
424 357.5 m 1
 25 242.5 l 1
 25 328.5 l 1
 424 443.5 l 1
 424 357.5 l 1
424 487.5 m 1
 25 372.5 l 1
 25 458.5 l 1
 424 573.5 l 1
 424 487.5 l 1
279 163.5 m 1
 300 163.5 l 2
 455.054347826 163.5 458.5 322.5 458.5 322.5 c 1
 626.5 295 l 1
 626.5 295 617.594602355 -3.72341046883e-14 300 0 c 2
 90 0 l 1
 90 731.0078125 l 1
 279 731.0078125 l 1
 279 163.5 l 1
EndSplineSet
EndChar

StartChar: fraction
Encoding: 8260 8260 138
Width: 304
Flags: W
HStem: 0 21G<-115 36.175> 711.008 20G<317.825 469>
LayerCount: 2
Fore
SplineSet
-115 0 m 1
 330 731.0078125 l 1
 469 731.0078125 l 1
 24 0 l 1
 -115 0 l 1
EndSplineSet
EndChar

StartChar: endash
Encoding: 8211 8211 139
Width: 570
Flags: W
HStem: 199.5 160<25 545>
LayerCount: 2
Fore
SplineSet
25 199.5 m 1
 25 359.5 l 1
 545 359.5 l 1
 545 199.5 l 1
 25 199.5 l 1
EndSplineSet
EndChar

StartChar: emdash
Encoding: 8212 8212 140
Width: 820
Flags: W
HStem: 199.5 160<35 785>
LayerCount: 2
Fore
SplineSet
35 199.5 m 1
 35 359.5 l 1
 785 359.5 l 1
 785 199.5 l 1
 35 199.5 l 1
EndSplineSet
EndChar

StartChar: Euro
Encoding: 8364 8364 141
Width: 683
Flags: W
HStem: -9.99805 172.462<372.593 569.24> 260 86<25 464.957> 390 86<25 487.879> 566.659 172.462<373.792 553.483>
LayerCount: 2
Fore
SplineSet
464.95703125 260 m 1
 25 260 l 1
 25 346 l 1
 480.12109375 346 l 1
 464.95703125 260 l 1
487.87890625 390 m 1
 25 390 l 1
 25 476 l 1
 503.04296875 476 l 1
 487.87890625 390 l 1
90 364.561523438 m 0
 90 591.206054688 218.903786212 739.12109375 445.888671875 739.12109375 c 0
 597.397460938 739.12109375 659.681640625 672.891601562 659.681640625 672.891601562 c 1
 593.35546875 515.138671875 l 1
 593.35546875 515.138671875 551.913640362 566.659179688 467.888671875 566.659179688 c 0
 339.668139739 566.659179688 284.848632812 485.750093728 284.848632812 364.561523438 c 0
 284.848632812 243.372953147 338.170666639 162.463867188 462.888671875 162.463867188 c 0
 559.727989739 162.463867188 611.018554688 208.595703125 611.018554688 208.595703125 c 1
 662.827148438 44.595703125 l 1
 662.827148438 44.595703125 596.561523438 -9.998046875 445.888671875 -9.998046875 c 0
 218.903786212 -9.998046875 90 137.916992188 90 364.561523438 c 0
EndSplineSet
EndChar

StartChar: uni20AD
Encoding: 8365 8365 142
Width: 665
Flags: W
HStem: 0 21G<86 275 427.232 660> 290 131<35 619> 711.008 20G<86 275 425.091 650>
VStem: 86 189<0 311 401 731.008> 256 19<311 401>
LayerCount: 2
Fore
SplineSet
619 290 m 1xe0
 35 290 l 1
 35 421 l 1
 619 421 l 1
 619 290 l 1xe0
439 0 m 1
 256 311 l 1
 256 401 l 1xe8
 436 731.0078125 l 1
 650 731.0078125 l 1
 426 372 l 1
 660 0 l 1
 439 0 l 1
86 0 m 5xf0
 86 731.0078125 l 5
 275 731.0078125 l 5
 275 0 l 5
 86 0 l 5xf0
EndSplineSet
EndChar

StartChar: uni20B9
Encoding: 8377 8377 143
Width: 574
Flags: W
HStem: 0 21G<311.545 510> 248 154.852<25 242.387> 450 86<25 549> 567.649 163.358<25 253.015>
VStem: 280.929 189.849<399.826 610.682>
LayerCount: 2
Fore
SplineSet
144 248 m 2
 25 248 l 1
 25 402.8515625 l 1
 166.888671875 402.961914062 l 2
 232.006236619 403.012012002 280.928710938 417.634334227 280.928710938 484.561523438 c 0
 280.928710938 552.029840659 232.052941376 567.500030445 167.888671875 567.545898438 c 2
 25 567.649414062 l 1
 25 731.0078125 l 1
 183.888671875 731.0078125 l 2
 334.627124516 731.0078125 470.77734375 669.334960938 470.77734375 504.561523438 c 0
 470.77734375 371.825734629 365.688476562 331.276367188 365.688476562 331.276367188 c 1
 365.688476562 331.276367188 420.074870433 312.109333295 456.660156251 185.129882812 c 2
 510 0 l 1
 317 0 l 1
 272 165 l 2
 251.345257623 240.734055382 231.436619719 248 144 248 c 2
549 450 m 1
 25 450 l 1
 25 536 l 1
 549 536 l 1
 549 450 l 1
EndSplineSet
EndChar

StartChar: uni20B4
Encoding: 8372 8372 144
Width: 677
Flags: W
HStem: -10 158.962<261.86 486.007> 255 86<25 652> 385 86<311.522 652> 579.159 159.962<183.237 381.394>
VStem: 60 184.682<168.948 248.69> 401.081 190.812<477.203 559.836>
LayerCount: 2
Fore
SplineSet
652 255 m 1
 25 255 l 1
 25 341 l 1
 652 341 l 1
 652 255 l 1
652 385 m 1
 25 385 l 1
 25 471 l 5
 652 471 l 5
 652 385 l 1
330.933105469 275.8828125 m 4
 261.825584495 256.901216719 244.681640625 239.656455462 244.681640625 209 c 0
 244.681640625 169.385219978 277.303117995 148.961914062 345.823242188 148.961914062 c 0
 461.884710701 148.961914062 556.546875 196.982421875 556.546875 196.982421875 c 1
 593.703125 42.2294921875 l 1
 593.703125 42.2294921875 496.331054688 -10 342.71484375 -10 c 0
 158.428824029 -10 60 76.5275702949 60 215.5 c 0
 60 334.175685728 115.899149564 405.281398299 311.522460938 448.581054688 c 4
 382.798261807 464.357383515 401.081054688 490.191670067 401.081054688 518 c 0
 401.081054688 555.749513709 371.325309092 579.159179688 305.15625 579.159179688 c 0
 203.867655522 579.159179688 135.1484375 536.638671875 135.1484375 536.638671875 c 1
 92.7744140625 688.891601562 l 1
 92.7744140625 688.891601562 166.234632456 739.12109375 317.286132812 739.12109375 c 0
 487.987006526 739.12109375 591.892578125 651.331825128 591.892578125 515 c 0
 591.892578125 396.093610529 529.783203125 330.500488282 330.933105469 275.8828125 c 4
EndSplineSet
EndChar

StartChar: colonmonetary
Encoding: 8353 8353 145
Width: 623
Flags: W
HStem: -9.99805 79.4678<158.904 262.378 323.378 427.378> 566.659 172.462<269.038 424.657> 655 84.1211<261.622 365.622 426.622 530.622>
VStem: 30 194.849<253.212 473.852>
LayerCount: 2
Fore
SplineSet
292.614257812 -105 m 1x90
 323.377929688 69.4697265625 l 1
 427.377929688 69.4697265625 l 1
 396.614257812 -105 l 1
 292.614257812 -105 l 1x90
426.622070312 655 m 1xb0
 457.385742188 829.469726562 l 1
 561.385742188 829.469726562 l 1
 530.622070312 655 l 1
 426.622070312 655 l 1xb0
30 364.561523438 m 0
 30 591.206054688 158.903872118 739.12109375 385.888671875 739.12109375 c 0
 537.397841668 739.12109375 599.681640625 672.891601562 599.681640625 672.891601562 c 1
 533.35546875 515.138671875 l 1
 533.35546875 515.138671875 491.914060759 566.659179688 407.888671875 566.659179688 c 0xd0
 279.668433559 566.659179688 224.848632812 485.750093728 224.848632812 364.561523438 c 0
 224.848632812 243.372953147 278.170952433 162.463867188 402.888671875 162.463867188 c 0
 499.728212489 162.463867188 551.018554688 208.595703125 551.018554688 208.595703125 c 1
 602.827148438 44.595703125 l 1
 602.827148438 44.595703125 536.561329272 -9.998046875 385.888671875 -9.998046875 c 0
 158.903872118 -9.998046875 30 137.916992188 30 364.561523438 c 0
127.614257812 -105 m 1
 158.377929688 69.4697265625 l 1
 262.377929688 69.4697265625 l 1
 231.614257812 -105 l 1
 127.614257812 -105 l 1
261.622070312 655 m 1xb0
 292.385742188 829.469726562 l 1
 396.385742188 829.469726562 l 1
 365.622070312 655 l 1
 261.622070312 655 l 1xb0
EndSplineSet
EndChar

StartChar: zero.inferior
Encoding: 8320 8320 148
Width: 455
Flags: W
HStem: -358 117.875<173.252 282.331> 25.125 117.875<173.252 279.482>
VStem: 14.25 125.875<-201.8 -10.9444> 313.625 125.875<-205.801 -9.86782>
LayerCount: 2
Fore
SplineSet
140.125 -108 m 0
 140.125 -188 167.25 -240.125 228 -240.125 c 0
 288.75 -240.125 313.625 -188 313.625 -108 c 0
 313.625 -28 288.75 25.125 228 25.125 c 0
 167.25 25.125 140.125 -28 140.125 -108 c 0
14.25 -108 m 0
 14.25 44 88.375 143 228 143 c 0
 367.625 143 439.5 44 439.5 -108 c 0
 439.5 -260 367.625 -358 228 -358 c 0
 88.375 -358 14.25 -260 14.25 -108 c 0
EndSplineSet
EndChar

StartChar: one.inferior
Encoding: 8321 8321 149
Width: 277
Flags: W
VStem: 119.875 129.875<-350 8.25>
LayerCount: 2
Fore
SplineSet
249.75 137 m 1
 249.75 -350 l 1
 119.875 -350 l 1
 119.875 8.25 l 1
 32.5 -37.5 l 1
 -1.125 57 l 1
 130.875 137 l 1
 249.75 137 l 1
EndSplineSet
EndChar

StartChar: two.inferior
Encoding: 8322 8322 150
Width: 404
Flags: W
HStem: -350 112<162.5 392.5> 28 115<96.7453 251.15>
VStem: 259.625 127.875<-61.5125 18.6297>
LayerCount: 2
Fore
SplineSet
259.625 -22.25 m 0
 259.625 11.625 241.125 28 187.375 28 c 0
 118.875 28 72.25 -8 72.25 -8 c 1
 38.25 101 l 1
 38.25 101 99.5 143 191 143 c 0
 314 143 387.5 92 387.5 -9 c 0
 387.5 -105.375 337.87532357 -148.466550392 233 -196.75 c 0
 168.488491669 -226.450391433 163.375 -234.875 162.5 -238 c 1
 392.5 -238 l 1
 392.5 -350 l 1
 27.625 -350 l 1
 27.625 -314 l 2
 27.625 -204.875 92.875 -143.375 208.375 -80.125 c 0
 257.875 -54.5 259.625 -37.5 259.625 -22.25 c 0
EndSplineSet
EndChar

StartChar: three.inferior
Encoding: 8323 8323 151
Width: 389
Flags: W
HStem: -358 113.625<66.0416 233.072> -151.625 99.25<113.25 222.284> 0.875 21G<46.0329 51.5> 26.375 116.625<58.301 222.33>
VStem: 227.125 136<-44.0367 18.5316> 242.25 132.5<-232.625 -163.067>
LayerCount: 2
Fore
SplineSet
154.75 -52.375 m 2xf4
 210 -52.375 227.125 -38.5 227.125 -12.375 c 0
 227.125 8.75 213.25 26.375 163.375 26.375 c 0
 94.125 26.375 51.5 0.875 51.5 0.875 c 1
 21.875 109.25 l 1
 21.875 109.25 76.125 143 169 143 c 0
 289 143 363.125 95 363.125 5 c 0xf8
 363.125 -76 291.75 -100 291.75 -100 c 1
 291.75 -100 374.75 -123 374.75 -214 c 0
 374.75 -317 292 -358 168 -358 c 0
 65.875 -358 5.625 -323 5.625 -323 c 1
 45.5 -211 l 1
 45.5 -211 90.875 -244.375 161 -244.375 c 0
 216.75 -244.375 242.25 -227.125 242.25 -196.375 c 0
 242.25 -165.875 214.125 -151.625 156.375 -151.625 c 2
 113.25 -151.625 l 1
 113.25 -52.375 l 1
 154.75 -52.375 l 2xf4
EndSplineSet
EndChar

StartChar: four.inferior
Encoding: 8324 8324 152
Width: 439
Flags: W
HStem: -246.25 103.5<146.25 427.125>
VStem: 231.625 125.875<-350 -38>
LayerCount: 2
Fore
SplineSet
357.5 137 m 1
 357.5 -350 l 1
 231.625 -350 l 1
 231.625 -38 l 1
 146.25 -142.75 l 1
 427.125 -142.75 l 1
 427.125 -246.25 l 1
 31.875 -246.25 l 1
 10.625 -160.125 l 1
 232 137 l 1
 357.5 137 l 1
EndSplineSet
EndChar

StartChar: five.inferior
Encoding: 8325 8325 153
Width: 381
Flags: W
HStem: -357 113.375<52.1231 227.008> -126.625 97.625<141.472 226.163> 28.25 108.75<144.5 343.625>
VStem: 238.25 127.25<-229.935 -139.342>
LayerCount: 2
Fore
SplineSet
171.125 -357 m 0
 65.5 -357 1.25 -323 1.25 -323 c 1
 32.75 -212.875 l 1
 32.75 -212.875 86.875 -243.625 158.625 -243.625 c 0
 216 -243.625 238.25 -222.25 238.25 -187.625 c 0
 238.25 -150.5 217.375 -126.625 172.375 -126.625 c 0
 124.375 -126.625 108.25 -150.125 108.25 -150.125 c 1
 21.25 -131.75 l 1
 36.625 137 l 1
 343.625 137 l 1
 343.625 28.25 l 1
 144.5 28.25 l 1
 139.625 -52 l 1
 139.625 -52 159 -29 221.125 -29 c 0
 314.375 -29 365.5 -87 365.5 -181.75 c 0
 365.5 -290.375 299.5 -357 171.125 -357 c 0
EndSplineSet
EndChar

StartChar: six.inferior
Encoding: 8326 8326 154
Width: 427
Flags: W
HStem: -358 105.5<163.466 277.708> -132.5 94<162.359 277.787> 33.875 109.125<174.7 351.571>
VStem: 14.25 135.875<-238.922 -47.8102> 290.25 121.875<-238.451 -146.15>
LayerCount: 2
Fore
SplineSet
150.125 -192 m 0
 150.125 -227.125 170.625 -252.5 219.375 -252.5 c 0
 269.75 -252.5 290.25 -227.125 290.25 -192 c 0
 290.25 -156.875 269.75 -132.5 219.375 -132.5 c 0
 170.625 -132.5 150.125 -156.875 150.125 -192 c 0
137.125 -65.625 m 1
 137.125 -65.625 161.875 -38.5 244.625 -38.5 c 0
 347.5 -38.5 412.125 -100.25 412.125 -191 c 0
 412.125 -298 339 -358 221 -358 c 0
 92 -358 14.25 -285 14.25 -107 c 0
 14.25 54 97.625 143 246.75 143 c 0
 348.875 143 400.75 102 400.75 102 c 1
 354 1.875 l 1
 354 1.875 316.625 33.875 251.125 33.875 c 0
 178.25 33.875 140.5 -0.875 137.125 -65.625 c 1
EndSplineSet
EndChar

StartChar: seven.inferior
Encoding: 8327 8327 155
Width: 402
Flags: W
HStem: 25 112<18.875 231.375>
VStem: 97.875 129.25<-350 -213.664>
LayerCount: 2
Fore
SplineSet
227.125 -350 m 1
 97.875 -350 l 1
 104.25 -143.125 231.375 25 231.375 25 c 1
 18.875 25 l 1
 18.875 137 l 1
 384.125 137 l 1
 384.125 67 l 1
 384.125 67 229.125 -113 227.125 -350 c 1
EndSplineSet
EndChar

StartChar: eight.inferior
Encoding: 8328 8328 156
Width: 432
Flags: W
HStem: -358 104.125<151.506 282.114> -145.875 99.75<183.625 255.5> -111 44.375<103 335.5> 37.875 105.125<164.639 269.183>
VStem: 14.25 124.875<-240.33 -159.835> 38.875 120.25<-38.0154 30.4918> 276.5 120.25<-38.3036 30.7627> 293.5 124.875<-240.746 -159.427>
LayerCount: 2
Fore
SplineSet
217.75 -46.125 m 0xd6
 255.5 -46.125 276.5 -29.875 276.5 -4.125 c 0
 276.5 22.625 256.5 37.875 217.75 37.875 c 0
 181 37.875 159.125 22.625 159.125 -4.125 c 0
 159.125 -29.875 183.625 -46.125 217.75 -46.125 c 0xd6
217.75 143 m 0
 330.5 143 396.75 93 396.75 12 c 0
 396.75 -68 335.5 -111 217.75 -111 c 0xb6
 103 -111 38.875 -68 38.875 12 c 0
 38.875 93 107 143 217.75 143 c 0
217.125 -253.875 m 0
 267.875 -253.875 293.5 -234.625 293.5 -198.875 c 0
 293.5 -165.5 267.875 -145.875 217.125 -145.875 c 0
 166.375 -145.875 139.125 -165.5 139.125 -198.875 c 0xd9
 139.125 -234.625 166.375 -253.875 217.125 -253.875 c 0
217.125 -66.625 m 0xb9
 347.5 -66.625 418.375 -119.5 418.375 -212 c 0
 418.375 -301 340.5 -358 217.125 -358 c 0
 93.75 -358 14.25 -301 14.25 -212 c 0
 14.25 -119.5 86.75 -66.625 217.125 -66.625 c 0xb9
EndSplineSet
EndChar

StartChar: nine.inferior
Encoding: 8329 8329 157
Width: 427
Flags: W
HStem: -358 109.125<81.2284 245.904> -179.75 94<153.008 267.237> 34.25 108.75<152.34 267.906>
VStem: 14.25 124.5<-71.8442 20.6241> 279.5 133.25<-161.492 19.6884>
LayerCount: 2
Fore
SplineSet
279.5 -25.25 m 0
 279.5 9.875 259 34.25 210.25 34.25 c 0
 159.875 34.25 138.75 9.875 138.75 -25.25 c 0
 138.75 -60.375 159.875 -85.75 210.25 -85.75 c 0
 259 -85.75 279.5 -60.375 279.5 -25.25 c 0
280.125 -147.75 m 1
 280.125 -147.75 255.375 -179.75 182.375 -179.75 c 0
 79.5 -179.75 14.25 -114.75 14.25 -22.375 c 0
 14.25 84.625 88 143 206 143 c 0
 335 143 412.75 70 412.75 -108 c 0
 412.75 -269 329.375 -358 180.25 -358 c 0
 78.125 -358 26.25 -317 26.25 -317 c 1
 62.625 -215.25 l 1
 62.625 -215.25 101.625 -248.875 175.875 -248.875 c 0
 242.25 -248.875 276.75 -212.5 280.125 -147.75 c 1
EndSplineSet
EndChar

StartChar: zero.superior
Encoding: 8304 8304 158
Width: 456
Flags: W
HStem: 342 117.875<173.252 282.632> 725.125 117.875<173.252 282.632>
VStem: 14.25 125.875<498.2 689.056> 315.25 125.875<495.264 689.056>
LayerCount: 2
Fore
SplineSet
140.125 592 m 0
 140.125 512 167.25 459.875 228 459.875 c 0
 288.75 459.875 315.25 512 315.25 592 c 0
 315.25 672 288.75 725.125 228 725.125 c 0
 167.25 725.125 140.125 672 140.125 592 c 0
14.25 592 m 0
 14.25 744 88.375 843 228 843 c 0
 367.625 843 441.125 744 441.125 592 c 0
 441.125 440 367.625 342 228 342 c 0
 88.375 342 14.25 440 14.25 592 c 0
EndSplineSet
EndChar

StartChar: one.superior
Encoding: 185 185 159
Width: 277
Flags: W
VStem: 119.875 129.875<350 708.25>
LayerCount: 2
Fore
SplineSet
249.75 837 m 1
 249.75 350 l 1
 119.875 350 l 1
 119.875 708.25 l 1
 32.5 662.5 l 1
 -1.125 757 l 1
 130.875 837 l 1
 249.75 837 l 1
EndSplineSet
EndChar

StartChar: two.superior
Encoding: 178 178 160
Width: 405
Flags: W
HStem: 350 112<162.5 392.5> 728 115<96.7453 251.15>
VStem: 259.625 127.875<638.487 718.63>
LayerCount: 2
Fore
SplineSet
259.625 677.75 m 4
 259.625 711.625 241.125 728 187.375 728 c 4
 118.875 728 72.25 692 72.25 692 c 5
 38.25 801 l 5
 38.25 801 99.5 843 191 843 c 4
 314 843 387.5 792 387.5 691 c 4
 387.5 594.625 337.87532357 551.533449608 233 503.25 c 4
 168.488491669 473.549608567 163.375 465.125 162.5 462 c 5
 392.5 462 l 5
 392.5 350 l 5
 27.625 350 l 5
 27.625 386 l 6
 27.625 495.125 91.4312710827 559.335948414 208.375 619.875 c 4
 257.875 645.5 259.625 662.5 259.625 677.75 c 4
EndSplineSet
EndChar

StartChar: three.superior
Encoding: 179 179 161
Width: 389
Flags: W
HStem: 342 113.625<66.0416 233.072> 548.375 99.25<113.25 222.284> 726.375 116.625<62.1312 222.33>
VStem: 227.125 136<655.963 718.532> 242.25 132.5<467.066 536.659>
LayerCount: 2
Fore
SplineSet
154.75 647.625 m 2xe8
 210 647.625 227.125 661.5 227.125 687.625 c 0
 227.125 708.75 213.25 726.375 163.375 726.375 c 0
 94.125 726.375 51.5 699.25 51.5 699.25 c 1
 21.875 807.625 l 1
 21.875 807.625 76.125 843 169 843 c 0
 289 843 363.125 795 363.125 705 c 0xf0
 363.125 624 291.75 600 291.75 600 c 1
 291.75 600 374.75 576.375 374.75 485.375 c 0
 374.75 382.375 292 342 168 342 c 0
 65.875 342 5.625 376 5.625 376 c 1
 45.5 489 l 1
 45.5 489 90.875 455.625 161 455.625 c 0
 216.75 455.625 242.25 472.875 242.25 503.625 c 0
 242.25 534.125 214.125 548.375 156.375 548.375 c 2
 113.25 548.375 l 1
 113.25 647.625 l 1
 154.75 647.625 l 2xe8
EndSplineSet
EndChar

StartChar: four.superior
Encoding: 8308 8308 162
Width: 439
Flags: W
HStem: 453.75 103.5<146.25 427.125>
VStem: 231.625 125.875<350 661.625>
LayerCount: 2
Fore
SplineSet
357.5 837 m 1
 357.5 350 l 1
 231.625 350 l 1
 231.625 661.625 l 1
 146.25 557.25 l 1
 427.125 557.25 l 1
 427.125 453.75 l 1
 31.875 453.75 l 1
 10.625 539.875 l 1
 232 837 l 1
 357.5 837 l 1
EndSplineSet
EndChar

StartChar: five.superior
Encoding: 8309 8309 163
Width: 381
Flags: W
HStem: 343 113.375<52.1231 227.008> 573.375 97.625<141.472 226.163> 728.25 108.75<144.5 343.625>
VStem: 238.25 127.25<470.065 560.658>
LayerCount: 2
Fore
SplineSet
171.125 343 m 0
 65.5 343 1.25 377 1.25 377 c 1
 32.75 487.125 l 1
 32.75 487.125 86.875 456.375 158.625 456.375 c 0
 216 456.375 238.25 477.75 238.25 512.375 c 0
 238.25 549.5 217.375 573.375 172.375 573.375 c 0
 124.375 573.375 108.25 549.875 108.25 549.875 c 1
 21.25 568.25 l 1
 36.625 837 l 1
 343.625 837 l 1
 343.625 728.25 l 1
 144.5 728.25 l 1
 139.625 648 l 1
 139.625 648 159 671 221.125 671 c 0
 314.375 671 365.5 613 365.5 518.25 c 0
 365.5 409.625 299.5 343 171.125 343 c 0
EndSplineSet
EndChar

StartChar: six.superior
Encoding: 8310 8310 164
Width: 427
Flags: W
HStem: 342 105.5<163.466 277.708> 567.5 94<162.359 277.787> 733.875 109.125<174.7 350.269>
VStem: 14.25 135.875<461.078 652.19> 290.25 121.875<461.549 553.85>
LayerCount: 2
Fore
SplineSet
150.125 508 m 0
 150.125 472.875 170.625 447.5 219.375 447.5 c 0
 269.75 447.5 290.25 472.875 290.25 508 c 0
 290.25 543.125 269.75 567.5 219.375 567.5 c 0
 170.625 567.5 150.125 543.125 150.125 508 c 0
137.125 633.375 m 1
 137.125 633.375 161.875 661.5 244.625 661.5 c 0
 347.5 661.5 412.125 599.75 412.125 509 c 0
 412.125 402 339 342 221 342 c 0
 92 342 14.25 415 14.25 593 c 0
 14.25 754 97.625 843 246.75 843 c 0
 348.875 843 400.75 802 400.75 802 c 1
 354 700.25 l 1
 354 700.25 316.625 733.875 251.125 733.875 c 0
 178.25 733.875 140.5 699.75 137.125 633.375 c 1
EndSplineSet
EndChar

StartChar: seven.superior
Encoding: 8311 8311 165
Width: 402
Flags: W
HStem: 725 112<18.875 231.375>
VStem: 97.875 129.25<350 486.162>
LayerCount: 2
Fore
SplineSet
227.125 350 m 1
 97.875 350 l 1
 104.25 556.875 231.375 725 231.375 725 c 1
 18.875 725 l 1
 18.875 837 l 1
 384.125 837 l 1
 384.125 765.375 l 1
 384.125 765.375 229.125 587 227.125 350 c 1
EndSplineSet
EndChar

StartChar: eight.superior
Encoding: 8312 8312 166
Width: 443
Flags: W
HStem: 342 104.125<153.974 289.396> 554.125 99.75<185.25 263.625> 589 44.375<104.625 343.625> 737.875 105.125<166.676 279.319>
VStem: 14.25 124.875<462.026 539.746> 38.875 120.25<664.065 728.126> 286.25 120.25<663.459 728.417> 303.25 124.875<460.098 539.746>
LayerCount: 2
Fore
SplineSet
222.625 653.875 m 0xd6
 263.625 653.875 286.25 670.125 286.25 695.875 c 0
 286.25 722.625 264.625 737.875 222.625 737.875 c 0
 184.25 737.875 159.125 722.625 159.125 695.875 c 0
 159.125 670.125 185.25 653.875 222.625 653.875 c 0xd6
222.625 843 m 0
 338.625 843 406.5 793 406.5 712 c 0
 406.5 632 343.625 589 222.625 589 c 0xb6
 104.625 589 38.875 632 38.875 712 c 0
 38.875 793 108.625 843 222.625 843 c 0
222 446.125 m 0
 274.375 446.125 303.25 465.375 303.25 501.125 c 0
 303.25 534.5 274.375 554.125 222 554.125 c 0
 169.625 554.125 139.125 534.5 139.125 501.125 c 0xd9
 139.125 465.375 169.625 446.125 222 446.125 c 0
222 633.375 m 0xb9
 355.625 633.375 428.125 580.5 428.125 488 c 0
 428.125 399 347 342 222 342 c 0
 97 342 14.25 399 14.25 488 c 0
 14.25 580.5 88.375 633.375 222 633.375 c 0xb9
EndSplineSet
EndChar

StartChar: nine.superior
Encoding: 8313 8313 167
Width: 427
Flags: W
HStem: 342 109.125<81.2284 245.904> 520.25 94<153.008 267.237> 734.25 108.75<152.34 267.906>
VStem: 14.25 124.5<628.156 720.624> 279.5 133.25<538.508 719.688>
LayerCount: 2
Fore
SplineSet
279.5 674.75 m 0
 279.5 709.875 259 734.25 210.25 734.25 c 0
 159.875 734.25 138.75 709.875 138.75 674.75 c 0
 138.75 639.625 159.875 614.25 210.25 614.25 c 0
 259 614.25 279.5 639.625 279.5 674.75 c 0
280.125 551.625 m 1
 280.125 551.625 255.375 520.25 182.375 520.25 c 0
 79.5 520.25 14.25 585.25 14.25 677.625 c 0
 14.25 784.625 88 843 206 843 c 0
 335 843 412.75 770 412.75 592 c 0
 412.75 431 329.375 342 180.25 342 c 0
 78.125 342 26.25 383 26.25 383 c 1
 62.625 484.75 l 1
 62.625 484.75 101.625 451.125 175.875 451.125 c 0
 242.25 451.125 276.75 486.875 280.125 551.625 c 1
EndSplineSet
EndChar

StartChar: circumflex
Encoding: 710 710 168
Width: 362
Flags: W
HStem: 516 215.008
LayerCount: 2
Fore
SplineSet
271 516 m 1
 181 597.432617188 l 1
 91 516 l 1
 -9 546 l 1
 101 731.0078125 l 1
 261 731.0078125 l 1
 371 546 l 1
 271 516 l 1
EndSplineSet
EndChar

StartChar: caron
Encoding: 711 711 169
Width: 362
Flags: W
HStem: 526 215.008
LayerCount: 2
Fore
SplineSet
91 741.0078125 m 1
 181 659.575195312 l 1
 271 741.0078125 l 1
 371 711.0078125 l 1
 261 526 l 1
 101 526 l 1
 -9 711.0078125 l 1
 91 741.0078125 l 1
EndSplineSet
EndChar

StartChar: breve
Encoding: 728 728 170
Width: 322
VWidth: 999
Flags: W
HStem: 559.937 125.938<97.6021 225.218> 715 20G<55.3066 74.9434 247.877 267.514>
VStem: 5 312.82
LayerCount: 2
Fore
SplineSet
161.41015625 559.936523438 m 0
 51.853515625 559.936523438 5 663.762695312 5 663.762695312 c 1
 74.943359375 735 l 1
 74.943359375 735 94.0546875 685.874023438 161.41015625 685.874023438 c 0
 228.765625 685.874023438 247.876953125 735 247.876953125 735 c 1
 317.8203125 663.762695312 l 1
 317.8203125 663.762695312 270.966796875 559.936523438 161.41015625 559.936523438 c 0
EndSplineSet
EndChar

StartChar: dotaccent
Encoding: 729 729 171
Width: 248
Flags: W
HStem: 562.543 176.449<63.7288 185.271>
VStem: 36.8867 175.227<589.573 711.962>
LayerCount: 2
Fore
SplineSet
36.88671875 650.767578125 m 0
 36.88671875 704.215472895 71.4212551868 738.9921875 124.499023438 738.9921875 c 0
 177.577770582 738.9921875 212.11328125 704.215472895 212.11328125 650.767578125 c 0
 212.11328125 597.318717737 177.577770582 562.54296875 124.499023438 562.54296875 c 0
 71.4212551869 562.54296875 36.88671875 597.318717737 36.88671875 650.767578125 c 0
EndSplineSet
EndChar

StartChar: tilde
Encoding: 732 732 172
Width: 371
VWidth: 999
Flags: W
HStem: 556.223 120.937<194.449 314.954> 595.792 120.068<56.7159 177.715>
LayerCount: 2
Fore
SplineSet
366.400390625 621.485351562 m 5x80
 366.400390625 621.485351562 319.315004373 556.222656251 246.725585938 556.222656251 c 0x80
 179.364257812 556.222656251 165.59765625 595.791992188 116.413085938 595.791992188 c 0
 79.2699717793 595.791992188 48.96875 568.25390625 48.96875 568.25390625 c 1
 5 668.735351562 l 1
 5 668.735351562 56.9904988988 715.860351562 124.67578125 715.860351562 c 0x40
 190.967773438 715.860351562 210.080078125 677.16015625 254.98828125 677.16015625 c 0
 296.974422386 677.16015625 318.45703125 701.72265625 318.45703125 701.72265625 c 1
 366.400390625 621.485351562 l 5x80
EndSplineSet
EndChar

StartChar: hungarumlaut
Encoding: 733 733 173
Width: 412
Flags: W
HStem: 506 235.008
LayerCount: 2
Fore
SplineSet
299 506 m 1
 183 526 l 1
 255 741.0078125 l 1
 421 711.0078125 l 1
 299 506 l 1
109 506 m 1
 -7 526 l 1
 65 741.0078125 l 1
 231 711.0078125 l 1
 109 506 l 1
EndSplineSet
EndChar

StartChar: multiply
Encoding: 215 215 174
Width: 450
Flags: W
LayerCount: 2
Fore
SplineSet
418.040039062 449.444335938 m 1
 133.555664062 164.959960938 l 1
 31.9599609375 266.555664062 l 1
 316.444335938 551.040039062 l 1
 418.040039062 449.444335938 l 1
316.444335938 164.959960938 m 1
 31.9599609375 449.444335938 l 1
 133.555664062 551.040039062 l 1
 418.040039062 266.555664062 l 1
 316.444335938 164.959960938 l 1
EndSplineSet
EndChar

StartChar: divide
Encoding: 247 247 175
Width: 450
Flags: W
HStem: 80.9961 187.804<161.876 288.123> 287.5 141<30 420> 447.2 187.804<161.876 288.123>
VStem: 131.648 186.703<111.402 238.393 477.607 604.597>
CounterMasks: 1 e0
LayerCount: 2
Fore
SplineSet
420 287.5 m 1
 30 287.5 l 1
 30 428.5 l 1
 420 428.5 l 1
 420 287.5 l 1
131.6484375 174.897460938 m 0
 131.6484375 231.784689042 168.444652691 268.799804688 224.999023438 268.799804688 c 0
 281.55434595 268.799804688 318.3515625 231.784689042 318.3515625 174.897460938 c 0
 318.3515625 118.01016232 281.55434595 80.99609375 224.999023438 80.99609375 c 0
 168.444652691 80.99609375 131.6484375 118.01016232 131.6484375 174.897460938 c 0
131.6484375 541.102539062 m 0
 131.6484375 597.988744723 168.444652691 635.00390625 224.999023438 635.00390625 c 0
 281.55434595 635.00390625 318.3515625 597.988744723 318.3515625 541.102539062 c 0
 318.3515625 484.214218003 281.55434595 447.200195312 224.999023438 447.200195312 c 0
 168.444652691 447.200195312 131.6484375 484.214218003 131.6484375 541.102539062 c 0
EndSplineSet
EndChar

StartChar: AE
Encoding: 198 198 176
Width: 1024
Flags: W
HStem: 0 163.5<684 999> 135 164<237 590> 284.5 161<626 939> 284.5 14.5<590 626> 567.508 163.5<684 999>
VStem: 495 91<622 731.008> 590 94<299 445.5> 590 36<284.5 299>
AnchorPoint: "Anchor-0" 592 731 basechar 0
LayerCount: 2
Fore
SplineSet
939 284.5 m 1x2e
 590 284.5 l 1x1d
 590 445.5 l 1
 939 445.5 l 1
 939 284.5 l 1x2e
684 567.5078125 m 1x8e
 684 163.5 l 1
 999 163.5 l 1
 999 0 l 1
 495 0 l 1
 495 731.0078125 l 1
 999 731.0078125 l 1
 999 567.5078125 l 1
 684 567.5078125 l 1x8e
626 135 m 1x4d
 167 135 l 1
 237 299 l 1x4d
 626 299 l 1x1d
 626 135 l 1x4d
586 731.0078125 m 1
 586 622 l 1
 221 0 l 5
 0 0 l 1x8c
 475 731.0078125 l 1
 586 731.0078125 l 1
EndSplineSet
EndChar

StartChar: ae
Encoding: 230 230 177
Width: 872
Flags: W
HStem: -9.99805 148.962<564.445 775.839> -9.99805 133.962<214.374 315.755> 200 98.5<459.5 671.5> 366.011 145<157.147 322.554> 367.784 143.149<549.846 651.762>
VStem: 37.5 171.349<129.451 191.922> 345.929 15.8486<222.562 309.934> 459.5 64.8486<200 298.5>
AnchorPoint: "Anchor-0" 417 501.011 basechar 0
LayerCount: 2
Fore
SplineSet
345.928710938 222.561523438 m 1x67
 471 187 l 1
 448.676621853 62.848926279 373.468003486 -9.998046875 229.388671875 -9.998046875 c 0
 91.5077240227 -9.998046875 37.5 60 37.5 141 c 0
 37.5 286.71747631 131.500144529 309.797851562 361.928710938 309.93359375 c 1
 361.77734375 206.284179688 l 1
 219.283095529 206.216020759 208.848632812 189.963244125 208.848632812 161.061523438 c 0
 208.848632812 136.454122358 228.788222657 123.963867188 261.388671875 123.963867188 c 0
 305.701803725 123.963867188 345.928710938 156.320418886 345.928710938 222.561523438 c 1x67
478.428710938 203 m 1
 345.928710938 165 l 1
 345.928710938 291.510742188 l 2
 345.928710937 343.57202936 306.178636479 366.010742188 252.428710938 366.010742188 c 0
 180.977355957 366.010742188 129.928710938 329.510742188 129.928710938 329.510742188 c 1
 80.9287109375 467.010742188 l 1
 80.9287109375 467.010742188 143.157930879 511.010742188 267.893554688 511.010742188 c 0x37
 386.444904667 511.010742188 478.428710937 430.981551762 478.428710938 310.010742188 c 2
 478.428710938 203 l 1
EndSplineSet
Refer: 43 101 N 1 0 0 1 321 0 2
EndChar

StartChar: Eth
Encoding: 208 208 178
Width: 789
Flags: W
HStem: 0 167.852<301 475.684> 282 157<30 434> 563.15 167.858<301 476.068>
VStem: 112 189<167.852 563.15> 569.929 189.849<259.137 470.246>
LayerCount: 2
Fore
SplineSet
434 282 m 1
 30 282 l 1
 30 439 l 1
 434 439 l 1
 434 282 l 1
EndSplineSet
Refer: 5 68 N 1 0 0 1 62 0 2
EndChar

StartChar: eth
Encoding: 240 240 179
Width: 588
Flags: W
HStem: -9.99805 159.962<237.464 355.946> 365.784 145.149<240.138 346.953>
VStem: 33.0713 174.849<180.758 335.026> 385 178.849<181.652 440> 385 62.8486<281.562 327.776>
LayerCount: 2
Fore
SplineSet
181.078125 616.658203125 m 1xe0
 507.991210938 710.080078125 l 1
 532.170898438 625.467773438 l 1
 205.256835938 532.044921875 l 1
 181.078125 616.658203125 l 1xe0
385 251.561523438 m 0xf0
 385 492.252308656 332 554.54122733 197.93359375 689.548828125 c 1
 362.827148438 771.274414062 l 1
 362.827148438 771.274414062 563.848632812 601 563.848632812 279 c 0xf0
 563.848632812 93.8330078125 462.230025088 -9.998046875 296.959960938 -9.998046875 c 0
 132.921191316 -9.998046875 33.0712890625 94.0830078126 33.0712890625 253.561523438 c 0
 33.0712890625 409.295898438 116.583749612 510.93359375 262 510.93359375 c 4
 370.756361932 510.93359375 447.848632812 423.747070312 447.848632812 281.561523438 c 1xe8
 385 273.561523438 l 1
 385 327.775667794 354.673420987 365.784179688 297.848632812 365.784179688 c 0
 234.852688269 365.784179688 207.919921875 320.856042195 207.919921875 253.561523438 c 0
 207.919921875 191.439187698 234.586718634 149.963867188 296.959960938 149.963867188 c 0
 360.427756672 149.963867188 385 200.175382285 385 251.561523438 c 0xf0
EndSplineSet
EndChar

StartChar: Thorn
Encoding: 222 222 180
Width: 650
Flags: W
HStem: 0 21G<50 239> 154 150.352<169 419.565> 446.649 154.358<170 419.812> 711.008 20G<50 239>
VStem: 50 189<0 154 304.352 446.649 601.008 731.008> 170 69<154 304.352 446.649 601.008> 440.929 179.849<323.717 426.56>
LayerCount: 2
Fore
SplineSet
50 0 m 1xfa
 50 731.0078125 l 1
 239 731.0078125 l 1
 239 0 l 1
 50 0 l 1xfa
169 154 m 1
 169 304.3515625 l 1
 344.888671875 304.461914062 l 6
 399.871707226 304.539173466 440.928710938 317.066595662 440.928710938 374.561523438 c 0
 440.928710938 433.087177522 399.865636298 446.526723738 344.888671875 446.545898438 c 6
 170 446.649414062 l 1
 170 601.0078125 l 1xf6
 363.888671875 601.0078125 l 2
 499.05048035 601.0078125 620.77734375 539.335495382 620.77734375 374.561523438 c 0
 620.77734375 213.240207598 498.259109269 154 363.888671875 154 c 2
 169 154 l 1
EndSplineSet
EndChar

StartChar: thorn
Encoding: 254 254 181
Width: 602
Flags: W
HStem: -9.99805 147.962<250.363 363.661> 363.784 147.149<262.204 365.614> 731.002 20G<50 229>
VStem: 50 179<-180 751.002> 141.151 87.8486<66.4395 183.562> 166.151 62.8486<283.562 425.747> 399.08 174.849<174.089 330.226>
LayerCount: 2
Fore
SplineSet
50 -180 m 1xf2
 50 751.001953125 l 1
 229 751.001953125 l 1
 229 -180 l 1
 50 -180 l 1xf2
229 213.561523438 m 1
 229 176.730678937 250.874769999 137.963867188 302.040039062 137.963867188 c 4
 370.016771864 137.963867188 399.080078125 184.242721118 399.080078125 253.561523438 c 0
 399.080078125 319.656738579 370.050880427 363.784179688 302.151367188 363.784179688 c 0
 250.908762772 363.784179688 229 331.667443599 229 283.561523438 c 1xf2
 229 283.561523438 166.151367188 283.561523438 166.151367188 283.561523438 c 1xe6
 166.151367188 425.747070312 238.529013948 510.93359375 350 510.93359375 c 0
 492.240234375 510.93359375 573.928710938 409.295898438 573.928710938 253.561523438 c 0
 573.928710938 94.0830078126 488.45703125 -9.998046875 348.040039062 -9.998046875 c 0
 219.433970183 -9.998046875 141.151367188 66.4394531249 141.151367188 183.561523438 c 1xea
 229 213.561523438 l 1
EndSplineSet
EndChar

StartChar: kgreenlandic
Encoding: 312 312 182
Width: 555
Flags: W
HStem: 0 21G<45 224 323.383 555> 481.011 20G<45 224 320.065 545>
VStem: 45 179<0 206 306 501.011> 220 4<206 306>
LayerCount: 2
Fore
SplineSet
334.5 0 m 1xd0
 220 206 l 1
 220 306 l 1
 331.5 501.010742188 l 1
 545 501.010742188 l 1
 375 275.5 l 1
 555 0 l 1
 334.5 0 l 1xd0
45 0 m 1xe0
 45 501.010742188 l 1
 224 501.010742188 l 1
 224 0 l 1
 45 0 l 1xe0
EndSplineSet
EndChar

StartChar: Eng
Encoding: 330 330 183
Width: 719
Flags: W
HStem: -189.994 145<309.57 490.885> 0 21G<45 220> 711.008 20G<45 245.437 499 674>
VStem: 45 175<0 410.005> 499 175<333.6 731.008>
LayerCount: 2
Fore
SplineSet
45 0 m 1
 45 731.0078125 l 1
 232 731.0078125 l 1
 499 333.599609375 l 1
 499 731.0078125 l 1
 674 731.0078125 l 1
 674 -3 l 2
 674 -125.529296875 611.568965517 -189.994140625 461 -189.994140625 c 0
 357.758497363 -189.994140625 297 -169.994140625 297 -169.994140625 c 1
 311 -29.994140625 l 1
 311 -29.994140625 356.422466572 -44.994140625 420 -44.994140625 c 0
 467.534951861 -44.994140625 490.51565875 -33.0710562079 497.475834801 -16.3366979644 c 1
 220 410.004882812 l 1
 220 0 l 1
 45 0 l 1
EndSplineSet
Substitution2: "ZameroSans-Ultra-'ss06' Style Set 6 lookup 7-1" Eng.ss06
EndChar

StartChar: eng
Encoding: 331 331 184
Width: 595
Flags: W
HStem: -189.994 158.5<211.552 354.382> 0 21G<45 224> 362.784 148.149<255.352 420.984> 481.011 20G<45 224>
VStem: 45 179<0 501.011> 371.777 179<-12.764 341.891>
LayerCount: 2
Fore
SplineSet
45 0 m 1xdc
 45 501.010742188 l 1
 224 501.010742188 l 1
 224 0 l 1
 45 0 l 1xdc
224 284 m 1
 154 293.561523438 l 1
 175.874026638 444 227.742126105 510.93359375 357 510.93359375 c 0
 484.968071346 510.93359375 550.77734375 444.084682028 550.77734375 304.561523438 c 2
 550.77734375 36 l 2
 550.77734375 -100.022410812 488.639593908 -189.994140625 338.77734375 -189.994140625 c 0
 256.018329327 -189.994140625 198.77734375 -174.994140625 198.77734375 -174.994140625 c 1
 212.77734375 -20.994140625 l 1
 212.77734375 -20.994140625 249.657385254 -31.494140625 301.27734375 -31.494140625 c 0
 350.912782411 -31.494140625 371.77734375 -6.64474303464 371.77734375 51.005859375 c 2
 371.77734375 287.561523438 l 2
 371.77734375 335.060986875 350.080171864 362.784179688 299 362.784179688 c 0xec
 246.462061555 362.784179688 224 331.243210412 224 284 c 1
EndSplineSet
EndChar

StartChar: OE
Encoding: 338 338 185
Width: 991
Flags: W
HStem: 0 163.5<656 971> 0 169.962<300.395 532.777> 284.5 161<562 911> 560.546 170.462<299.988 532.777> 567.508 163.5<656 971>
VStem: 25 184.849<259.688 469.561> 562 94<284.5 445.5>
LayerCount: 2
Fore
SplineSet
532.77734375 169.8515625 m 1x76
 532.77734375 0 l 1
 398.888671875 0 l 2
 203.319335938 0 25 97.9169921876 25 364.561523438 c 0
 25 631.206054688 202.16796875 731.0078125 398.888671875 731.0078125 c 2
 532.77734375 731.0078125 l 1
 532.77734375 560.649414062 l 1
 418.888671875 560.545898438 l 2
 299.213634994 560.423612014 209.848632812 523.902505746 209.848632812 364.561523438 c 0
 209.848632812 204.953593428 299.213634994 170.0915063 418.888671875 169.961914062 c 2
 532.77734375 169.8515625 l 1x76
EndSplineSet
Refer: 10 69 N 1 0 0 1 417 0 2
EndChar

StartChar: longs
Encoding: 383 383 187
Width: 269
Flags: W
HStem: 0 21G<45 224> 612.011 149<231.828 379.225>
VStem: 45 179<0 601.287>
AnchorPoint: "Anchor-0" 256 752.002 basechar 0
LayerCount: 2
Fore
SplineSet
224 557.010742188 m 2
 224 0 l 1
 45 0 l 1
 45 570.010742188 l 2
 45 684.97265625 105.672236874 761.010742188 252 761.010742188 c 0
 334.759014423 761.010742188 392 745.010742188 392 745.010742188 c 1
 378 601.010742188 l 1
 378 601.010742188 340.494873047 612.010742188 288 612.010742188 c 0
 242.940878378 612.010742188 224 595.444228918 224 557.010742188 c 2
EndSplineSet
EndChar

StartChar: uni018F
Encoding: 399 399 188
Width: 765
Flags: W
HStem: -9.99805 170.462<295.367 470.481> 299.123 141<224.108 593.108> 565.159 173.962<176.178 445.882>
VStem: 549.26 45.8486<299.123 440.123>
LayerCount: 2
Back
SplineSet
35 364.561523438 m 0
 35 591.206054688 163.541887394 739.12109375 389.888671875 739.12109375 c 0
 653.541980974 739.12109375 740.108398438 551.971330386 740.108398438 365.891601562 c 0
 740.108398438 303.039520695 732 284 732 284 c 1
 162 284 l 1
 160 424 l 1
 562 424 l 1
 562 424 560.13712938 586.659179688 391 586.659179688 c 0
 261.796380576 586.659179688 205.848632812 497.743164062 205.848632812 364.561523438 c 0
 205.848632812 231.379882812 273.845797251 142.463867188 432.888671875 142.463867188 c 0
 580.720714467 142.463867188 659.018554688 179.595703125 659.018554688 179.595703125 c 1
 682.827148438 32.595703125 l 1
 682.827148438 32.595703125 604.343305548 -9.998046875 425.888671875 -9.998046875 c 0
 176.581210181 -9.998046875 35 137.916992188 35 364.561523438 c 0
EndSplineSet
Fore
SplineSet
740.108398438 364.561523438 m 0
 740.108398438 137.916992187 609.75549399 -9.998046875 380.219726562 -9.998046875 c 0
 112.802304693 -9.998046875 25 182.166051296 25 373.231445312 c 0
 25 415.871507655 30.1083984375 440.123046875 30.1083984375 440.123046875 c 1
 593.108398438 440.123046875 l 1
 595.108398438 299.123046875 l 1
 224.108398438 299.123046875 l 1
 224.108398438 299.123046875 226.004688566 274.817105601 235.466796875 247.5 c 0
 246.362757953 216.043361619 280.953335966 160.463867188 384.108398438 160.463867188 c 0
 499.355478259 160.463867188 549.259765625 242.173646113 549.259765625 364.561523438 c 0
 549.259765625 484.850613454 485.755013497 565.159179688 337.219726562 565.159179688 c 0
 192.656425827 565.159179688 116.08984375 520.02734375 116.08984375 520.02734375 c 5
 82.28125 688.52734375 l 1
 82.28125 688.52734375 162.292381522 739.12109375 344.219726562 739.12109375 c 0
 596.716171202 739.12109375 740.108398438 591.206054687 740.108398438 364.561523438 c 0
EndSplineSet
EndChar

StartChar: florin
Encoding: 402 402 190
Width: 398
Flags: W
HStem: -190.011 158.5<-75.2257 67.6046> 355.5 145.511<4 392> 612.011 149<271.828 419.225>
VStem: 85 179<-12.7767 601.287>
LayerCount: 2
Fore
SplineSet
4 501.010742188 m 1
 392 501.010742188 l 1
 392 355.5 l 1
 4 355.5 l 1
 4 501.010742188 l 1
85 50.9892578125 m 2
 85 570.010742188 l 2
 85 684.97265625 145.672236874 761.010742188 292 761.010742188 c 0
 374.759014423 761.010742188 432 745.010742188 432 745.010742188 c 1
 418 601.010742188 l 1
 418 601.010742188 380.494873047 612.010742188 328 612.010742188 c 0
 282.940878378 612.010742188 264 595.444228918 264 557.010742188 c 2
 264 35.9892578125 l 2
 264 -100.039178207 201.862068966 -190.010742188 52 -190.010742188 c 0
 -30.7590272485 -190.010742188 -88 -175.010742188 -88 -175.010742188 c 1
 -74 -21.0107421875 l 1
 -74 -21.0107421875 -37.120290903 -31.5107421875 14.5 -31.5107421875 c 0
 64.1357177734 -31.5107421875 85 -6.66134459714 85 50.9892578125 c 2
EndSplineSet
EndChar

StartChar: uni01B7
Encoding: 439 439 191
Width: 584
Flags: W
HStem: -9.99805 162.438<115.626 332.383> 567 164<40 289>
VStem: 359.827 200.084<182.158 278.662>
AnchorPoint: "Anchor-0" 289 731 basechar 0
LayerCount: 2
Fore
SplineSet
379.5 428 m 1
 379.5 428 559.911132812 427.707899158 559.911132812 213.670898438 c 0
 559.911132812 53.96958013 436.022469171 -9.998046875 250 -9.998046875 c 0
 102.934570312 -9.998046875 15.451171875 40.9091796875 15.451171875 40.9091796875 c 1
 61.7744140625 200.762695312 l 1
 61.7744140625 200.762695312 130.382825165 152.439453125 238 152.439453125 c 0
 322.275137363 152.439453125 359.827148438 180.467459338 359.827148438 231 c 4
 359.827148438 279.923803039 321.542458197 303.463711275 248.138671875 303.737304688 c 2
 159 304 l 1
 159 398 l 1
 289 567 l 1
 40 567 l 1
 40 731 l 1
 544 731 l 1
 544 625 l 1
 379.5 428 l 1
EndSplineSet
EndChar

StartChar: uni0292
Encoding: 658 658 192
Width: 524
Flags: W
HStem: -189.994 148.938<83.8975 289.812> -29.7334 20G<57.7764 62.7744> 347.011 154<44 235>
VStem: 319.327 180.584<-15.3681 83.9902>
AnchorPoint: "Anchor-0" 260 501.011 basechar 0
LayerCount: 2
Fore
SplineSet
330 215 m 1
 330 215 499.911132812 214.731073124 499.911132812 17.6748046875 c 0
 499.911132812 -130.60239263 384.017578125 -189.994140625 210 -189.994140625 c 0
 94.2852768714 -189.994140625 25.451171875 -159.086914062 25.451171875 -159.086914062 c 1
 62.7744140625 -9.7333984375 l 1
 62.7744140625 -9.7333984375 116.393947056 -41.056640625 200.5 -41.056640625 c 0
 282.699857631 -41.056640625 319.327148438 -12.850249667 319.327148438 38.00390625 c 0
 319.327148438 85.5824902638 278.643420549 108.655250709 200.638671875 108.741210938 c 2
 119 109.00390625 l 1
 119 190.00390625 l 1
 235 347.010742188 l 1
 44 347.010742188 l 1
 44 501.010742188 l 1
 474 501.010742188 l 5
 474 405.010742188 l 5
 330 215 l 1
EndSplineSet
EndChar

StartChar: Oslash
Encoding: 216 216 193
Width: 797
Flags: W
HStem: -9.99805 169.962<304.701 493.076> 569.159 169.962<304.701 493.076>
VStem: 30 182.349<254.596 474.527> 585.429 182.349<254.596 474.527>
AnchorPoint: "Anchor-0" 399 731 basechar 0
AnchorPoint: "Anchor-2" 398 0 basechar 0
AnchorPoint: "Anchor-3" 451 20 basechar 0
LayerCount: 2
Fore
SplineSet
151.5 -91.4697265625 m 1
 536.5 801.403320312 l 1
 645.5 801.403320312 l 1
 260.5 -91.4697265625 l 1
 151.5 -91.4697265625 l 1
EndSplineSet
Refer: 1 79 N 1 0 0 1 0 0 2
EndChar

StartChar: oslash
Encoding: 248 248 194
Width: 589
Flags: W
HStem: -9.99805 162.462<234.752 353.944> 348.284 162.649<234.026 354.719>
VStem: 34 172.849<181.664 322.321> 382.929 172.849<181.664 322.321>
AnchorPoint: "Anchor-0" 294 501.011 basechar 0
AnchorPoint: "Anchor-2" 294 0 basechar 0
AnchorPoint: "Anchor-3" 377 28 basechar 0
LayerCount: 2
Fore
SplineSet
62.5 -91.4697265625 m 1
 423.5 581.403320312 l 1
 526.5 581.403320312 l 5
 165.5 -91.4697265625 l 5
 62.5 -91.4697265625 l 1
EndSplineSet
Refer: 29 111 N 1 0 0 1 0 0 2
EndChar

StartChar: ring
Encoding: 730 730 197
Width: 355
Flags: W
HStem: 480.07 99.3965<143.79 211.127> 661.418 99.584<143.474 211.467>
VStem: 27.5 112.953<583.167 657.707> 215.324 112.953<583.339 657.55>
LayerCount: 2
Fore
SplineSet
140.453125 622.396484375 m 0
 140.453125 596.653730926 151.397750938 579.466796875 176.99609375 579.466796875 c 0
 203.845100524 579.466796875 215.32421875 596.653730926 215.32421875 622.396484375 c 0
 215.32421875 645.795852581 203.874798167 661.41796875 177.094726562 661.41796875 c 0
 151.427447029 661.41796875 140.453125 645.795852581 140.453125 622.396484375 c 0
27.5 622.629882812 m 0
 27.5 706.358572334 84.0254865302 761.001953125 176.888671875 761.001953125 c 0
 270.995035525 761.001953125 328.27734375 706.358572334 328.27734375 622.629882812 c 0
 328.27734375 536.367848721 270.995035525 480.0703125 176.888671875 480.0703125 c 0
 84.0254865302 480.0703125 27.5 536.367848721 27.5 622.629882812 c 0
EndSplineSet
EndChar

StartChar: ogonek
Encoding: 731 731 198
Width: 307
VWidth: 999
Flags: W
HStem: -255 102<156.198 262.214>
VStem: 25 125<-145.983 -46.049>
LayerCount: 2
Fore
SplineSet
25 -130 m 0
 25 -30.5220125786 113 39 113 39 c 1
 233 39 l 1
 233 39 150 -29.3503184713 150 -108 c 0
 150 -140.352718431 169.207693917 -153 203 -153 c 0
 241.620592949 -153 259 -139 259 -139 c 1
 277 -232 l 1
 277 -232 244.426287616 -255 179 -255 c 0
 84.1721502721 -255 25 -210.528428819 25 -130 c 0
EndSplineSet
EndChar

StartChar: minute
Encoding: 8242 8242 203
Width: 235
Flags: W
HStem: 456 275.008<73 121>
VStem: -7 248
LayerCount: 2
Fore
SplineSet
-7 456 m 1
 73 731.0078125 l 1
 241 731.0078125 l 1
 121 456 l 1
 -7 456 l 1
EndSplineSet
EndChar

StartChar: bullet
Encoding: 8226 8226 206
Width: 325
Flags: W
HStem: 220 286.449<82.3676 242.858>
VStem: 20 285.227<282.635 443.813>
LayerCount: 2
Fore
SplineSet
20 363.224609375 m 0
 20 449.991758705 76.2148275828 506.44921875 162.612304688 506.44921875 c 0
 249.010646772 506.44921875 305.2265625 449.991758705 305.2265625 363.224609375 c 0
 305.2265625 276.455959713 249.010646772 220 162.612304688 220 c 0
 76.2148275828 220 20 276.455959713 20 363.224609375 c 0
EndSplineSet
EndChar

StartChar: dagger
Encoding: 8224 8224 207
Width: 530
Flags: W
HStem: 350.011 161<30 500>
LayerCount: 2
Fore
SplineSet
165.5 -171.469726562 m 1
 200.5 427 l 1
 175.5 759.469726562 l 1
 354.5 759.469726562 l 1
 329.5 426 l 1
 364.5 -171.469726562 l 1
 165.5 -171.469726562 l 1
30 350.010742188 m 1
 30 511.010742188 l 1
 500 511.010742188 l 1
 500 350.010742188 l 1
 30 350.010742188 l 1
EndSplineSet
EndChar

StartChar: daggerdbl
Encoding: 8225 8225 208
Width: 530
Flags: W
HStem: 60.0107 161<30 500> 400.011 161<30 500>
LayerCount: 2
Fore
SplineSet
30 60.0107421875 m 1
 30 221.010742188 l 1
 500 221.010742188 l 1
 500 60.0107421875 l 1
 30 60.0107421875 l 1
175.5 -171.469726562 m 1
 200.5 137 l 1
 175.5 317 l 1
 200.5 477 l 1
 175.5 759.469726562 l 1
 354.5 759.469726562 l 1
 329.5 476 l 1
 354.5 318 l 1
 329.5 136 l 1
 354.5 -171.469726562 l 1
 175.5 -171.469726562 l 1
30 400.010742188 m 1
 30 561.010742188 l 1
 500 561.010742188 l 1
 500 400.010742188 l 1
 30 400.010742188 l 1
EndSplineSet
EndChar

StartChar: uni2116
Encoding: 8470 8470 209
Width: 1126
Flags: W
HStem: 0 21G<50 225 469.464 669> 234 104<741 1065> 378.061 126.526<864.352 953.128> 612.278 126.714<861.344 953.774> 711.008 20G<50 249.934 494 669>
VStem: 50 175<0 410.005> 494 175<333.6 731.008> 722.111 132.412<514.25 604.619> 961.477 132.412<514.588 604.309>
LayerCount: 2
Fore
SplineSet
741 338 m 1xe780
 1065 338 l 1
 1065 234 l 1
 741 234 l 1
 741 338 l 1xe780
854.5234375 560.844726562 m 0
 854.5234375 527.109773409 870.209467262 504.586914062 906.897460938 504.586914062 c 0
 945.130342604 504.586914062 961.4765625 527.109773409 961.4765625 560.844726562 c 0
 961.4765625 591.687059128 945.167419016 612.278320312 907.020507812 612.278320312 c 0xf780
 870.246542676 612.278320312 854.5234375 591.687059128 854.5234375 560.844726562 c 0
722.111328125 560.620117188 m 0
 722.111328125 668.552734375 792.069257334 738.9921875 907 738.9921875 c 0
 1023.17390588 738.9921875 1093.88867188 668.552734375 1093.88867188 560.620117188 c 0
 1093.88867188 450.154296875 1023.17390588 378.060546875 907 378.060546875 c 0
 792.069257334 378.060546875 722.111328125 450.154296875 722.111328125 560.620117188 c 0
EndSplineSet
Refer: 11 78 N 1 0 0 1 0 0 2
EndChar

StartChar: uni20BF
Encoding: 8383 8383 210
Width: 640
Flags: W
HStem: -105 174.47<105 264 345 504> 0 163.96<241.5 402.225> 292.656 145.695<169 384.479> 567.149 163.858<241.5 380.703> 655 174.47<105 264 345 504>
VStem: 105 159<-105 69.4697 655 829.47> 169 72.5<292.656 438.352> 345 159<-105 69.4697 655 829.47> 399.429 192.349<454.881 551.549> 422.429 192.349<184.138 277.733>
LayerCount: 2
Fore
SplineSet
345 -105 m 1xa1
 345 69.4697265625 l 1
 504 69.4697265625 l 1
 504 -105 l 1
 345 -105 l 1xa1
345 655 m 1x29
 345 829.469726562 l 1
 504 829.469726562 l 1
 504 655 l 1
 345 655 l 1x29
105 -105 m 1xa4
 105 69.4697265625 l 1
 264 69.4697265625 l 1
 264 -105 l 1
 105 -105 l 1xa4
105 655 m 1x2c
 105 829.469726562 l 1
 264 829.469726562 l 1
 264 655 l 1
 105 655 l 1x2c
EndSplineSet
Refer: 19 66 N 1 0 0 1 0 0 2
EndChar

StartChar: uni20A6
Encoding: 8358 8358 211
Width: 874
Flags: W
HStem: 0 21G<150 325 535.087 731> 259 86<25 224 650 849> 389 86<25 224 650 849> 711.008 20G<150 346.264 556 731>
VStem: 150 175<0 259 345 389> 150 74<259 345 389 475> 556 175<345 389 475 731.008> 650 81<259 345 389 475>
LayerCount: 2
Fore
SplineSet
849 259 m 1xf1
 650 259 l 1
 650 345 l 1
 849 345 l 1
 849 259 l 1xf1
849 389 m 1
 650 389 l 1
 650 475 l 1
 849 475 l 1
 849 389 l 1
224 259 m 1xf4
 25 259 l 1
 25 345 l 1
 224 345 l 1
 224 259 l 1xf4
224 389 m 1
 25 389 l 1
 25 475 l 1
 224 475 l 1
 224 389 l 1
150 0 m 1xf9
 150 731.0078125 l 1
 335 731.0078125 l 1
 556 338.599609375 l 1
 556 731.0078125 l 1
 731 731.0078125 l 1xf6
 731 0 l 1
 546 0 l 1
 325 405.004882812 l 1
 325 0 l 1
 150 0 l 1xf9
EndSplineSet
EndChar

StartChar: uni20BD
Encoding: 8381 8381 212
Width: 703
Flags: W
HStem: 0 21G<126 315> 158.352 86<30 544> 283.352 133<30 461.958> 567.149 163.858<315 462.048>
VStem: 126 189<0 567.149> 481.429 192.349<437.682 546.363>
LayerCount: 2
Fore
SplineSet
544 158.3515625 m 1
 30 158.3515625 l 1
 30 244.3515625 l 1
 544 244.3515625 l 1
 544 158.3515625 l 1
30 283.3515625 m 1
 30 416.3515625 l 1
 387.388671875 416.461914062 l 2
 441.226569166 416.545973757 481.428710938 430.234967731 481.428710938 493.061523438 c 0
 481.428710938 553.213171267 441.226569166 566.970423841 387.388671875 567.045898438 c 2
 315 567.149414062 l 1
 315 0 l 1
 126 0 l 1
 126 731.0078125 l 1
 389.888671875 731.0078125 l 2
 572.502929688 731.0078125 673.77734375 660.721961014 673.77734375 493.061523438 c 0
 673.77734375 357.410832989 582.397460938 283.3515625 428 283.3515625 c 2
 30 283.3515625 l 1
EndSplineSet
EndChar

StartChar: dong
Encoding: 8363 8363 213
Width: 645
Flags: W
HStem: 0 86<30 594> 150.002 133.149<236.133 339.62> 456.972 130.962<234.763 347.601> 624 81<291 620> 731.002 20G<371 550>
VStem: 36.0713 174.849<307.894 434.507> 371 179<355.374 751.002> 371 67.8486<387.374 504.496>
LayerCount: 2
Fore
SplineSet
594 0 m 1xfc
 30 0 l 1
 30 86 l 1
 594 86 l 1
 594 0 l 1xfc
620 624 m 1
 291 624 l 1
 291 705 l 1
 620 705 l 1
 620 624 l 1
550 160 m 1xfe
 371 160 l 1xfd
 371 751.001953125 l 1
 550 751.001953125 l 1
 550 160 l 1xfe
371 385.374023438 m 1xfe
 371 420.256179511 350.437470781 456.971679688 291.959960938 456.971679688 c 0
 238.308803728 456.971679688 210.919921875 423.103858681 210.919921875 372.374023438 c 0
 210.919921875 318.871207912 238.274245109 283.151367188 291.848632812 283.151367188 c 4
 350.403876312 283.151367188 371 312.065731858 371 355.374023438 c 1xfe
 433.848632812 367.374023438 l 1
 433.848632812 237.6953125 369.24464966 150.001953125 245 150.001953125 c 0
 102.042668374 150.001953125 36.0712890625 244.008247561 36.0712890625 372.374023438 c 0
 36.0712890625 498.668206563 108.67276502 587.93359375 249.959960938 587.93359375 c 0
 378.935545852 587.93359375 438.848632812 504.49609375 438.848632812 387.374023438 c 1xfd
 371 385.374023438 l 1xfe
EndSplineSet
EndChar

StartChar: uni1E9E
Encoding: 7838 7838 220
Width: 743
Flags: W
HStem: -10 147.124<336.699 508.101> 0 21G<50 239> 567.008 164<273.932 441>
VStem: 50 189<0 530.396> 539 184<167.527 288.056>
LayerCount: 2
Fore
SplineSet
50 475 m 6x78
 50 655.110606762 131.909090909 731.0078125 315 731.0078125 c 2
 680 731.0078125 l 1
 680 641.0078125 l 1
 548 430 l 1
 610.564766839 430 723 391.90821256 723 222.5 c 0
 723 65.4605263158 628.109756098 -10 472 -10 c 0
 351.094235171 -10 305 26 305 26 c 1
 339.5 156.5 l 1
 339.5 156.5 374.9384154 137.124023438 434.015625 137.124023438 c 0xb8
 497.954823128 137.124023438 539 167.506271667 539 228.5 c 0
 539 291.010309278 500.276595745 319 409 319 c 2
 341 319 l 1
 341 389 l 1
 441 567.0078125 l 1
 350 567.0078125 l 2
 265.603305785 567.0078125 239 529.500837054 239 442.0078125 c 6
 239 0 l 1
 50 0 l 1
 50 475 l 6x78
EndSplineSet
EndChar

StartChar: germandbls
Encoding: 223 223 221
Width: 725
Flags: W
HStem: -9.99805 138.979<339.835 516.003> 0 21G<50 229> 490.434 20G<403.006 465.294> 606.511 154.5<281.035 449.656>
VStem: 50 179<0 548.584> 490 177.118<509 568.193>
LayerCount: 2
Fore
SplineSet
456.346679688 184.068359375 m 0xbc
 324.175314883 216.323994924 287.704101562 268.45741821 287.704101562 352 c 0
 287.704101562 450.693301769 358.011685256 510.43359375 448 510.43359375 c 0
 482.588235294 510.43359375 490 509 490 509 c 1
 487.671843931 572.192480999 446.305595781 606.510742188 363 606.510742188 c 0
 278.904279803 606.510742188 229 559.601693784 229 467.010742188 c 2
 229 0 l 1
 50 0 l 1x7c
 50 480.010742188 l 2
 50 651.613415948 129.011492162 761.010742188 361 761.010742188 c 0
 620.407369253 761.010742188 667.118164062 640.440623096 667.118164062 485 c 0
 667.118164062 407.441921782 647.294921875 346.944335938 647.294921875 346.944335938 c 5
 647.294921875 346.944335938 595.131102588 370.904296875 518.243164062 370.904296875 c 0
 482.731940415 370.904296875 466.76171875 361.570411117 466.76171875 346.518554688 c 0
 466.76171875 331.657857173 476.334505502 322.283265542 509.037109375 314.086914062 c 0
 661 276 695.689453125 231.780716989 695.689453125 146.40234375 c 0
 695.689453125 50.0145708059 619.500834745 -9.998046875 476.856445312 -9.998046875 c 0
 353.923507524 -9.998046875 276 28.5625 276 28.5625 c 1
 304.314453125 165.861328125 l 1
 304.314453125 165.861328125 372.678079962 128.981445312 456.493164062 128.981445312 c 0
 497.49837191 128.981445312 517.020507812 137.266522638 517.020507812 153.336914062 c 0
 517.020507812 167.423233986 505.908910831 171.972991614 456.346679688 184.068359375 c 0xbc
EndSplineSet
EndChar

StartChar: uni2113
Encoding: 8467 8467 222
Width: 619
Flags: W
HStem: -10 152.63<306.527 477.083> 610.872 150.13<322.626 397.043>
VStem: 78 189.229<140.954 500.786> 405.644 167.496<492.935 605.146>
LayerCount: 2
Fore
SplineSet
78 280.099609375 m 0
 78 596.732329196 178.555333425 761.001953125 367.900390625 761.001953125 c 0
 515.019041593 761.001953125 573.139648438 664.869197751 573.139648438 575.20703125 c 0
 573.139648438 226.434366391 14 166 14 166 c 1
 0 299.5 l 1
 0 299.5 405.643554688 370.383306283 405.643554688 560.501953125 c 4
 405.643554688 592.160196523 389.992572206 610.872070312 359.900390625 610.872070312 c 4
 294.593299589 610.872070312 267.229492188 482.813052186 267.229492188 295.875 c 0
 267.229492188 196.384943952 285.26404419 142.629882812 376.5 142.629882812 c 0
 457.44936981 142.629882812 513.458007812 182.924804688 513.458007812 182.924804688 c 1
 563 42 l 1
 563 42 502.068063888 -10 367.400390625 -10 c 0
 180.461646544 -10 78 85.5225551232 78 280.099609375 c 0
EndSplineSet
EndChar

StartChar: uni20B8
Encoding: 8376 8376 223
Width: 614
Flags: W
HStem: 0 21G<212.5 401.5> 357.5 153.5<25 212.5 401.5 589> 357.5 123.5<212.5 401.5> 577.5 153.5<25 589>
VStem: 212.5 189<0 481>
LayerCount: 2
Fore
SplineSet
589 577.5 m 1x98
 25 577.5 l 1
 25 731 l 1
 589 731 l 1
 589 577.5 l 1x98
589 357.5 m 5xd8
 25 357.5 l 5
 25 511 l 1
 589 511 l 1
 589 357.5 l 5xd8
212.5 0 m 1
 212.5 481 l 1
 401.5 481 l 1xb8
 401.5 0 l 1
 212.5 0 l 1
EndSplineSet
EndChar

StartChar: uni20BC
Encoding: 8380 8380 224
Width: 839
Flags: W
HStem: 0 21G<50 239 325 514 596.777 785.777> 408.544 172.462<310.284 632.372> 711.008 20G<325 514>
VStem: 50 189<0 335.954> 325 189<0 731.008> 596.777 189<0 335.954>
LayerCount: 2
Fore
SplineSet
417.888671875 581.005859375 m 0
 692.631497073 581.005859375 785.77734375 448.886581312 785.77734375 246.446289062 c 2
 785.77734375 0 l 1
 596.77734375 0 l 1
 596.77734375 216.446289062 l 2
 596.77734375 331.637990961 572.112987545 408.543945312 417.888671875 408.543945312 c 0
 263.664356205 408.543945312 239 331.637990961 239 216.446289062 c 2
 239 0 l 1
 50 0 l 1
 50 246.446289062 l 2
 50 448.886581312 143.145846677 581.005859375 417.888671875 581.005859375 c 0
325 0 m 1
 325 731.0078125 l 1
 514 731.0078125 l 1
 514 0 l 1
 325 0 l 1
EndSplineSet
EndChar

StartChar: Ohorn
Encoding: 416 416 225
Width: 797
Flags: W
HStem: -9.99805 169.962<304.701 493.076> 569.159 169.962<304.701 493.076>
VStem: 30 182.349<254.596 474.527> 578.16 146.76<672.574 813.507> 585.429 182.349<254.596 474.527>
AnchorPoint: "Anchor-0" 359 731 basechar 0
AnchorPoint: "Anchor-2" 398 0 basechar 0
AnchorPoint: "Anchor-3" 471 20 basechar 0
LayerCount: 2
Fore
SplineSet
548.080078125 825.799804688 m 1xf0
 702.759765625 825.799804688 l 1
 702.759765625 825.799804688 724.919921875 795.200195312 724.919921875 738.9921875 c 0
 724.919921875 645 642.599609375 592.639648438 642.599609375 592.639648438 c 1
 533.16015625 641.360351562 l 1
 533.16015625 641.360351562 578.16015625 688 578.16015625 733.729492188 c 0
 578.16015625 790.55078125 548.080078125 825.799804688 548.080078125 825.799804688 c 1xf0
EndSplineSet
Refer: 1 79 N 1 0 0 1 0 0 2
EndChar

StartChar: ohorn
Encoding: 417 417 226
Width: 589
Flags: W
HStem: -9.99805 162.462<234.752 353.944> 348.284 162.649<234.026 354.719>
VStem: 34 172.849<181.664 322.321> 382.929 172.849<181.664 322.321> 404.16 140.76<462.574 603.507>
AnchorPoint: "Anchor-0" 224 501.011 basechar 0
AnchorPoint: "Anchor-2" 294 0 basechar 0
AnchorPoint: "Anchor-3" 357 28 basechar 0
LayerCount: 2
Fore
SplineSet
374.080078125 615.799804688 m 1xe8
 522.759765625 615.799804688 l 1
 522.759765625 615.799804688 544.919921875 585.200195312 544.919921875 528.9921875 c 0
 544.919921875 435 462.599609375 382.639648438 462.599609375 382.639648438 c 1
 359.16015625 431.360351562 l 1
 359.16015625 431.360351562 404.16015625 478 404.16015625 523.729492188 c 0
 404.16015625 580.55078125 374.080078125 615.799804688 374.080078125 615.799804688 c 1xe8
EndSplineSet
Refer: 29 111 N 1 0 0 1 0 0 2
EndChar

StartChar: Uhorn
Encoding: 431 431 227
Width: 777
Flags: W
HStem: -9.99805 169.962<278.076 437.701> 661 164.8<633 717.142> 711.008 20G<50 239 476.777 665.777>
VStem: 50 189<199.747 731.008> 476.777 189<199.747 731.008> 602 150<737.954 815.378>
AnchorPoint: "Anchor-0" 342 731 basechar 0
AnchorPoint: "Anchor-2" 358 0.0117188 basechar 0
AnchorPoint: "Anchor-3" 451 18 basechar 0
LayerCount: 2
Fore
SplineSet
568.080078125 825.799804688 m 1xd4
 722.759765625 825.799804688 l 1
 722.759765625 825.799804688 752 800 752 752 c 0
 752 692 704 661 633 661 c 1xd4
 529 731.0078125 l 1xb4
 563 731.0078125 602 732.480474404 602 770 c 0
 602 804 568.080078125 825.799804688 568.080078125 825.799804688 c 1xd4
EndSplineSet
Refer: 6 85 N 1 0 0 1 0 0 2
EndChar

StartChar: uhorn
Encoding: 432 432 228
Width: 660
Flags: W
HStem: -9.92285 148.149<176.444 332.279> 0 21G<366.777 545.777> 481.011 20G<50 229 366.777 545.777>
VStem: 50 179<153.269 501.011> 366.777 179<207.449 501.011> 485 150<509.138 596.83>
AnchorPoint: "Anchor-0" 272 501.011 basechar 0
AnchorPoint: "Anchor-2" 302 0.0117188 basechar 0
AnchorPoint: "Anchor-3" 454 0 basechar 0
LayerCount: 2
Fore
SplineSet
442.759765625 615.799804688 m 1x34
 597.439453125 615.799804688 l 1
 597.439453125 615.799804688 635 584.757147576 635 527.002929688 c 0
 635 463.706226391 587 431.002929688 516 431.002929688 c 1
 412 501.010742188 l 1
 446 501.010742188 485 502.67223835 485 545.002929688 c 0
 485 588.140961505 442.759765625 615.799804688 442.759765625 615.799804688 c 1x34
EndSplineSet
Refer: 50 117 N 1 0 0 1 0 0 2
EndChar

StartChar: integral
Encoding: 8747 8747 229
Width: 448
Flags: W
HStem: -190.011 156.5<-70.2259 71.6329> 612.511 148.5<326.108 469.226>
LayerCount: 2
Fore
SplineSet
85 31.9892578125 m 2
 135 570.010742188 l 2
 146.226779029 684.979719828 195.672236874 761.010742188 342 761.010742188 c 0
 424.759014423 761.010742188 482 745.010742188 482 745.010742188 c 1
 468 601.510742188 l 1
 468 601.510742188 431.745043945 612.510742188 381 612.510742188 c 0
 333.828732052 612.510742188 317.663057487 596.280292411 314 557.010742188 c 2
 264 20.9892578125 l 2
 251.562319707 -105.906604899 203.327586207 -190.010742188 57 -190.010742188 c 0
 -25.7590272485 -190.010742188 -83 -174.010742188 -83 -174.010742188 c 1
 -69 -22.5107421875 l 1
 -69 -22.5107421875 -32.7453707182 -33.5107421875 18 -33.5107421875 c 0
 65.1715332031 -33.5107421875 80.704429079 -14.2329310513 85 31.9892578125 c 2
EndSplineSet
EndChar

StartChar: dotlessi
Encoding: 305 305 231
Width: 269
Flags: W
HStem: 0 21G<45 224> 481.011 20G<45 224>
VStem: 45 179<0 501.011>
AnchorPoint: "Anchor-0" 134 501.011 basechar 0
AnchorPoint: "Anchor-2" 137 0 basechar 0
AnchorPoint: "Anchor-3" 141 0 basechar 0
LayerCount: 2
Fore
SplineSet
45 0 m 1
 45 501.010742188 l 1
 224 501.010742188 l 1
 224 0 l 1
 45 0 l 1
EndSplineSet
EndChar

StartChar: uni0237
Encoding: 567 567 232
Width: 269
Flags: W
HStem: -190 158.5<-100.24 27.6046> 481.011 20G<45 224>
VStem: 45 179<-12.766 501.011>
AnchorPoint: "Anchor-0" 134 501.011 basechar 0
AnchorPoint: "Anchor-2" 17 -179.988 basechar 0
LayerCount: 2
Fore
SplineSet
45 51 m 2
 45 501.010742188 l 1
 224 501.010742188 l 1
 224 36 l 2
 224 -100.028436019 161.862068966 -190 12 -190 c 0
 -61.8919886147 -190 -113 -175 -113 -175 c 1
 -99 -21 l 1
 -99 -21 -68.371089055 -31.5 -25.5 -31.5 c 0
 24.1357177734 -31.5 45 -6.65060240964 45 51 c 2
EndSplineSet
EndChar

StartChar: uni20B3
Encoding: 8371 8371 233
Width: 824
Flags: W
HStem: 0 21G<62.5 272.752 552.119 761.5> 139 86<25 799> 269 86<55 769> 711.008 20G<315.387 528.066>
LayerCount: 2
Fore
SplineSet
521.5 731.0078125 m 1
 761.5 0 l 1
 557.5 0 l 1
 422.893554688 500.313476562 l 1
 266.5 0 l 1
 62.5 0 l 1
 322.5 731.0078125 l 1
 521.5 731.0078125 l 1
769 269 m 1
 55 269 l 1
 55 355 l 1
 769 355 l 1
 769 269 l 1
799 139 m 1
 25 139 l 1
 25 225 l 1
 799 225 l 1
 799 139 l 1
EndSplineSet
EndChar

StartChar: hookabovecomb
Encoding: 777 777 234
Width: 0
Flags: W
HStem: 468 121.049<46.9326 146.844> 636.229 102.764<18.0706 144.941>
VStem: 45.1816 119.956<468 523.653>
AnchorPoint: "Anchor-0" 103 427 mark 0
LayerCount: 2
Fore
SplineSet
163.645507812 523.653320312 m 1
 165.137695312 468 l 1
 45.181640625 468 l 1
 46.9150390625 593.46875 l 1
 46.9150390625 593.46875 70.9638655598 589.048828125 101.157226562 589.048828125 c 4
 132.065422577 589.048828125 146.854492188 596.239160431 146.854492188 609.645507812 c 4
 146.854492188 628.0817046 126.9132223 636.228515625 97.6533203125 636.228515625 c 4
 52.3587186721 636.228515625 22.6826171875 616.958007812 22.6826171875 616.958007812 c 1
 0 715.311523438 l 1
 0 715.311523438 42.9268465404 738.9921875 116.653320312 738.9921875 c 0
 215.097298323 738.9921875 284.62890625 702.759765625 284.62890625 614.010742188 c 0
 284.62890625 552.147141978 239.547154768 522.390625 189.138183593 522.390625 c 0
 172.486300562 522.390625 163.645507812 523.653320312 163.645507812 523.653320312 c 1
EndSplineSet
EndChar

StartChar: uni20B1
Encoding: 8369 8369 235
Width: 844
Flags: W
HStem: 0 21G<146 335> 224 159.852<260 492.067> 339 86<25 234 610 819> 469 86<25 234 610 819> 567.149 163.858<335 492.343>
VStem: 146 88<339 425 469 555> 260 75<224 383.852> 610 106.777<339 425 469 555>
LayerCount: 2
Fore
SplineSet
819 339 m 1xbf
 610 339 l 1
 610 425 l 1
 819 425 l 1
 819 339 l 1xbf
819 469 m 1
 610 469 l 1
 610 555 l 1
 819 555 l 1
 819 469 l 1
234 339 m 1
 25 339 l 1
 25 425 l 1
 234 425 l 1
 234 339 l 1
234 469 m 1
 25 469 l 1
 25 555 l 1
 234 555 l 1
 234 469 l 1
260 224 m 1xdf
 260 383.8515625 l 1
 405.888671875 383.961914062 l 2
 474.03920561 384.099935579 524.928710938 400.252721378 524.928710938 474.561523438 c 0
 524.928710938 549.754348818 474.039211073 566.925551059 405.888671875 567.045898438 c 2
 335 567.149414062 l 1
 335 0 l 1
 146 0 l 1
 146 731.0078125 l 1
 429.888671875 731.0078125 l 2
 580.834960938 731.0078125 716.77734375 661.165039062 716.77734375 474.561523438 c 0
 716.77734375 291.297851562 579.951171875 224 429.888671875 224 c 2
 260 224 l 1xdf
EndSplineSet
EndChar

StartChar: uni20A9
Encoding: 8361 8361 236
Width: 1114
Flags: W
HStem: 0 21G<235.471 500.672 622.905 887.694> 259 86<45 269 845 1069> 389 86<25 269 845 1089> 711.008 20G<110 306.945 821.987 1019>
LayerCount: 2
Fore
SplineSet
1069 259 m 1
 845 259 l 1
 845 345 l 1
 1069 345 l 1
 1069 259 l 1
1089 389 m 1
 845 389 l 1
 845 475 l 1
 1089 475 l 1
 1089 389 l 1
269 259 m 1
 45 259 l 1
 45 345 l 1
 269 345 l 1
 269 259 l 1
269 389 m 1
 25 389 l 1
 25 475 l 1
 269 475 l 1
 269 389 l 1
239 0 m 1
 110 731.0078125 l 1
 304 731.0078125 l 1
 380.606445312 210.694335938 l 1
 480 671.0078125 l 1
 654 671.0078125 l 1
 746.606445312 210.694335938 l 1
 825 731.0078125 l 1
 1019 731.0078125 l 1
 884 0 l 1
 626 0 l 1
 567 381.271484375 l 1
 497 0 l 1
 239 0 l 1
EndSplineSet
EndChar

StartChar: franc
Encoding: 8355 8355 237
Width: 584
Flags: W
HStem: 0 21G<90 279> 104 121<30 384> 304 168<185 494> 567.508 163.5<279 554>
VStem: 90 189<0 304 472 567.508> 185 94<304 472>
LayerCount: 2
Fore
SplineSet
384 104 m 1xf0
 30 104 l 1
 30 225 l 1
 384 225 l 1
 384 104 l 1xf0
494 304 m 1
 185 304 l 1
 185 472 l 1xf4
 494 472 l 1
 494 304 l 1
279 567.5078125 m 1xf8
 279 0 l 1
 90 0 l 1
 90 731.0078125 l 1
 554 731.0078125 l 1
 554 567.5078125 l 1
 279 567.5078125 l 1xf8
EndSplineSet
EndChar

StartChar: peseta
Encoding: 8359 8359 238
Width: 844
Flags: W
HStem: 0 21G<146 335> 224 159.852<260 492.067> 429 86<30 814> 567.149 163.858<335 492.343>
VStem: 146 189<0 224 383.852 567.149> 260 75<224 383.852> 524.929 191.849<405.716 538.863>
LayerCount: 2
Fore
SplineSet
814 429 m 1xf2
 629 429 l 1
 585 429 l 1
 265 429 l 1
 209 429 l 1
 30 429 l 1
 30 515 l 1
 211 515 l 1
 267 515 l 1
 583 515 l 1
 627 515 l 1
 814 515 l 1
 814 429 l 1xf2
260 224 m 1xf6
 260 383.8515625 l 1xf6
 405.888671875 383.961914062 l 2
 474.03927618 384.008169528 524.928710938 400.252721378 524.928710938 474.561523438 c 0
 524.928710938 549.754348818 474.039250501 566.957915974 405.888671875 567.045898438 c 2
 335 567.149414062 l 1
 335 0 l 1
 146 0 l 1
 146 731.0078125 l 1xfa
 429.888671875 731.0078125 l 2
 580.834960938 731.0078125 716.77734375 661.165039062 716.77734375 474.561523438 c 0
 716.77734375 291.297851562 579.951171875 224 429.888671875 224 c 2
 260 224 l 1xf6
EndSplineSet
EndChar

StartChar: uni20BE
Encoding: 8382 8382 239
Width: 781
Flags: W
HStem: 0 163.5<459 744> 57.502 105.998<175.715 410.889> 719.121 20G<299.207 520.199>
VStem: 50 194.849<270.706 487.336> 309 86<388 812> 439 86<388 812>
LayerCount: 2
Fore
SplineSet
525 812 m 1x3c
 525 388 l 1
 439 388 l 1
 439 812 l 1
 525 812 l 1x3c
395 812 m 1
 395 388 l 1
 309 388 l 1
 309 812 l 1
 395 812 l 1
744 0 m 1xbc
 25 0 l 1xbc
 25 163.5 l 1x7c
 744 163.5 l 1
 744 0 l 1xbc
410.888671875 57.501953125 m 1x7c
 175.714798987 57.501953125 50 190.607929448 50 394.561523438 c 0
 50 603.05352116 182.525811761 739.12109375 415.888671875 739.12109375 c 0
 624.510006052 739.12109375 765.806331637 601.973940289 761.681640625 410.891601562 c 1
 584.35546875 393.138671875 l 1
 588.519179419 504.654866759 535.945411775 569.159179688 422.888671875 569.159179688 c 0
 298.170666639 569.159179688 244.848632812 495.25654137 244.848632812 384.561523438 c 0
 244.848632812 252.001623925 303.785821929 163.5 459 163.5 c 1xbc
 410.888671875 57.501953125 l 1x7c
EndSplineSet
EndChar

StartChar: uni030F
Encoding: 783 783 251
Width: 0
Flags: W
HStem: 516 225.008
AnchorPoint: "Anchor-0" 255 480 mark 0
LayerCount: 2
Fore
SplineSet
112 516 m 1
 -10 711.0078125 l 1
 156 741.0078125 l 1
 228 536 l 1
 112 516 l 1
302 516 m 1
 180 711.0078125 l 1
 346 741.0078125 l 1
 418 536 l 1
 302 516 l 1
EndSplineSet
EndChar

StartChar: uni0326
Encoding: 806 806 254
Width: 0
Flags: W
HStem: -277 277.449
VStem: -10 175.227<-146.752 -31.4736>
AnchorPoint: "Anchor-2" 82 48 mark 0
LayerCount: 2
Fore
SplineSet
-10 -88.232421875 m 0
 -10 -34.5080511418 23.7912063703 0.44921875 75.7255859375 0.44921875 c 0
 129.94706882 0.44921875 165.2265625 -38.2286291296 165.2265625 -108.232421875 c 0
 165.2265625 -202.741559736 78.11328125 -277 78.11328125 -277 c 1
 17.11328125 -229 l 1
 17.11328125 -229 51.6708984375 -202.53125 67.11328125 -176 c 1
 20.0071791441 -171.478759161 -10 -137.917399939 -10 -88.232421875 c 0
EndSplineSet
EndChar

StartChar: uni031B
Encoding: 795 795 258
Width: 0
Flags: W
HStem: 497.848 233.16
VStem: 35 156.76<577.782 718.715>
LayerCount: 2
Fore
SplineSet
4.919921875 731.0078125 m 1
 169.599609375 731.0078125 l 1
 169.599609375 731.0078125 191.759765625 700.408203124 191.759765625 644.200195312 c 0
 191.759765625 550.208007812 109.439453125 497.84765625 109.439453125 497.84765625 c 1
 -10 546.568359375 l 1
 -10 546.568359375 35 593.208007812 35 638.9375 c 0
 35 695.758789062 4.919921875 731.0078125 4.919921875 731.0078125 c 1
EndSplineSet
EndChar

StartChar: dcaron
Encoding: 271 271 406
Width: 763
Flags: W
HStem: -9.99805 147.149<241.745 347.116> 0 21G<378 557> 362.972 147.962<243.667 359.429> 731 20G<630.343 793> 731.002 20G<378 557>
VStem: 33.0713 179.849<169.793 331.042> 378 62.8486<75.1885 217.374> 378 72.8486<317.374 434.496> 378 179<217.374 751.002>
LayerCount: 2
Fore
SplineSet
636 751 m 25x34
 793 751 l 25
 698 553 l 25
 580 553 l 25
 636 751 l 25x34
EndSplineSet
Refer: 44 100 N 1 0 0 1 0 0 2
EndChar

StartChar: tcaron
Encoding: 357 357 407
Width: 463
Flags: W
HStem: -10 150.5<266.151 370.633> 355 146.011<9 387> 731 20G<340.343 503>
VStem: 85 179<146.733 651.011>
LayerCount: 2
Fore
SplineSet
346 751 m 25
 503 751 l 25
 408 553 l 25
 290 553 l 25
 346 751 l 25
EndSplineSet
Refer: 41 116 N 1 0 0 1 0 0 2
EndChar

StartChar: dcroat
Encoding: 273 273 409
Width: 622
Flags: W
HStem: -9.99805 147.149<241.745 347.116> 0 21G<378 557> 362.972 147.962<243.667 359.429> 542.5 136<283 627> 731.002 20G<378 557>
VStem: 33.0713 179.849<169.793 331.042> 378 62.8486<75.1885 217.374> 378 72.8486<317.374 434.496> 378 179<217.374 751.002>
LayerCount: 2
Fore
SplineSet
627 542.5 m 1x3c
 283 542.5 l 1
 283 678.5 l 1
 627 678.5 l 1
 627 542.5 l 1x3c
EndSplineSet
Refer: 44 100 N 1 0 0 1 0 0 2
EndChar

StartChar: Tbar
Encoding: 358 358 410
Width: 614
Flags: W
HStem: 0 21G<212.5 401.5> 230 161<100 514> 567.5 133.5<212.5 401.5> 567.5 163.5<25 212.5 401.5 589>
VStem: 212.5 189<0 701>
LayerCount: 2
Fore
SplineSet
514 230 m 1xc8
 100 230 l 1
 100 391 l 1
 514 391 l 1
 514 230 l 1xc8
EndSplineSet
Refer: 17 84 N 1 0 0 1 0 0 2
EndChar

StartChar: tbar
Encoding: 359 359 411
Width: 412
Flags: W
HStem: -10 150.5<266.151 370.633> 196.5 136<39 343> 355 146.011<9 387>
VStem: 85 179<146.733 651.011>
LayerCount: 2
Fore
SplineSet
343 196.5 m 1
 39 196.5 l 1
 39 332.5 l 1
 343 332.5 l 1
 343 196.5 l 1
EndSplineSet
Refer: 41 116 N 1 0 0 1 0 0 2
EndChar

StartChar: Hbar
Encoding: 294 294 412
Width: 859
Flags: W
HStem: 0 21G<120 309 550 739> 275 166<215 629> 491.011 161<25 834> 711.008 20G<120 309 550 739>
VStem: 120 189<0 275 441 731.008> 215 94<275 441> 550 79<275 441> 550 189<0 275 441 731.008>
LayerCount: 2
Fore
SplineSet
834 491.010742188 m 1xf0
 25 488 l 1
 25 649 l 1
 834 652.010742188 l 1
 834 491.010742188 l 1xf0
EndSplineSet
Refer: 2 72 N 1 0 0 1 70 0 2
EndChar

StartChar: hbar
Encoding: 295 295 413
Width: 637
Flags: W
HStem: 0 21G<92 271 408.777 587.777> 362.784 148.149<305.498 461.333> 542.5 136<30 364> 731.002 20G<92 271>
VStem: 92 179<0 751.002> 408.777 179<0 347.742>
LayerCount: 2
Fore
SplineSet
364 542.5 m 1
 30 542.5 l 1
 30 678.5 l 1
 364 678.5 l 1
 364 542.5 l 1
EndSplineSet
Refer: 36 104 N 1 0 0 1 42 0 2
EndChar

StartChar: Lslash
Encoding: 321 321 429
Width: 612
Flags: W
HStem: 0 163.5<283 588> 711.008 20G<94 283>
VStem: 94 189<163.5 731.008>
LayerCount: 2
Fore
SplineSet
425 357 m 1
 31 268 l 1
 19 425 l 1
 413 514 l 1
 425 357 l 1
EndSplineSet
Refer: 7 76 N 1 0 0 1 44 0 2
EndChar

StartChar: lslash
Encoding: 322 322 430
Width: 425
Flags: W
HStem: -10.0088 156.5<274.182 376.48> 731.002 20G<89 268>
VStem: 89 179<151.445 751.002>
LayerCount: 2
Fore
SplineSet
355 377 m 1
 31 288 l 1
 19 445 l 1
 343 534 l 1
 355 377 l 1
EndSplineSet
Refer: 35 108 N 1 0 0 1 44 0 2
EndChar

StartChar: guilsinglleft
Encoding: 8249 8249 530
Width: 340
Flags: W
VStem: 30 320
LayerCount: 2
Fore
SplineSet
30 281 m 1
 170 441 l 1
 350 441 l 1
 196.75 254 l 1
 350 67 l 1
 170 67 l 1
 30 227 l 1
 30 281 l 1
EndSplineSet
EndChar

StartChar: guilsinglright
Encoding: 8250 8250 531
Width: 340
Flags: W
VStem: -10 320
LayerCount: 2
Fore
SplineSet
310 227 m 1
 170 67 l 1
 -10 67 l 1
 143.25 254 l 1
 -10 441 l 1
 170 441 l 1
 310 281 l 1
 310 227 l 1
EndSplineSet
EndChar

StartChar: uni20AE
Encoding: 8366 8366 532
Width: 614
Flags: W
HStem: 0 21G<212.5 401.5> 567.5 163.5<25 212.5 401.5 589> 567.5 133.5<212.5 401.5>
VStem: 212.5 189<0 701>
LayerCount: 2
Fore
SplineSet
589 567.5 m 1xd0
 25 567.5 l 1
 25 731 l 1
 589 731 l 1
 589 567.5 l 1xd0
212.5 0 m 1
 212.5 701 l 1
 401.5 701 l 1xb0
 401.5 0 l 1
 212.5 0 l 1
494 255 m 1
 120 145 l 1
 120 231 l 1
 494 341 l 1
 494 255 l 1
494 385 m 1
 120 275 l 1
 120 361 l 1
 494 471 l 1
 494 385 l 1
EndSplineSet
EndChar

StartChar: estimated
Encoding: 8494 8494 533
Width: 765
Flags: W
HStem: -9.99805 129.462<308.921 616.678> 294 110<137 533> 362 42<533 603> 611.659 127.462<290.849 497.585>
VStem: 134.849 115<294 604.562> 137 37.8486<299.433 398.364> 533 115<362 404 418.734 624> 603.598 44.4023<404.004 485.184>
LayerCount: 2
Fore
SplineSet
533 624 m 5xb2
 648 624 l 1
 648 362 l 1
 533 362 l 5
 533 624 l 5xb2
134.848632812 604.561523438 m 1x98
 249.848632812 604.561523438 l 1
 249.848632812 132.561523438 l 1
 134.848632812 132.561523438 l 1
 134.848632812 604.561523438 l 1x98
35 364.561523438 m 0
 35 591.206054688 163.541887394 739.12109375 389.888671875 739.12109375 c 0
 633.541980974 739.12109375 740.108398438 587.014334807 740.108398438 395.891601562 c 0
 740.108398438 317.689453126 732 294 732 294 c 1
 137 294 l 1xd5
 135 404 l 1
 603 404 l 1
 603 404 603.597738286 409.501131851 603.597738286 418.733821552 c 0
 603.597738286 485.183558112 568.986135367 611.659179688 395 611.659179688 c 0
 241.372436273 611.659179688 174.848632812 512.73450198 174.848632812 364.561523438 c 0xb5
 174.848632812 217.587851927 252.42961018 119.463867188 433.888671875 119.463867188 c 0
 584.989456324 119.463867188 665.018554688 156.595703125 665.018554688 156.595703125 c 1
 687.827148438 32.595703125 l 1
 687.827148438 32.595703125 607.816016916 -9.998046875 425.888671875 -9.998046875 c 0
 176.581210181 -9.998046875 35 137.916992188 35 364.561523438 c 0
EndSplineSet
EndChar

StartChar: Omega
Encoding: 8486 8486 534
Width: 837
Flags: W
HStem: 0 158.5<25 137.328 329.029 384 453 508.28 700.166 812> 569.159 169.962<325.352 512.425>
VStem: 50 184.849<259.443 472.713> 453 359<0 158.5> 602.929 184.849<259.443 472.713>
LayerCount: 2
Fore
SplineSet
384 0 m 1xe8
 25 0 l 1
 25 158.5 l 1
 137.328125 158.5 l 1
 137.328125 158.5 50 221.913679203 50 384.561523438 c 0
 50 599.104132899 189.580380422 739.12109375 418.888671875 739.12109375 c 0
 648.196963328 739.12109375 787.77734375 599.104132899 787.77734375 384.561523438 c 0xe8
 787.77734375 221.913679203 700.166015625 158.5 700.166015625 158.5 c 1
 812 158.5 l 1
 812 0 l 1
 453 0 l 1
 453 158.5 l 1xf0
 545.115280654 181.934435431 602.928710938 240.996006248 602.928710938 364.561523438 c 0
 602.928710938 487.24922752 547.809795123 569.159179688 418.888671875 569.159179688 c 0
 289.967548627 569.159179688 234.848632812 487.24922752 234.848632812 364.561523438 c 0
 234.848632812 240.996006248 292.4194981 181.934435431 384 158.5 c 1
 384 0 l 1xe8
EndSplineSet
EndChar

StartChar: uni2E3A
Encoding: 11834 11834 536
Width: 1080
Flags: W
HStem: 199.5 160<25 1055>
LayerCount: 2
Fore
SplineSet
25 199.5 m 1
 25 359.5 l 1
 1055 359.5 l 1
 1055 199.5 l 1
 25 199.5 l 1
EndSplineSet
EndChar

StartChar: uni2E3B
Encoding: 11835 11835 537
Width: 1380
Flags: W
HStem: 199.5 160<25 1355>
LayerCount: 2
Fore
SplineSet
25 199.5 m 1
 25 359.5 l 1
 1355 359.5 l 1
 1355 199.5 l 1
 25 199.5 l 1
EndSplineSet
EndChar

StartChar: pi
Encoding: 960 960 538
Width: 672
Flags: W
HStem: -10 135<458.113 629.473> 0 21G<51 240> 349 152.011<9 100 279 365 544 647> 349 132.011<100 279>
VStem: 100 179<120.725 481.011> 365 179<128.522 441.011>
LayerCount: 2
Fore
SplineSet
51 0 m 1x5c
 51 0 100 155.741721854 100 351 c 2
 100 481.010742188 l 1
 279 481.010742188 l 1
 279 329 l 2
 279 141 240 0 240 0 c 1
 51 0 l 1x5c
9 501.010742188 m 1x2c
 647 501.010742188 l 1
 647 349 l 1
 9 349 l 1
 9 501.010742188 l 1x2c
544 168 m 2
 544 137.951816775 554.062391493 125 578 125 c 0
 607.163411458 125 628 136 628 136 c 1
 642 6 l 1
 642 6 592.9359375 -10 522 -10 c 0x8c
 394.225967162 -10 365 58.076171875 365 161 c 2
 365 441.010742188 l 1
 544 461.010742188 l 1
 544 168 l 2
EndSplineSet
EndChar

StartChar: radical
Encoding: 8730 8730 539
Width: 686
Flags: W
HStem: 0 21G<248.157 489.527> 481.011 20G<5 280.097> 711.008 20G<492.247 686>
LayerCount: 2
Fore
SplineSet
274 501.010742188 m 1
 368.606445312 190.694335938 l 1
 497 731.0078125 l 1
 686 731.0078125 l 1
 484 0 l 1
 255 0 l 1
 139.35546875 338.010742188 l 1
 15 328.010742188 l 1
 5 482.010742188 l 1
 274 501.010742188 l 1
EndSplineSet
EndChar

StartChar: .notdef
Encoding: 65536 -1 681
Width: 639
Flags: W
HStem: 0 144<231.5 435> 587.008 144<204 407.5>
VStem: 45 159<144 587.008>
LayerCount: 2
Fore
SplineSet
204 587.0078125 m 1
 204 144 l 1
 435 144 l 1
 435 587.0078125 l 1
 204 587.0078125 l 1
594 0 m 1
 45 0 l 1
 45 731.0078125 l 1
 594 731.0078125 l 1
 594 0 l 1
87.5 50 m 1
 407.5 681 l 1
 551.5 681 l 1
 231.5 50 l 1
 87.5 50 l 1
EndSplineSet
EndChar

